<svg width="120" height="25" fill="none" xmlns="http://www.w3.org/2000/svg"><path d="M24.41 12.205c0 6.74-5.464 12.205-12.205 12.205C5.465 24.41 0 18.946 0 12.205 0 5.465 5.464 0 12.205 0c6.74 0 12.205 5.464 12.205 12.205z" fill="#F05A28"/><path d="M36.882 9.736c-.87 0-1.66-.187-2.368-.561a4.351 4.351 0 01-1.66-1.575c-.398-.675-.598-1.436-.598-2.282 0-.846.2-1.603.598-2.27.407-.676.96-1.2 1.66-1.575.708-.382 1.502-.573 2.38-.573.74 0 1.408.13 2.002.39a4.01 4.01 0 011.513 1.123L39.14 3.585c-.578-.667-1.294-1.001-2.148-1.001-.529 0-1.001.118-1.416.354-.415.228-.74.55-.976.964a2.892 2.892 0 00-.342 1.416c0 .529.114 1 .342 1.416.236.415.561.74.976.976.415.228.887.342 1.416.342.854 0 1.57-.338 2.148-1.013l1.27 1.171a3.957 3.957 0 01-1.514 1.136c-.602.26-1.273.39-2.014.39zm12.457 0c-.887 0-1.689-.191-2.405-.574a4.328 4.328 0 01-1.672-1.574c-.399-.675-.598-1.432-.598-2.27 0-.838.2-1.59.598-2.258a4.299 4.299 0 011.672-1.587C47.65 1.091 48.452.9 49.34.9c.886 0 1.684.19 2.392.573a4.298 4.298 0 011.672 1.587c.407.667.61 1.42.61 2.258 0 .838-.203 1.595-.61 2.27a4.327 4.327 0 01-1.672 1.574c-.708.383-1.506.574-2.392.574zm0-1.684c.504 0 .96-.114 1.367-.342.406-.236.724-.561.951-.976.237-.415.355-.887.355-1.416 0-.529-.118-1-.355-1.416a2.412 2.412 0 00-.951-.964 2.674 2.674 0 00-1.367-.354c-.505 0-.96.118-1.367.354-.407.228-.729.55-.965.964a2.892 2.892 0 00-.341 1.416c0 .529.114 1 .341 1.416.236.415.558.74.965.976a2.75 2.75 0 001.367.342zM66.73 9.59l-.012-5.126-2.514 4.223h-.891L60.81 4.573V9.59h-1.855V1.046h1.635l3.198 5.31 3.149-5.31h1.623l.024 8.544H66.73zm11.037-8.544c.757 0 1.412.126 1.965.378.561.253.993.61 1.294 1.075.3.463.451 1.013.451 1.647 0 .627-.15 1.176-.451 1.648-.301.464-.733.822-1.294 1.074-.553.244-1.208.366-1.965.366h-1.72V9.59h-1.978V1.046h3.698zm-.11 4.577c.594 0 1.046-.126 1.355-.378.31-.26.464-.627.464-1.099 0-.48-.155-.846-.464-1.098-.31-.26-.76-.39-1.355-.39h-1.61v2.965h1.61zm14.434 2.136h-3.966l-.757 1.83h-2.026l3.808-8.543h1.953l3.82 8.544h-2.075l-.757-1.831zm-.622-1.501l-1.355-3.271-1.355 3.27h2.71zm15.632-5.212V9.59h-1.623l-4.259-5.187V9.59h-1.953V1.046h1.635l4.248 5.187V1.046h1.952zm9.579 5.517V9.59h-1.977V6.538l-3.308-5.492h2.1l2.282 3.796 2.282-3.796H120l-3.32 5.517z" fill="#000"/><path d="M40.092 13.949v8.543h-1.623l-4.26-5.187v5.187h-1.953V13.95h1.636l4.247 5.187V13.95h1.953zm11.104 6.713H47.23l-.757 1.83h-2.026l3.808-8.543h1.953l3.82 8.543h-2.075l-.757-1.83zm-.622-1.502l-1.355-3.27-1.355 3.27h2.71zm15.571 3.332l-.012-5.126-2.514 4.223h-.89l-2.503-4.113v5.016h-1.855V13.95h1.635l3.198 5.309 3.149-5.31h1.623l.025 8.544h-1.856zM80.1 20.906v1.586h-6.616V13.95h6.457v1.586h-4.492v1.856h3.967v1.537h-3.967v1.978h4.65z" fill="#F05A28"/></svg>