<svg width="198" height="41" fill="none" xmlns="http://www.w3.org/2000/svg"><path d="M40.277 20.205c0 11.122-9.017 20.139-20.139 20.139S0 31.327 0 20.205 9.016.067 20.138.067c11.122 0 20.139 9.016 20.139 20.138zm20.578-4.074c-1.436 0-2.738-.309-3.906-.926a7.179 7.179 0 01-2.74-2.598c-.657-1.114-.986-2.37-.986-3.766s.329-2.645.987-3.746a6.984 6.984 0 012.739-2.597c1.168-.631 2.477-.947 3.927-.947 1.221 0 2.322.215 3.302.644a6.617 6.617 0 012.497 1.853l-2.094 1.933c-.953-1.1-2.135-1.65-3.544-1.65-.873 0-1.652.194-2.337.583a4.08 4.08 0 00-1.61 1.591c-.376.685-.564 1.463-.564 2.336 0 .873.188 1.652.563 2.336a4.22 4.22 0 001.611 1.611c.685.376 1.464.564 2.337.564 1.41 0 2.59-.557 3.544-1.671l2.094 1.933a6.527 6.527 0 01-2.497 1.873c-.993.43-2.1.644-3.323.644zm20.554 0c-1.464 0-2.786-.315-3.968-.946a7.14 7.14 0 01-2.759-2.598c-.657-1.114-.986-2.363-.986-3.746s.329-2.625.986-3.725a7.092 7.092 0 012.76-2.618c1.18-.631 2.503-.947 3.967-.947 1.463 0 2.779.316 3.947.947a7.093 7.093 0 012.759 2.618c.671 1.1 1.007 2.342 1.007 3.725s-.336 2.632-1.007 3.746a7.14 7.14 0 01-2.76 2.598c-1.167.63-2.483.946-3.946.946zm0-2.779c.832 0 1.584-.188 2.255-.564a4.118 4.118 0 001.57-1.61c.39-.686.585-1.464.585-2.337 0-.873-.195-1.651-.584-2.336a3.98 3.98 0 00-1.57-1.59c-.672-.39-1.424-.585-2.256-.585-.833 0-1.585.195-2.256.584a4.117 4.117 0 00-1.59 1.591c-.377.685-.565 1.463-.565 2.336 0 .873.188 1.652.564 2.336.39.685.92 1.222 1.591 1.611.671.376 1.423.564 2.256.564zm28.696 2.538l-.02-8.459-4.149 6.968h-1.47l-4.128-6.786v8.277h-3.061V1.793h2.698l5.277 8.76 5.195-8.76h2.679l.04 14.097h-3.061zm18.211-14.097c1.248 0 2.329.208 3.242.624.926.416 1.638 1.007 2.135 1.772.496.765.745 1.672.745 2.719 0 1.034-.249 1.94-.745 2.719-.497.765-1.209 1.355-2.135 1.772-.913.403-1.994.604-3.242.604h-2.84v3.887h-3.262V1.793h6.102zm-.182 7.552c.98 0 1.726-.209 2.236-.625.51-.43.765-1.033.765-1.812 0-.792-.255-1.396-.765-1.813-.51-.43-1.256-.644-2.236-.644h-2.658v4.894h2.658zm23.817 3.524h-6.545l-1.249 3.02h-3.343l6.283-14.096h3.222l6.304 14.097h-3.424l-1.248-3.021zm-1.027-2.477l-2.236-5.397-2.235 5.397h4.471zm25.793-8.599V15.89h-2.678l-7.028-8.56v8.56h-3.222V1.793h2.698l7.008 8.559v-8.56h3.222zm15.805 9.102v4.995h-3.262v-5.035l-5.458-9.062h3.464l3.766 6.263 3.766-6.263H198l-5.478 9.102zM66.152 23.082V37.18h-2.679l-7.028-8.559v8.56h-3.222v-14.1h2.698l7.009 8.56v-8.56h3.222zm18.322 11.076H77.93l-1.25 3.022h-3.343l6.284-14.097h3.222l6.303 14.097h-3.423l-1.249-3.02zm-1.027-2.477l-2.235-5.397-2.236 5.397h4.471zm25.693 5.499l-.02-8.459-4.149 6.968h-1.47l-4.128-6.787v8.277h-3.061V23.082h2.698l5.277 8.76 5.195-8.76h2.679l.04 14.097h-3.061zm23.024-2.619v2.618h-10.915V23.082h10.653V25.7h-7.411v3.061h6.545V31.3h-6.545v3.262h7.673z" fill="#fff"/></svg>