<svg width="103" height="90" fill="none" xmlns="http://www.w3.org/2000/svg"><path d="M93.344 45H77.25V32.143a12.826 12.826 0 0112.875-12.857h1.61c2.615 0 4.828-2.01 4.828-4.822V4.821C96.563 2.21 94.35 0 91.734 0h-1.609C72.221 0 57.937 14.464 57.937 32.143v48.214c0 5.424 4.225 9.643 9.657 9.643h25.75c5.23 0 9.656-4.219 9.656-9.643V54.643C103 49.42 98.574 45 93.344 45zm-57.938 0H19.313V32.143a12.826 12.826 0 0112.875-12.857h1.609c2.615 0 4.828-2.01 4.828-4.822V4.821C38.625 2.21 36.412 0 33.797 0h-1.61C14.284 0 0 14.464 0 32.143v48.214C0 85.781 4.225 90 9.656 90h25.75c5.23 0 9.657-4.219 9.657-9.643V54.643c0-5.223-4.426-9.643-9.657-9.643z" fill="#fff" fill-opacity=".4"/></svg>