<svg width="777" height="427" fill="none" xmlns="http://www.w3.org/2000/svg"><g clip-path="url(#clip0_2_78)"><path d="M556.95 408.457s-16.12 8.07-18.692 15.796c0 0 31.382-5.323 37.041-6.696l.343-13.735-17.32.858-1.372 3.777z" fill="#F3F4EA"/><path d="M575.299 417.557v3.434L538.43 427l-.172-2.747 37.041-6.696z" fill="#9D9392"/><path d="M613.197 333.256l34.469 42.751-10.289 8.242-38.07-40.177 13.89-10.816z" fill="#F4C5B7"/><path d="M536.2 195.901l9.089 94.775 56.247 69.02 25.037-21.461-49.045-65.587-5.83-60.264-35.498-16.483z" fill="#F0D9C2"/><path d="M577.185 362.787l-3.258 43.095-13.204.515-1.201-45.155 17.663 1.545z" fill="#F4C5B7"/><path d="M536.2 195.901l25.552 29.017-12.004 157.785h32.925l15.433-186.802H536.2z" fill="#FFE6C9"/><path d="M634.804 386.652s-6.173 16.826-2.572 24.381c0 0 19.035-25.411 22.122-30.562L643.55 370.17l-12.004 12.533 3.258 3.949z" fill="#F3F4EA"/><path d="M654.354 380.471l2.4 2.576-22.464 29.874-2.058-1.888 22.122-30.562z" fill="#9D9392"/><path d="M683.335 290.676l3.258-1.717-48.53-83.786-3.259 1.717 48.531 83.786z" fill="#688890"/><path d="M729.464 396.954c-.343 4.292 2.915 7.898 7.031 8.241 4.287.343 7.888-2.919 8.231-7.039.343-4.293-2.915-7.898-7.03-8.242-4.116-.343-7.889 2.919-8.232 7.04zm27.438-14.079c-.343 4.292 2.915 7.898 7.031 8.241 4.287.344 7.888-2.919 8.231-7.039.343-4.293-2.915-7.898-7.031-8.241-4.115-.344-7.888 2.918-8.231 7.039z" fill="#9D9392"/><path d="M733.237 306.3l-7.202 4.121 40.299 72.282 7.716-4.292c2.744-1.545 3.773-5.151 2.23-7.898l-35.155-61.981c-1.543-2.919-5.144-3.949-7.888-2.232z" fill="#30303B"/><path d="M673.56 293.423l32.582-15.452c4.63-2.232 10.118-.344 12.519 3.949l54.018 97.693-41.843 23.522-57.276-109.712zM559.008 71.253l33.954 1.03s34.811-1.546 31.553 60.779l.172 61.809s-15.948 19.745-57.448 8.242l-8.231-131.86z" fill="#30303B"/><path d="M617.313 180.277c10.975 0 20.064-9.099 20.064-20.088v-25.582c0-10.988-9.089-20.088-20.064-20.088s-20.064 9.1-20.064 20.088v25.582c.172 10.989 9.089 20.088 20.064 20.088z" fill="#30303B"/><path d="M539.63 62.153s-7.888 17.513 1.029 26.784l73.396-1.545s11.489-13.735-1.887-26.44l-72.538 1.201z" fill="#9D9392"/><path d="M615.255 75.545s-1.886-2.747-.514-4.808c1.371-2.06 3.258 3.95 1.371 7.898-1.886 3.95-4.63-2.232-3.086-9.271m-.858-8.584s-4.973 15.623 1.887 26.44" stroke="#BCB3B2" stroke-width=".362" stroke-miterlimit="10" stroke-linecap="round"/><path d="M564.324 61.638s-5.316 8.756-1.372 26.269l-3.087 7.21-3.601-6.695s-4.287-19.23 1.543-26.784h6.517zm35.326-.687s-5.145 9.271-1.201 26.612l-7.03.172s-3.945-19.23 1.714-26.784h6.517z" fill="#383635"/><path d="M512.192 143.707l17.32-40.176c3.945-9.1 11.318-16.14 20.75-19.23.343-.172.515-.172.857-.172 20.236-4.464 38.928.172 38.928.172l1.715.687c8.059 3.434 14.404 9.787 18.005 17.856l18.006 40.176-23.665 10.302 5.317 83.271-82.999-1.03 13.033-83.1-27.267-8.756z" fill="#ED9D89"/><path d="M541.688 87.22c1.372 7.383 2.229 15.109 2.744 22.835.514 7.555.514 15.281-.172 22.835-.686 7.555-1.886 15.109-4.287 21.977s-5.831 13.392-10.632 18.543l6.173 5.837c5.659-6.524 9.261-14.25 11.49-21.976 2.401-7.898 3.258-15.796 3.601-23.866.343-7.897 0-15.795-.686-23.693-.857-7.898-1.886-15.624-3.773-23.35l-4.458.858zm44.586 22.148c1.543-8.584 3.773-16.997 7.202-25.239l5.659 2.233c-2.743 7.726-4.458 15.967-5.487 24.037-1.029 8.241-1.201 16.482 0 24.38 1.2 7.898 3.772 15.452 7.717 22.148 1.029 1.545 2.057 3.091 3.258 4.464l1.029 15.796c-4.973-4.292-9.603-9.271-12.69-15.109-4.459-8.241-6.86-17.169-7.888-26.097-1.029-9.1-.172-17.856 1.2-26.613z" fill="#30303B"/><path d="M565.01 201.739l15.948 13.907 21.607-24.895-15.948-13.907c-.857-.687-2.058-.687-2.744.171l-19.035 21.805c-.686 1.031-.514 2.232.172 2.919z" fill="#24244F"/><path d="M565.524 202.254l15.948 13.907 21.608-24.895-15.949-13.907c-.857-.687-2.057-.687-2.743.171l-19.035 21.805c-.686.859-.686 2.232.171 2.919z" fill="#1E0044"/><path opacity=".14" d="M600.507 190.922l-14.062-12.19c-.514-.515-1.2-.343-1.714.172l-18.178 20.947 33.954-8.929z" fill="#6868B2"/><path d="M585.245 186.458h.515c1.543 0 3.258.516 4.63 1.717h.171a6.593 6.593 0 012.229 4.293v.515c.172 1.717-.514 3.605-1.714 4.979-1.201 1.373-2.916 2.232-4.631 2.404h-.514c-1.543 0-3.258-.515-4.63-1.717h-.172c-1.371-1.202-2.057-2.747-2.229-4.293v-.515c-.171-1.717.515-3.605 1.715-4.979 1.2-1.545 2.744-2.232 4.63-2.404zm-4.116 2.576l2.23 1.889c.857-.859 1.715-1.717 2.572-2.232a2.906 2.906 0 01-.514-1.717c-1.715.171-3.087.858-4.288 2.06zm8.746 3.434c-.686-.344-1.372-.687-1.886-1.202l-1.715 2.06 2.058 1.717c.686-.687 1.2-1.717 1.543-2.575zm-.171-4.121c-.686-.343-1.887-.172-3.087.515.343.515.857 1.202 1.372 1.717l1.715-2.232zm.514.344l-1.886 2.06c.514.515 1.2.858 1.886 1.03.515-1.202.515-2.404 0-3.09zm-4.458 5.15l-1.715 2.061c.514.515 1.029 1.201 1.372 1.717.857-.516 1.714-1.202 2.4-2.061l-2.057-1.717zm-2.058 2.404l-1.887 2.06c.686.344 1.887.172 3.087-.515-.343-.515-.686-1.03-1.2-1.545zm-2.401 1.717l1.886-2.06c-.514-.515-1.2-.859-1.886-1.031-.343 1.374-.515 2.576 0 3.091zm2.229-2.404l1.715-2.06-2.058-1.717c-.686.858-1.372 1.717-1.715 2.747.858 0 1.544.515 2.058 1.03zm2.23-2.575l1.714-2.06c-.514-.516-1.029-1.202-1.372-1.717-.857.515-1.714 1.201-2.4 2.06l2.058 1.717zm.171-6.009c.171.515.343.858.514 1.373.858-.515 1.544-.687 2.23-.687-.858-.515-1.887-.686-2.744-.686zm5.145 2.918c0 .687-.172 1.546-.343 2.404.514.172 1.028.172 1.371.343 0-1.201-.343-2.06-1.028-2.747zm1.2 3.091c-.515 0-1.2-.172-1.715-.344-.343.859-1.029 1.889-1.886 2.919l2.229 1.889c1.029-1.374 1.372-2.919 1.372-4.464zm-1.886 4.807l-2.23-1.888c-.857.858-1.715 1.717-2.572 2.232.343.515.514 1.03.514 1.717 1.715-.172 3.259-.859 4.288-2.061zm-4.63 2.061c-.172-.516-.343-.859-.515-1.374-.857.515-1.543.687-2.229.687.857.515 1.715.687 2.744.687zm-5.317-2.919c0-.687.172-1.545.343-2.404-.514-.172-1.028-.172-1.371-.343.171 1.03.514 2.06 1.028 2.747zm-1.028-3.091c.514 0 1.2.172 1.714.344.343-.859 1.029-1.889 1.887-2.919l-2.23-1.889c-1.028 1.374-1.543 2.919-1.371 4.464zm6.445 12.425a.364.364 0 00-.199-.086.47.47 0 00-.232.029.48.48 0 00-.2.141.488.488 0 00-.107.454.368.368 0 00.113.183l.279.242-.263.303a.133.133 0 00-.035.092.116.116 0 00.044.086.114.114 0 00.089.03.138.138 0 00.087-.049l.802-.926a.122.122 0 00.032-.093.127.127 0 00-.045-.09l-.365-.316zm-.467.538a.12.12 0 01-.037-.077.283.283 0 01.065-.211.273.273 0 01.198-.092c.034 0 .061.008.081.026l.279.242-.307.354-.279-.242zm-1.713-.685a.145.145 0 00-.042.032.121.121 0 00-.032.092.12.12 0 00.108.109.158.158 0 00.077-.018l.251-.122.477.415-.086.267a.135.135 0 00-.006.079.107.107 0 00.036.059.112.112 0 00.083.033.115.115 0 00.074-.043.14.14 0 00.021-.034l.431-1.305a.14.14 0 00.005-.083.112.112 0 00-.045-.064.112.112 0 00-.068-.028.112.112 0 00-.077.014l-1.207.597zm.6-.023l.487-.235-.167.513-.32-.278zm-1.226-.273a.864.864 0 00.23.149.61.61 0 00.252.048c.051 0 .09-.016.117-.047a.116.116 0 00.028-.088.117.117 0 00-.04-.086.117.117 0 00-.071-.028.638.638 0 01-.192-.031.529.529 0 01-.165-.101.379.379 0 01-.119-.174c-.02-.064-.014-.117.021-.156a.166.166 0 01.161-.057c.067.01.152.048.257.114.264.169.475.162.634-.022a.396.396 0 00.099-.221.433.433 0 00-.046-.239.755.755 0 00-.384-.35.613.613 0 00-.218-.049c-.053-.002-.093.013-.12.045a.12.12 0 00-.03.089.116.116 0 00.04.083.096.096 0 00.056.023.538.538 0 01.17.041.49.49 0 01.158.086.363.363 0 01.123.175.15.15 0 01-.03.145.151.151 0 01-.146.055.714.714 0 01-.229-.098 1.216 1.216 0 00-.274-.128.365.365 0 00-.214-.005.406.406 0 00-.19.135.382.382 0 00-.096.228.49.49 0 00.049.248c.04.081.096.153.169.216zm-.956-.829a.897.897 0 00.23.149.617.617 0 00.253.048c.051-.001.09-.016.117-.047a.12.12 0 00.028-.088.113.113 0 00-.041-.086.11.11 0 00-.071-.028.63.63 0 01-.191-.031.511.511 0 01-.165-.102.364.364 0 01-.119-.173c-.021-.065-.014-.117.02-.156a.168.168 0 01.161-.057.694.694 0 01.258.114c.263.169.475.161.634-.023a.382.382 0 00.098-.22.44.44 0 00-.045-.239.663.663 0 00-.169-.217.774.774 0 00-.215-.133.597.597 0 00-.219-.049c-.052-.003-.092.012-.12.044a.124.124 0 00-.029.09.118.118 0 00.04.083.103.103 0 00.056.023.522.522 0 01.169.04.48.48 0 01.158.087.357.357 0 01.124.174.15.15 0 01-.03.145.154.154 0 01-.147.056.748.748 0 01-.229-.098 1.17 1.17 0 00-.273-.128.374.374 0 00-.214-.006.411.411 0 00-.19.136.383.383 0 00-.097.228.488.488 0 00.05.247.672.672 0 00.168.217zm-.072-2.056a.364.364 0 00-.198-.086.472.472 0 00-.233.029.48.48 0 00-.2.141.498.498 0 00-.107.454.368.368 0 00.113.183l.279.242-.262.303a.13.13 0 00-.036.092.116.116 0 00.044.086.114.114 0 00.089.03.138.138 0 00.087-.049l.802-.926a.122.122 0 00.032-.093.127.127 0 00-.045-.09l-.365-.316zm-.466.538c-.021-.017-.033-.043-.038-.077a.283.283 0 01.065-.211.273.273 0 01.198-.092c.034 0 .061.008.081.026l.279.242-.307.354-.278-.242zm-1.553-1.308a.808.808 0 00-.182.353.713.713 0 00.015.378.676.676 0 00.212.318.691.691 0 00.721.126.814.814 0 00.321-.232.794.794 0 00.182-.349.696.696 0 00-.225-.699.684.684 0 00-.345-.165.706.706 0 00-.377.041.8.8 0 00-.322.229zm.208.18a.572.572 0 01.211-.156.46.46 0 01.241-.035c.081.01.153.043.217.099a.404.404 0 01.131.202.458.458 0 01-.001.241.6.6 0 01-.128.232.604.604 0 01-.211.159.467.467 0 01-.239.037.426.426 0 01-.346-.303.466.466 0 01-.001-.243.586.586 0 01.126-.233zm-1.621-.699a.126.126 0 00-.061.006.109.109 0 00-.077.102c0 .033.016.064.049.092a.186.186 0 00.086.044c.115.023.23-.033.347-.168a.155.155 0 01.117-.058c.044-.001.09.019.137.06l.299.26-.269.311a.137.137 0 00-.037.091.097.097 0 00.037.08.17.17 0 00.105.044.12.12 0 00.095-.042l.802-.926a.127.127 0 00.033-.093.132.132 0 00-.046-.09l-.461-.4a.417.417 0 00-.419-.069.458.458 0 00-.198.137.432.432 0 00-.093.195.466.466 0 00.008.217.324.324 0 00-.274.094.779.779 0 01-.123.106.07.07 0 01-.057.007zm.689-.132c-.019-.016-.03-.042-.032-.076a.269.269 0 01.018-.111.371.371 0 01.068-.114.255.255 0 01.088-.067.227.227 0 01.098-.022c.031.001.056.01.076.026l.35.305-.315.364-.351-.305zm-.786-1.643a.128.128 0 00-.093-.035.116.116 0 00-.085.043.116.116 0 00-.032.091c.005.032.021.06.05.085l.251.219-.727.84a.12.12 0 00-.03.096.14.14 0 00.051.093c.03.026.062.038.097.037a.128.128 0 00.09-.046l.728-.84.251.219c.029.025.06.036.093.035a.114.114 0 00.085-.044.114.114 0 00.03-.089.141.141 0 00-.048-.087l-.711-.617z" fill="#F3C042"/><path d="M511.163 153.322l4.459-8.585 13.204 4.292-4.458 8.928c-.515 1.202 0 2.576 1.2 3.091 12.519 6.009 26.923 13.392 38.584 18.886.343 0 7.717 2.575 10.461 2.404.857 0 1.715-.344 2.572-.687.858-.343 2.058-1.03 2.744-1.545.686-.687 1.886-.172 1.715.687-.172.858-2.058 2.747-4.973 3.777-2.915 1.03 1.715 2.747 3.258 3.434 1.715.686 6.688 2.918 6.859 3.605.343 1.03-.685 1.545-2.4.859-1.715-.687-6.688-2.404-7.031-1.546-.343.859 8.231 4.121 8.231 4.121s1.886.343 1.543 1.374c-.514 1.888-9.26-2.232-10.117-2.576-.515-.343-.858.687-.343 1.03.686.344 8.574 3.091 8.06 4.979-.343 1.546-7.203-3.262-9.261-2.918-1.886.343 5.488 3.09 5.145 4.464-.171.515-.343.858-4.459-1.374-2.915-1.545-10.632-7.554-14.233-9.615-6.002-2.918-33.954-13.907-43.386-18.542-8.06-3.949-10.803-12.019-7.374-18.543z" fill="#F4C5B7"/><path d="M621.943 145.596l22.293 56.486h-.171c1.028 2.919 3.429 10.474 3.258 11.847-.343 1.717-2.915 6.868-2.915 6.868s-2.744.343-2.573-2.06c0 0-3.258.686-2.401-2.232 0 0-2.4.858-2.057-2.576 0 0-2.401 1.546-1.887-2.06l-2.058-6.181 2.23-5.666-14.234-23.693c-1.886-3.091-3.429-6.181-4.973-9.444l-7.031-15.795 12.519-5.494z" fill="#F2C3B5"/><path d="M575.127 84.301s-2.057 8.585-8.059 7.726c-5.659-.858-4.973-8.24-4.973-8.24l13.032.514z" fill="#F6C7B9"/><path d="M567.582 55.628c-12.691 0-22.979-8.763-22.979-19.572 0-10.81 10.288-19.573 22.979-19.573 12.691 0 22.979 8.763 22.979 19.573s-10.288 19.572-22.979 19.572z" fill="#473D40"/><path d="M542.888 44.125l-3.773-4.636c-.342-.343.001-.858.343-.858l5.659-.515-2.229 6.009z" fill="#E9A28D"/><path d="M587.989 46.872c-.172 16.998-19.207 21.462-32.239 22.664-6.517.515-11.661-4.293-13.033-10.645-1.372-6.01-.858-16.483-.858-16.483 2.744-13.392 10.975-21.633 22.122-21.977 15.605-.171 24.179 10.645 24.008 26.441z" fill="#F4C5B7"/><path d="M557.807 69.364l4.288 15.452 13.032-.515-2.057-24.895-15.263 9.958z" fill="#F4C5B7"/><path d="M557.807 69.364l1.544 5.322 13.719-15.28-15.263 9.958z" fill="#EAB2A0"/><path d="M596.906 38.974c-9.26-21.976-28.809-19.916-28.981-19.916-6.173.687-10.804 6.18-9.775 12.362 1.029 5.837 4.973 12.705 17.492 14.25l-2.401 19.573c-1.029 7.898 16.806 6.525 23.322-9.958 2.058-5.322 2.572-11.16.343-16.31z" fill="#473D40"/><path d="M582.501 50.134c-.686 2.92-3.086 4.98-5.487 4.464-2.401-.515-3.944-3.262-3.43-6.18.686-2.92 3.087-4.98 5.488-4.465 2.572.344 4.115 3.263 3.429 6.181z" fill="#F4C5B7"/><path opacity=".66" d="M575.47 51.336s1.887-7.21 3.773-4.292c3.087 4.292-1.372 2.404-1.372 2.404s-.686-.344-2.401 1.888z" fill="#C9907E"/><path d="M556.607 46.7c0 1.546-1.886 2.747-3.944 2.576-2.058-.172-3.773-1.374-3.601-3.09 0-1.546 1.886-2.748 3.944-2.576 1.886.172 3.601 1.545 3.601 3.09z" fill="#E9A28D"/><path d="M547.004 36.399s1.2 8.928 9.603 2.747" stroke="#211914" stroke-width=".511" stroke-miterlimit="10"/><path d="M454.23 336.175l25.552 32.621-9.946 7.898-28.982-30.218 13.376-10.301z" fill="#F4C5B7"/><path d="M473.437 384.935s-5.831 16.311-2.573 23.351c0 0 18.349-24.553 21.265-29.36l-19.378-21.461-11.49 12.018 12.176 15.452z" fill="#060606"/><path d="M492.129 379.098l2.229 2.403-21.607 28.673-1.887-1.888 21.265-29.188z" fill="#9D9392"/><path d="M380.32 203.971l6.174 92.714 58.305 62.84 19.892-23.866-40.814-59.92-9.603-55.8-33.954-15.968z" fill="#000"/><path d="M419.59 364.504l-3.258 41.378-12.518.515-1.201-43.438 16.977 1.545z" fill="#F4C5B7"/><path d="M400.212 409.144s-15.433 7.726-18.006 15.109c0 0 30.182-4.979 35.669-6.524l.858-28.845-16.634.859-1.887 19.401z" fill="#060606"/><path d="M417.875 417.9l-.171 3.263L382.378 427l-.172-2.575 35.669-6.525z" fill="#9D9392"/><path d="M380.32 203.971l21.264 27.643-6.002 131.688 28.81 2.404 15.434-161.735H380.32z" fill="#000"/><path d="M351.854 418.93c0 .516.171 1.031.171 1.546 0 3.09-1.2 5.666-2.744 5.666-1.543 0-2.915-2.576-2.915-5.666 0-.515 0-1.03.172-1.546h5.316zm-38.413.172c0 .515.171 1.03.171 1.545 0 3.091-1.2 5.666-2.743 5.666-1.544 0-2.916-2.575-2.916-5.666 0-.515 0-1.03.172-1.545h5.316zm34.843-183.527l3.258-.015.268 59.062-3.258.015-.268-59.062zm-42.356.344l3.258-.015.268 59.062-3.258.015-.268-59.062z" fill="#053142"/><path d="M351.511 227.665v7.898l-3.259.171v-5.151l-39.098.344v4.979h-3.258v-8.07l45.615-.171z" fill="#053142"/><path d="M341.222 295.827s-13.548-7.898-25.895 0h25.895z" stroke="#4C4985" stroke-width=".518" stroke-miterlimit="10"/><path d="M299.379 419.102l60.534-.343c6.86 0 12.519-5.666 12.347-12.534l-.514-99.067c0-6.867-5.659-12.533-12.519-12.361l-60.534.343c-6.859 0-12.518 5.666-12.347 12.534l.515 99.066c0 6.868 5.487 12.362 12.518 12.362z" fill="#688890"/><path d="M355.112 294.797h4.115c6.86 0 12.519 5.494 12.519 12.361v2.576c-4.287-1.03-12.347-4.464-16.634-14.937zm-52.303.171h-4.116c-6.859 0-12.518 5.666-12.347 12.534v2.575c4.287-1.03 12.347-4.464 16.463-15.109zm52.817 123.791h4.116c6.859 0 12.518-5.666 12.347-12.534v-2.575c-4.116 1.03-12.347 4.636-16.463 15.109zm-52.131.343h-4.116c-6.859 0-12.518-5.494-12.518-12.362v-2.575c4.115.858 12.347 4.464 16.634 14.937zm5.144-86.018l40.985-.172c3.086 0 5.487-2.575 5.487-5.665v-7.727c0-3.09-2.572-5.494-5.659-5.494l-40.985.172c-3.087 0-5.487 2.575-5.487 5.666v7.726c0 3.09 2.572 5.494 5.659 5.494z" fill="#4C4985"/><path d="M355.112 318.49c-4.287-.171-8.746-.171-13.033-.343h-13.033l-13.033.172c-4.287 0-8.746.171-13.033.343 4.287.172 8.746.172 13.033.343h13.033l13.033-.171c4.287-.172 8.574-.172 13.033-.344z" fill="#fff"/><path d="M309.497 400.044l39.956-.171a6.15 6.15 0 006.173-6.181l-.171-42.752a6.152 6.152 0 00-6.174-6.181l-39.956.172a6.152 6.152 0 00-6.173 6.181l.171 42.751c0 3.606 2.744 6.353 6.174 6.181z" fill="#4C4985"/><path d="M355.283 351.112c-4.287-.172-8.745-.172-13.033-.344h-13.032l-13.033.172c-4.287 0-8.746.172-13.033.344 4.287.171 8.746.171 13.033.343h13.033l13.032-.172c4.459 0 8.746-.171 13.033-.343z" fill="#fff"/><path d="M323.216 231.27c1.543-2.575 7.03-9.271 9.088-12.533l30.01-76.747 13.548 6.009-18.692 41.378c-1.372 3.091-2.916 6.181-4.802 9.1l-4.973 8.584-4.802 8.413-3.086 5.151c-.515 2.747-.172 8.241-.172 9.787 0 .858.172 1.545.515 2.403.343.859.857 2.061 1.372 2.576.514.687 0 1.717-.686 1.545-.858-.172-2.401-1.889-3.259-4.636-.857-2.747-2.572 1.374-3.258 2.919-.686 1.545-2.915 6.009-3.601 6.181-.857.172-1.372-.687-.686-2.232.686-1.545 2.401-6.009 1.715-6.353-.858-.343-4.116 7.383-4.116 7.383s-.343 1.717-1.372 1.374c-1.714-.515 2.401-8.413 2.744-9.272.343-.515-.514-.858-.857-.343-.343.515-3.087 7.726-4.802 7.211-1.372-.515 3.258-6.524 3.087-8.241-.343-1.717-3.087 4.979-4.287 4.464-.515-.344-.858-.515 1.372-4.121z" fill="#F2C3B5"/><path d="M332.304 218.737c1.372.515 3.602-2.748 4.973-2.232 1.544.858.858 2.403 2.573 3.262-.686 2.232-.343 8.756-.343 10.645 0 .858.171 1.545.514 2.403.343.859.858 2.061 1.372 2.576.514.687 0 1.717-.686 1.545-.857-.172-2.401-1.889-3.258-4.636-.858-2.747-2.572 1.374-3.258 2.919-.686 1.545-2.916 6.009-3.602 6.181-.857.172-1.371-.687-.686-2.232.686-1.545 2.401-6.009 1.715-6.353-.857-.343-4.115 7.383-4.115 7.383s-.343 1.717-1.372 1.374c-1.715-.515 2.401-8.413 2.744-9.272.343-.515-.515-.858-.858-.343-.343.515-3.087 7.726-4.801 7.211-1.372-.515 3.258-6.524 3.086-8.241-.343-1.717-3.086 4.979-4.287 4.464-.514-.172-.857-.344 1.372-3.949 1.372-2.747 6.859-9.443 8.917-12.705z" fill="#F2C3B5"/><path d="M404.157 151.776l33.439 12.877-3.086-16.482 16.119-.687 9.603 35.369c1.887 5.666-4.115 10.817-9.431 7.726l-50.932-28.844c1.715-3.263 3.087-6.696 4.288-9.959z" fill="#F4C5B7"/><path d="M353.911 146.454s9.432-48.76 15.606-62.668c.686-1.717 2.229-2.919 4.115-3.09 6.86-.859 25.723-2.747 46.644-1.889 2.058 0 4.116.858 5.659 2.404 8.575 8.241 20.578 25.239 32.582 76.403l-21.95-4.464 8.403 91.341h-71.166l.343-90.311-20.236-7.726z" fill="#9D9392"/><path d="M437.768 164.653l-4.63-1.717c-4.116-3.433-8.06-7.211-10.975-11.846-4.802-7.04-8.232-15.109-9.947-23.351-1.714-8.241-2.057-16.482-1.543-24.723.686-8.242 1.886-16.14 4.459-24.209h5.144c-1.886 7.383-2.915 16.826-3.258 24.38-.171 7.727.686 15.281 2.572 22.664 1.887 7.383 5.316 14.079 9.603 19.916 1.715 2.576 3.945 4.808 6.345 6.696l2.23 12.19zm-72.539-60.264c1.715-8.413 4.459-15.624 8.06-23.522l5.488-.515c-2.915 7.383-5.831 17.341-7.031 25.411-1.201 8.069-1.715 16.139-.858 23.865.515 4.121 1.372 8.241 2.744 12.019l.858 20.431c-1.544-1.889-2.916-3.949-3.944-6.181-4.288-8.069-6.517-16.826-7.203-25.582-.857-8.928.172-17.513 1.886-25.926z" fill="#000"/><path d="M393.182 220.454L473.437 80.18c6.516-11.331 2.572-25.753-8.746-32.278-11.318-6.524-25.723-2.575-32.239 8.757l-80.255 140.273c-6.517 11.331-2.573 25.754 8.745 32.278 11.318 6.524 25.723 2.575 32.24-8.756z" fill="#383635"/><path d="M379.12 182.509c.686.344 1.715.172 2.058-.515.343-.686.171-1.717-.515-2.06-.686-.343-1.715-.172-2.058.515-.514.687-.343 1.717.515 2.06zm12.69 7.383c.686.344 1.715.172 2.058-.515.342-.687.171-1.717-.515-2.06-.686-.344-1.715-.172-2.058.515-.514.687-.343 1.545.515 2.06zm-20.579 6.181c.686.344 1.715.172 2.058-.515.343-.687.172-1.717-.514-2.06-.686-.344-1.715-.172-2.058.515-.343.687-.171 1.717.514 2.06zm12.69 7.211c.686.344 1.715.172 2.058-.515.343-.687.172-1.717-.514-2.06-.686-.344-1.715-.172-2.058.515-.343.858-.172 1.717.514 2.06zm52.475-119.326c.686.343 1.715.171 2.058-.515.343-.687.171-1.717-.515-2.06-.686-.344-1.715-.172-2.058.514-.343.687-.171 1.717.515 2.06zm12.69 7.211c.686.343 1.715.172 2.058-.515.343-.687.171-1.717-.515-2.06-.686-.344-1.715-.172-2.058.515-.343.858-.171 1.716.515 2.06zm-20.407 6.353c.686.343 1.715.171 2.058-.516.343-.686.171-1.716-.515-2.06-.686-.343-1.714-.172-2.057.515-.343.687-.172 1.545.514 2.06zm12.69 7.211c.686.343 1.715.171 2.058-.516.343-.686.171-1.716-.515-2.06-.686-.343-1.715-.172-2.057.515-.343.687-.172 1.717.514 2.061z" fill="#E0E0E0"/><path d="M382.378 146.282c1.2-1.545 7.545 2.747 8.06 3.091.514.343 1.029-.515.514-.687-.686-.343-8.574-4.464-7.545-6.009.686-.859 1.886.343 1.886.343s7.031 4.464 7.546 3.777c.514-.686-3.602-3.434-4.973-4.292-1.372-.858-1.544-1.889-.686-2.06.686-.172 5.144 2.232 6.516 3.09 1.372.859 5.145 3.262 4.287.515-.857-2.747-.514-5.151 0-5.666.515-.515 1.544 0 1.544.859-.172.687.171 1.888.342 2.747.172.858.515 1.545.858 2.232.857 1.373 3.773 6.009 5.659 7.898l23.322 10.816c3.087 1.374 6.173 2.919 9.089 4.636l14.404 8.413c-2.572 3.606-6.688 7.039-9.088 10.817l-42.7-29.016c-3.601-1.546-11.833-3.778-14.576-4.979-3.945-1.717-3.773-2.061-3.43-2.576.857-1.03 6.859 2.747 6.173 1.202-.857-1.717-8.059-4.121-7.202-5.151z" fill="#F2C3B5"/><path d="M419.933 37.43s8.746-7.384 4.287-14.08c-4.458-6.696-3.429-14.422-11.489-12.362-7.888 2.06-10.804-17.684-20.921-8.584-10.118 9.1-19.893 2.575-17.663 11.847 2.229 9.271-9.261 12.018-3.944 15.624 5.144 3.605 2.572 7.039 7.716 7.21 4.973.172 42.014.344 42.014.344z" fill="#222327"/><path d="M397.812 87.735c4.458 0 7.888-3.606 7.888-7.898l.171-21.462h-15.948l-.171 21.29c.171 4.636 3.601 8.07 8.06 8.07z" fill="#EAB2A0"/><path d="M405.871 69.364V80.18a7.872 7.872 0 01-7.888 7.898c-4.458 0-8.06-3.605-7.888-8.07V68.506c2.572 1.717 5.487 2.92 8.403 2.92 2.572.17 5.144-.688 7.373-2.061zm-37.383-25.926c.686 3.09 3.258 5.151 5.83 4.636 2.572-.515 4.116-3.434 3.43-6.524-.686-3.09-3.258-5.151-5.831-4.636-2.4.515-3.944 3.434-3.429 6.524z" fill="#F4C5B7"/><path opacity=".66" d="M375.862 44.64s-1.887-7.383-3.945-4.464c-3.086 4.464 1.372 2.576 1.372 2.576s.858-.516 2.573 1.888z" fill="#C9907E"/><path d="M428.165 43.438c-.686 3.09-3.259 5.151-5.831 4.636-2.572-.515-4.116-3.434-3.43-6.524.686-3.09 3.259-5.151 5.831-4.636 2.572.515 4.116 3.434 3.43 6.524z" fill="#F4C5B7"/><path opacity=".66" d="M420.962 44.64s1.887-7.383 3.944-4.464c3.087 4.464-1.372 2.576-1.372 2.576s-.857-.516-2.572 1.888z" fill="#C9907E"/><path d="M376.719 40.691c-.172 10.645 9.775 28.158 21.779 28.158s21.264-16.826 21.778-28.158c.686-15.452-9.774-28.157-21.778-28.157s-21.436 12.533-21.779 28.157z" fill="#F4C5B7"/><path d="M396.954 43.095l-5.316-3.262c-.343-.172-.343-.687 0-.859l5.316-2.403v6.524z" fill="#E9A28D"/><path d="M379.977 37.257s4.459 8.242 10.289-.858m23.494.687s-4.287 8.413-10.289-.515" stroke="#211914" stroke-width=".529" stroke-miterlimit="10"/><path d="M420.105 37.43s-5.831-7.384-8.403-17.342c0 0-18.006-5.666-21.95-1.202-3.773 4.636-5.659 5.666-8.574 6.181-2.916.515.171 8.928-4.288 11.847 0 0-4.115-27.3 21.093-25.926 25.037 1.202 26.066 15.796 22.122 26.441z" fill="#222327"/><path d="M86.223 222.857c1.2.344 2.4.687 3.43 1.03l-18.52 75.374-3.602-.687 18.692-75.717z" fill="#688890"/><path d="M52.612 414.123c1.543 3.949-.515 8.413-4.459 9.958-3.944 1.546-8.403-.515-9.946-4.464-1.544-3.949.514-8.413 4.459-9.958 3.944-1.545 8.402.343 9.946 4.464zm-30.353-5.837c1.543 3.948-.515 8.412-4.459 9.958-3.944 1.545-8.403-.515-9.946-4.464-1.543-3.949.515-8.413 4.459-9.958 4.115-1.546 8.574.343 9.946 4.464z" fill="#9D9392"/><path d="M23.63 327.933l8.06 1.889-18.52 80.695-8.574-1.888c-3.087-.687-5.145-3.949-4.459-7.04L16.6 332.226c.686-3.091 3.944-4.98 7.03-4.293z" fill="#467F80"/><path d="M77.306 298.917l-35.498-5.837c-4.973-.859-9.775 2.403-10.975 7.382L6.311 409.316l46.815 10.816 24.18-121.215z" fill="#DBD1BD"/><path d="M195.116 410.346s15.948 8.584 18.349 16.654c0 0-31.553-6.353-37.212-8.241l.171-30.39 17.492 1.374 1.2 20.603zm-63.964-1.374s-15.948 8.757-18.177 16.826c0 0 31.381-6.696 37.212-8.585l-.515-30.389-17.491 1.545-1.029 20.603z" fill="#060606"/><path d="M202.833 192.124l-8.06 201.224h-20.064l-1.886-167.229-10.118 1.031-11.318 165.34-21.264.171 4.116-199.678 68.594-.859z" fill="#9D9392"/><path d="M298.007 178.904l34.983-11.16c1.887-.515 2.744-2.576 2.23-4.292l-3.945-12.534c-.514-1.889-2.572-2.747-4.287-2.232l-34.983 11.16c-1.886.515-2.744 2.575-2.229 4.292l3.944 12.534c.515 1.717 2.572 2.747 4.287 2.232z" fill="#F1F1F1"/><path opacity=".03" d="M307.61 174.097c5.316-.344 10.29-3.091 15.606-3.606.685 0 1.371-.172 1.886-.172l-27.095 8.585c-1.886.515-3.772-.515-4.287-2.232l-2.744-8.756c4.116 3.949 10.461 6.524 16.634 6.181z" fill="#443D40"/><path d="M322.358 150.231l6.002 19.058" stroke="#4C4985" stroke-width="1.008" stroke-miterlimit="10"/><path d="M311.04 164.31l-3.087-1.373-2.057.686 1.543 1.889 3.601-1.202zm2.058 3.434l-3.944 1.202-1.372 3.777s2.058-.343 2.572-.858c.858-.687 2.744-4.121 2.744-4.121z" fill="#D8E8E0"/><path d="M319.443 166.199c-.343 0-9.603 3.605-13.033 3.949-3.43.343-5.488-.859-5.488-.859s-.857 1.545-2.057 1.202l.686-2.06-2.744-3.949c.343-.344.686-.515 1.372-.172 1.2.858 2.401 1.717 3.772 2.747 6.174-2.06 11.661-3.777 16.12-4.636 1.543 0 2.915.172 3.944 1.031.172.171.343.515.343 1.03-.686.858-1.715 1.373-2.915 1.717z" fill="#D8E8E0"/><path d="M320.472 150.918l-2.915 5.838m.343-4.98l-3.087 5.838m.514-4.979l-3.086 5.837m.342-4.979l-3.086 5.838" stroke="#350D60" stroke-width=".252" stroke-miterlimit="10" stroke-linecap="round"/><path d="M327.16 153.837c.171.515.686.687 1.2.515.515-.172.686-.687.515-1.202-.172-.515-.686-.687-1.201-.515-.514.172-.686.687-.514 1.202zm1.029 3.262c.171.515.686.687 1.2.515.514-.172.686-.687.514-1.202-.171-.515-.685-.687-1.2-.515-.514.172-.686.859-.514 1.202zm1.029 3.434c.171.515.686.687 1.2.515.514-.172.686-.687.514-1.202-.171-.515-.686-.687-1.2-.515-.343.172-.686.687-.514 1.202z" fill="#FDEB9D"/><path d="M301.265 171.349l-6.173 2.061m6.345-1.03l-6.002 2.06m6.345-1.03l-6.174 1.888m6.517-.858l-6.174 1.889m6.517-1.031l-6.174 2.061" stroke="#DBD1BD" stroke-width=".252" stroke-miterlimit="10" stroke-linecap="round"/><path d="M293.72 148.686s13.547-1.545 15.434-.687c1.886.859 6.859 4.979 6.859 4.979s-.343 3.091-2.915 2.232c0 0 0 3.606-3.087 2.061 0 0 .343 2.747-3.258 1.716 0 0 1.029 3.091-2.744 1.546l-7.374.686-6.688-4.464 3.773-8.069z" fill="#F2C3B5"/><path d="M293.72 148.686l-35.154 6.009-.515 11.675 31.725-9.958 3.944-7.726z" fill="#F2C3B5"/><path d="M216.38 170.148l64.822-5.151-1.372-15.624-52.475 4.12-24.694-63.183-19.035.344 32.754 79.494z" fill="#fff"/><path d="M88.624 209.294s-9.604 9.443-9.947 10.988c-.171 1.545.686 6.868.686 6.868s2.401 1.373 2.916-.687c0 0 2.743 1.888 2.915-.859 0 0 2.058 1.717 2.744-1.202 0 0 1.886 2.232 2.4-1.03l3.773-4.292.172-5.323 10.289-18.027-6.002-4.121-9.946 17.685z" fill="#F2C3B5"/><path d="M136.468 90.31s-30.524 86.19-46.644 111.257l11.147 6.696 36.869-70.394-1.372-47.559z" fill="#fff"/><path d="M199.746 90.31l-63.278.344-3.087 103.359 69.795-.515-3.43-103.188z" fill="#fff"/><path d="M169.05 77.949c-12.407 0-22.464-11.377-22.464-25.411s10.057-25.41 22.464-25.41c12.407 0 22.465 11.376 22.465 25.41s-10.058 25.41-22.465 25.41z" fill="#000"/><path d="M160.476 92.714v-17.17h15.948v17.17a7.872 7.872 0 01-7.888 7.898c-4.63 0-8.06-3.605-8.06-7.898z" fill="#EAB2A0"/><path d="M160.476 92.714v-6.867c2.572 1.716 5.488 2.918 8.403 2.918 2.572 0 5.144-.858 7.374-2.232v6.181c0 4.464-3.602 7.898-7.889 7.898-4.458 0-7.888-3.605-7.888-7.898zM139.04 60.436c.686 3.09 3.259 5.15 5.831 4.636 2.572-.516 4.115-3.434 3.43-6.525-.686-3.09-3.259-5.15-5.831-4.635-2.572.515-4.116 3.433-3.43 6.524z" fill="#F4C5B7"/><path opacity=".66" d="M146.243 61.81s-1.887-7.383-3.944-4.465c-3.087 4.464 1.371 2.576 1.371 2.576s.858-.515 2.573 1.888z" fill="#C9907E"/><path d="M198.546 60.436c-.686 3.09-3.258 5.15-5.831 4.636-2.572-.516-4.115-3.434-3.429-6.525.685-3.09 3.258-5.15 5.83-4.635 2.572.515 4.116 3.433 3.43 6.524z" fill="#F4C5B7"/><path opacity=".66" d="M191.343 61.81s1.887-7.383 3.944-4.465c3.087 4.464-1.371 2.576-1.371 2.576s-.858-.515-2.573 1.888z" fill="#C9907E"/><path d="M147.1 57.689c-.171 10.645 9.775 28.157 21.779 28.157s21.264-16.826 21.778-28.157c.686-15.453-9.774-28.158-21.778-28.158S147.443 42.065 147.1 57.69z" fill="#F4C5B7"/><path d="M167.335 60.093l-5.316-3.263c-.343-.171-.343-.686 0-.858l5.316-2.404v6.525z" fill="#E9A28D"/><path d="M178.825 54.255c0 .687.343 1.202.857 1.202.343 0 .686-.515.686-1.202 0-.687-.343-1.202-.857-1.202-.343 0-.686.515-.686 1.202zm-22.122 0c0 .687.343 1.202.858 1.202.343 0 .686-.515.686-1.202 0-.687-.343-1.202-.858-1.202-.343 0-.686.515-.686 1.202z" fill="#0C1023" stroke="#0C1023" stroke-width=".231" stroke-miterlimit="10"/><path d="M183.969 40.176s-3.086 12.534 7.374 14.079c0 0 2.573-11.332-1.2-15.28 0 0-2.915-18.715-24.694-16.827 0 0-13.719 1.889-14.576 10.13 0 0-11.661 9.787-3.773 22.149 0 0 7.031-3.95 7.888-13.22.172 0 22.637 0 28.981-1.03z" fill="#03071D"/></g><defs><clipPath id="clip0_2_78"><path fill="#fff" transform="matrix(-1 0 0 1 777 0)" d="M0 0h777v427H0z"/></clipPath></defs></svg>