<svg width="684" height="425" fill="none" xmlns="http://www.w3.org/2000/svg"><g clip-path="url(#clip0_2_467)"><path d="M188.162 375.874l-11.261 14.343s14.946 16.801 10.032 15.162c-4.914-1.639-32.554-23.768-32.554-23.768s13.308-17.826 13.103-18.03c-.204 0 20.68 12.293 20.68 12.293z" fill="#635449"/><path d="M204.541 267.894l-47.296 99.784 30.098 17.007 49.139-89.335-3.071-29.505-28.87 2.049z" fill="#7DADB2"/><path opacity=".36" d="M160.93 369.727s.205-.409.615-1.024c.409-.615.819-1.639 1.433-2.664.614-1.229 1.433-2.663 2.252-4.302.819-1.64 1.843-3.689 3.071-5.738 4.505-8.4 10.852-20.284 17.813-33.193 6.962-12.908 13.309-24.587 17.608-33.193l2.867-5.737c.819-1.639 1.433-3.278 2.047-4.507.615-1.23 1.024-2.254 1.229-2.869a8.668 8.668 0 01.409-1.024s-.204.409-.614 1.024c-.409.615-.819 1.639-1.433 2.664-.614 1.229-1.433 2.663-2.252 4.303-.819 1.639-1.843 3.688-3.072 5.737-4.504 8.4-10.851 20.284-17.813 33.193a3033.415 3033.415 0 00-17.608 33.193l-2.866 5.737c-.819 1.639-1.433 3.278-2.048 4.507-.614 1.23-1.023 2.254-1.228 2.869-.41.615-.41 1.024-.41 1.024z" fill="#154593"/><path opacity=".23" d="M212.322 339.198l-2.252 3.893-8.6-68.64 2.048-4.507 7.985-.205 3.071 32.373-2.252 37.086z" fill="#154593"/><path d="M82.103 299.038L46.887 420.336h-4.095l27.026-121.707 12.285.409zm63.881.615l27.026 118.634h-4.913l-36.036-118.839 13.923.205zm-31.531-2.868l-4.095 121.502h-5.528l-2.457-121.093 12.08-.409z" fill="#AD9380"/><path d="M147.212 347.599l-80.67-2.459-.614 8.401 87.427 3.278-6.143-9.22z" fill="#AD9380"/><path opacity=".15" d="M145.984 299.448l1.228 6.147h-13.308l-1.638-6.147h13.718zm-31.531.205l-.205 5.942h-11.875v-6.966l12.08 1.024zm-1.638 46.512l-.205 8.605h5.119l2.047-8.401-8.189-.204m-9.214.204v8.606l-3.89-.205-1.024-8.605 4.914.204zm-20.27-49.175l-1.228 4.303h-12.08l1.023-4.712 12.285.409z" fill="#00143A"/><path d="M173.829 290.228c-11.465-5.532-57.943-2.664-57.943-2.664s13.104-162.686-3.89-164.121c-16.994-1.229-55.281-13.523-62.243 11.065-7.37 25.817 2.457 164.121 12.285 162.891 22.113-3.073 90.498 4.918 110.972 0 5.324-1.229.819-7.171.819-7.171z" fill="#FCE8CF"/><path opacity=".23" d="M64.495 137.376s-.41.41-1.024 1.23c-.204.409-.614 1.024-1.023 1.639-.41.615-.82 1.434-1.229 2.459-1.638 3.688-3.276 9.425-4.095 16.391-.819 7.172-.819 15.572-.614 24.997.205 9.426.819 19.67 1.638 30.53.819 10.859 1.843 21.104 2.866 30.529 1.024 9.425 1.843 17.826 3.276 24.792 1.229 6.967 2.867 12.499 4.3 16.392 1.433 3.688 2.457 5.737 2.457 5.737.205 0-.614-2.049-1.638-5.942-1.024-3.893-2.457-9.425-3.48-16.391-1.025-6.967-1.844-15.368-2.663-24.793-.819-9.425-1.842-19.67-2.661-30.324a991.447 991.447 0 01-1.843-30.325c-.205-9.425-.41-17.826.205-24.792.614-6.966 1.843-12.499 3.276-16.187 1.433-3.893 2.457-5.737 2.252-5.942z" fill="#2B4C60"/><path d="M236.277 195.976l4.3-2.253s2.661-1.025 7.166-3.689c1.228-.614 2.252-1.639 3.071-2.663 1.024-1.23 2.457-2.869 2.866-4.098.615-1.434 2.457-1.434 2.867-.205.205 1.229-1.229 5.122-4.709 8.606-3.481 3.483 3.89 2.458 6.756 2.049 2.662-.41 11.261-1.025 11.876-.205 1.023 1.024 0 2.458-2.867 2.868-2.662.205-10.851 1.639-10.851 3.074.204 1.434 13.922-.41 13.922-.41s2.867-.82 3.072.819c.409 2.869-14.537 3.893-15.971 3.893-1.023 0-.819 1.64.205 1.435 1.024 0 13.923-2.254 14.128.819.204 2.254-12.08.82-14.742 2.664-2.457 1.844 9.623.205 9.828 2.254 0 .819 0 1.434-6.962 1.434-7.166 0-26.412-3.073-26.412-3.073l2.866-13.728" fill="#F6BA99"/><path d="M141.275 137.991s36.24 48.765 44.635 51.019c8.394 2.254 55.895 5.122 55.895 5.122l4.3 20.695s-61.015 3.278-74.323-6.762c-21.089-15.572-43.201-51.428-43.201-51.428-.615-11.884 3.89-17.826 12.694-18.646z" fill="#EF6C74"/><path d="M239.962 393.7l-2.252 18.031s21.499 6.761 16.38 7.991c-5.119 1.229-40.13-3.893-40.13-3.893s2.457-22.129 2.047-22.129h23.955z" fill="#635449"/><path d="M92.75 229.374s-20.27 43.233 19.656 58.191l21.293-46.307-40.949-11.884z" fill="#A0D2DB"/><path d="M120.391 240.848s115.272-31.553 128.171-5.122c12.899 26.636-2.457 164.941-2.457 164.941l-36.036-3.893s5.938-121.503 0-125.806c-5.937-4.303-89.064 16.801-97.663 16.392-21.294-.82-36.24-40.365 7.985-46.512z" fill="#A0D2DB"/><path d="M118.138 125.083c15.152.409 27.436 12.293 28.051 27.456.614 12.498-.615 29.914 2.866 45.076 1.843 7.786 11.875 39.34 11.875 39.34l-10.237 1.639c-15.765 2.664-31.94 1.845-47.501-2.253l-11.67-3.074s-6.757-35.037-10.443-67.82c-3.07-27.456 2.048-38.111 18.632-40.364h18.427z" fill="#EF6C74"/><path d="M125.919 126.927c-.41-2.664.409-13.933.409-13.933s10.238-1.23 10.647-11.474c.41-10.245-.614-33.603-.614-33.603l-18.837-8.81-20.065 15.981-1.843 11.27 4.71 13.318 2.047 25.407 23.546 1.844z" fill="#F6BA99"/><path d="M117.729 84.103c.409.41.614 1.025.205 1.435-.41.41-1.024.615-1.434.205-.409-.41-.614-1.025-.204-1.435.205-.41.819-.614 1.433-.205zm1.843-.409c-.205.205-1.229-.615-2.457-.615-1.433 0-2.457.615-2.662.41 0 0 0-.41.614-.82.41-.41 1.229-.614 2.048-.614s1.638.41 2.047.82c.41.41.41.614.41.819zm14.946.409c.41.41.614 1.025.205 1.435-.41.41-1.024.615-1.433.205-.41-.41-.615-1.025-.205-1.435.205-.41.819-.614 1.433-.205zm1.843-.409c-.205.205-1.229-.615-2.457-.615-1.433 0-2.457.615-2.662.41 0 0 0-.41.614-.82.41-.41 1.229-.614 2.048-.614s1.638.41 2.047.82c.41.41.615.614.41.819zm-10.852 12.089h2.867c.205 0 .409-.205.614-.41.205-.615 0-1.025-.205-1.434-.204-.82-.614-1.844-1.023-2.869-.615-2.049-1.434-3.893-1.843-5.122-.41-1.23-.819-2.05-.819-2.05s.205.82.614 2.255a56.595 56.595 0 001.843 5.327c.409 1.024.614 2.049 1.024 2.868.204.41.409.82.204 1.23 0 .205-.409.41-.819.41-1.433-.41-2.457-.205-2.457-.205z" fill="#00143A"/><path opacity=".52" d="M119.162 92.504c0 1.23-1.842 2.05-3.89 2.05-2.252 0-3.89-.615-4.095-1.845 0-1.23 1.638-2.254 3.89-2.459 2.253 0 4.095 1.025 4.095 2.254z" fill="#F2957E"/><path d="M121.005 97.217c-1.433-.82 3.89 2.254 6.757 2.254 0 0-1.638 2.663-4.505 1.434-3.071-1.23-2.252-3.688-2.252-3.688z" fill="#F3F0EB"/><path d="M126.328 112.994s-6.756.205-13.513-4.303c0 0 3.276 7.376 13.309 6.762l.204-2.459z" fill="#F2957E"/><path d="M148.646 230.604l4.709-.205s2.866.205 7.985-.41c1.433-.205 2.662-.615 3.89-1.025 1.433-.614 3.481-1.639 4.3-2.458 1.024-1.025 2.866-.41 2.661 1.024-.204 1.23-3.275 4.098-7.985 5.942-4.709 1.639 2.457 3.893 5.119 4.713 2.662.819 10.647 3.893 10.852 4.712.409 1.435-1.229 2.254-3.686 1.23-2.662-.82-10.647-3.074-11.056-1.844-.41 1.229 12.899 5.532 12.899 5.532s3.071.41 2.457 2.049c-1.024 2.868-14.742-2.664-15.97-3.074-.819-.41-1.434 1.025-.41 1.435 1.024.409 13.513 3.893 12.49 6.761-.615 2.254-11.466-4.303-14.537-3.688-3.072.615 8.804 4.098 7.985 6.147-.205.819-.614 1.229-6.962-1.639-6.551-3.074-22.726-13.933-22.726-13.933l8.189-11.269" fill="#F6BA99"/><path opacity=".35" d="M102.373 252.937c0 .205 1.638-.819 4.504-2.254 2.662-1.434 6.552-3.278 10.852-4.917 4.3-1.639 8.395-2.664 11.466-3.483 3.071-.615 4.914-1.025 4.914-1.23 0-.205-1.843 0-4.914.41-3.071.615-7.166 1.434-11.671 3.073-4.504 1.64-8.19 3.689-10.851 5.123-2.867 2.049-4.505 3.073-4.3 3.278z" fill="#154593"/><path opacity=".35" d="M97.05 246.381c0 .204 3.48-.615 7.575-.41 4.3.205 7.576 1.229 7.576.819.205-.205-3.276-1.844-7.576-1.844-4.299 0-7.575 1.23-7.575 1.435z" fill="#154593"/><path opacity=".36" d="M134.109 239.824s-22.727-6.557-37.06-19.875c-11.465-10.654-11.26-20.694-11.26-20.694l-5.324-41.594 53.644 82.163z" fill="#2B4C60"/><path opacity=".36" d="M98.278 281.623s.205-.001.614-.205c.41 0 1.024-.205 1.843-.41 1.638-.41 4.095-1.025 7.371-1.639 6.347-1.435 15.561-3.688 27.026-6.147 11.466-2.459 24.979-5.327 40.131-7.991 7.575-1.434 15.56-2.869 23.955-4.098 2.047-.41 4.095-.615 6.347-1.024 2.048-.41 4.3-.615 6.347-.41 2.048.205 4.095 1.024 5.528 2.663 1.434 1.435 2.253 3.484 2.867 5.533.614 2.048 1.024 4.302 1.228 6.351.205 2.254.615 4.303.819 6.557.205 2.254.41 4.303.615 6.352.204 2.049.409 4.302.409 6.351.614 8.401.819 16.392.819 24.178 0 15.367-.819 29.3-1.638 40.979a1191.759 1191.759 0 01-2.252 27.661c-.205 3.278-.41 5.737-.614 7.581 0 .82-.205 1.434-.205 2.049v.615s0-.205.205-.615c0-.41.204-1.025.204-1.844.205-1.639.41-4.303.819-7.581.615-6.557 1.638-15.982 2.457-27.661.819-11.679 1.638-25.612 1.843-40.979 0-7.786-.205-15.777-.819-24.178-.205-2.049-.205-4.302-.409-6.351-.205-2.049-.41-4.303-.615-6.352-.204-2.254-.614-4.303-.819-6.557-.204-2.254-.614-4.508-1.228-6.556-.614-2.254-1.638-4.303-3.071-5.942-.819-.82-1.843-1.64-2.867-2.049-1.024-.41-2.252-.82-3.276-.82-2.252-.205-4.504 0-6.552.41-2.047.41-4.299.615-6.347 1.024-8.394 1.435-16.379 2.869-23.955 4.098a1476.979 1476.979 0 00-40.13 8.196c-11.466 2.664-20.68 4.917-26.822 6.557-3.071.819-5.528 1.434-7.371 1.844-.819.205-1.433.41-1.843.614-.41-.409-.614-.204-.614-.204z" fill="#154593"/><path opacity=".36" d="M209.865 270.763c.205.205 2.047-1.229 4.095-3.073.204-.205.409-.41.819-.615l-.615-.615c-1.433 1.639-2.456 3.074-2.456 3.278.204.205 1.433-1.024 3.071-2.663l-.615-.615c-.204.205-.409.41-.819.615-2.252 1.844-3.685 3.483-3.48 3.688zm-.614 0c.204 0 .819-1.844 1.433-4.303.614-2.459.614-4.507.409-4.507-.205 0-.819 1.844-1.433 4.302-.614 2.459-.819 4.508-.409 4.508z" fill="#154593"/><path d="M102.578 128.156s4.299 60.649 10.237 67.001c5.938 6.351 44.43 34.422 44.43 34.422l-7.576 19.67s-53.029-30.12-58.967-45.692c-7.166-18.85-8.599-48.15-8.804-60.649 0-5.327 2.048-10.449 6.143-13.728 4.504-3.483 9.418-3.688 14.537-1.024z" fill="#EF6C74"/><path opacity=".23" d="M73.094 291.867c.205.615 10.647-1.024 23.751-2.049 13.104-1.024 23.75-1.229 23.75-1.844s-10.646-1.639-23.955-.41c-13.104 1.025-23.546 3.688-23.546 4.303zm4.096-106.75c.204 0 .409 0 .614-.615.204-.614-.205-1.639-1.024-2.254-.41-.409-1.024-.614-1.843-.614-.41 0-.819.205-1.024.41-.41.204-.614.409-.819.819-1.023 1.23-1.228 2.869-.819 4.508.615 1.639 1.843 2.868 3.481 3.073h1.228c.41 0 .82-.205 1.024-.41.615-.409 1.024-.819 1.229-1.434.41-1.024.41-2.049 0-2.459-.41-.614-.82-.614-.82-.409-.204.205 0 .409 0 .819s-.204.82-.614 1.23c-.204.205-.409.409-.614.409h-.819c-.614-.204-1.433-.819-1.638-1.844-.204-.819-.204-1.844.205-2.458.41-.615.819-.615 1.433-.615.614.205.82.615 1.024.82-.41.614-.41 1.024-.205 1.024z" fill="#2B4C60"/><path d="M104.83 147.416c-.205 0-.205 1.435-.205 3.893 0 2.459 0 6.147.41 10.655.409 4.507.819 9.835 2.252 15.777 1.433 5.942 3.685 12.293 7.371 18.235 3.89 5.942 8.804 10.45 13.513 14.138 4.709 3.688 9.214 6.762 12.899 9.22 7.371 5.123 11.671 8.606 11.875 8.401 0 0-.819-1.229-2.661-2.868a106.005 106.005 0 00-8.395-6.762c-3.685-2.664-7.985-5.737-12.49-9.63-4.504-3.688-9.213-8.196-12.899-13.933-3.685-5.737-5.937-11.679-7.37-17.416-1.434-5.737-2.253-11.064-2.662-15.367-1.024-8.811-1.433-14.343-1.638-14.343zm12.285-19.055l-.819-9.015-14.742-2.664-4.504 9.63 20.065 2.049zm9.213-10.04l-5.733 1.025v9.015l7.371-1.434-1.842-10.245" fill="#AF4A54"/><path d="M140.456 218.515s0-.41-.205-1.025c-.205-.819-.409-1.639-.819-2.663-.819-2.459-1.843-5.737-3.071-9.63-2.457-8.196-5.938-19.67-9.009-32.374a503.082 503.082 0 01-6.757-32.783c-.614-4.098-1.228-7.581-1.638-10.04-.204-1.024-.409-2.049-.409-2.664-.205-.614-.205-1.024-.205-1.024v1.024c0 .82.205 1.64.205 2.664a89.739 89.739 0 001.433 10.04c1.229 8.606 3.481 20.285 6.347 32.988 3.072 12.704 6.552 24.178 9.214 32.374 1.433 4.097 2.457 7.376 3.481 9.63.409 1.024.819 1.844 1.023 2.663.41.615.41.82.41.82zm6.961-29.71c.205 0-1.024-6.352-2.047-13.933-1.024-7.786-1.024-14.138-1.434-14.138-.204 0-.204 1.64-.204 4.098 0 2.664.204 6.147.614 10.04.409 3.893 1.228 7.376 1.843 9.835.614 2.459 1.228 4.098 1.228 4.098zm98.688 26.022l-4.3-20.695-7.985-.614 4.505 21.719 7.78-.41zm-96.436 34.422l8.395-21.514-7.78-2.869-6.962 20.695 6.347 3.688z" fill="#AF4A54"/><path d="M0 224.457h371v12.089H0v-12.089zm341.926 12.089L371 419.107l-14.537.41-49.753-182.971h35.216z" fill="#AD9380"/><path d="M27.026 234.497L10.034 423H23.75l36.444-180.512 1.843-13.524-35.011 5.533z" fill="#AD9380"/><path opacity=".15" d="M61.014 236.546l-1.433 8.4-33.374-1.229.615-7.171h34.192zm280.912 0l1.433 8.605-34.602-1.024-2.047-7.581h35.216z" fill="#00143A"/><path opacity=".23" d="M315.104 155.817L175.467 101.52l-72.889 2.663 1.228 51.634 84.97 63.927 47.706-2.049 78.622-61.878z" fill="url(#paint0_linear_2_467)"/><path d="M315.514 156.841l-23.137 67.616H187.752l.614-3.484 42.383-1.229 19.451-62.903h65.314z" fill="#B4CCE9"/><path d="M269.036 189.625c-.614 2.868.41 5.532 2.662 6.146 2.252.615 4.505-1.229 5.119-3.893.614-2.868-.41-5.532-2.662-6.147-2.047-.614-4.504 1.025-5.119 3.894z" fill="#F3F0EB"/><path d="M67.361 203.557c3.072-10.654 4.505-25.407 5.324-36.266.204-2.254.205-4.303-.41-6.352-.819-2.049-2.661-3.688-4.709-3.688-1.843 0-3.48 1.229-4.3 2.869-1.023 1.639-1.228 3.483-1.637 5.122-2.048 10.245-3.89 20.285-5.938 30.529-1.843-3.688-4.505-6.966-7.371-9.63-1.433-1.229-3.276-2.458-4.914-1.639-1.433.82-1.638 2.869-1.638 4.508.205 4.917.82 10.04 1.843 14.752" fill="#5ECC95"/><path d="M71.661 202.533s5.323 20.694-15.97 21.719c-19.451.819-14.742-21.719-14.742-21.719h30.712z" fill="#154593"/><path d="M112.815 77.547s-.205 0-.409.205c-.205.205-.819.41-1.229.82-1.024.82-2.252 2.458-2.662 4.712-.204 1.23-.204 2.459.205 3.688.41 1.23 1.229 2.664 2.252 3.688.615.615 1.229 1.025 2.048 1.23.819.41 1.433.614 2.457.614 1.638.205 3.48 0 5.118-.82a7.558 7.558 0 003.481-3.687c.41-.82.614-1.64.614-2.459.205-.82.205-1.64 0-2.459-.204-1.639-.819-2.868-1.842-3.893-.819-1.024-2.048-1.844-3.072-2.254-2.252-1.024-4.094-.82-5.323-.41a9.961 9.961 0 00-1.433.615c0 .41-.205.41-.205.41s.614-.41 1.843-.615c1.228-.204 3.071-.41 5.118.615 1.024.41 2.048 1.23 2.867 2.254s1.433 2.254 1.638 3.688c.205.82.205 1.434 0 2.254 0 .82-.41 1.434-.614 2.254-.615 1.434-1.843 2.663-3.276 3.483-1.433.82-3.276 1.024-4.709.82-.819 0-1.638-.41-2.253-.615-.614-.41-1.433-.82-1.842-1.23-1.024-1.024-1.843-2.253-2.253-3.483-.409-1.23-.409-2.459-.409-3.688.409-2.254 1.433-3.688 2.457-4.712.819-.615 1.433-1.025 1.433-1.025zm22.727-1.639h-.614c-.41 0-.819 0-1.434.205-1.228.41-3.071 1.23-4.504 3.073-.614 1.025-1.228 2.05-1.433 3.483-.205 1.435-.205 2.869.409 4.303.205.82.614 1.434 1.229 2.05a4.829 4.829 0 001.842 1.638c1.434 1.025 3.072 1.434 4.914 1.434 1.843 0 3.481-.614 4.914-1.843.615-.615 1.229-1.23 1.638-1.845.41-.614.819-1.434 1.024-2.049.409-1.434.409-3.073.205-4.302-.205-1.435-1.024-2.459-1.638-3.279-1.434-1.844-3.276-2.458-4.709-2.663-.615-.205-1.229-.205-1.434-.205h-.409s.614 0 1.843.205c1.228.205 3.071 1.024 4.299 2.868.615.82 1.229 2.05 1.638 3.279.205 1.229.205 2.663-.205 4.097-.204.615-.614 1.435-1.023 2.05a6.245 6.245 0 01-1.638 1.639 7.154 7.154 0 01-4.505 1.639c-1.638 0-3.276-.41-4.709-1.434a6.245 6.245 0 01-1.638-1.64l-1.228-1.844c-.614-1.434-.615-2.868-.41-4.098.205-1.229.614-2.458 1.229-3.278 1.228-1.844 3.071-2.664 4.095-3.073 1.433-.41 2.252-.41 2.252-.41z" fill="#00143A"/><path d="M127.966 84.923c0-.205-.819-.205-1.638-.205-1.023 0-1.638.205-1.638.205 0 .205.819.205 1.638.205s1.638-.205 1.638-.205zm-18.836.615c0-.205-1.843-.205-4.095 0-2.252 0-4.095.205-4.095.41s1.843.205 4.095 0c2.047-.205 4.095-.205 4.095-.41z" fill="#00143A"/><path d="M100.735 101.52c-5.528-5.942-5.938-14.548-5.938-22.539 0-3.893.205-7.99 2.048-11.269 1.843-3.278 5.323-5.327 8.804-6.966 5.323-2.254 11.261-3.484 16.994-2.254 5.733 1.024 11.056 4.508 13.923 9.425 0 0-26.413-.615-28.051.41-1.842 1.024-7.166 4.917-6.756 9.63.409 4.712 1.843 11.679 1.843 11.679l-4.3-.615s.41-6.352-1.433-6.147c-1.843.205 2.866 18.646 2.866 18.646z" fill="#00143A"/><path d="M99.507 90.66c-.205.82-1.024 1.23-1.843 1.23-.82 0-1.433-.41-2.048-.82-1.228-1.024-2.252-2.459-2.457-4.098-.204-1.639.41-3.278 1.843-4.098 1.433-.82 3.48-.41 4.3 1.025l.205 6.761z" fill="#F6BA99"/><path d="M364.653 226.096v-14.548l-7.371-1.639 7.371-4.508v-13.728H286.44v8.196h-4.505c.819.82-1.433 1.844-.409 2.254 1.638.615 5.323 1.434 5.323 1.434l-1.023 5.737 4.299 1.025-5.937 4.098-1.024 10.859 81.079 1.639" fill="#FCE8CF"/></g><g clip-path="url(#clip1_2_467)"><path d="M635.767 25.366c2.211 7.175 4.422 14.544 6.632 21.72.402.97.603 1.94.603 3.103 0 3.103-3.014 5.43-6.23 6.011-3.215.582-6.23-.193-9.445-1.163-.804 3.103-4.622 4.46-7.838 5.042-14.671 2.715-29.944.776-43.409-5.236 5.828-7.951 10.45-16.678 14.068-25.793 11.455.582 22.91.97 34.365 1.552 2.01 0 4.02.194 6.029-.582 1.809-.582 3.618-2.327 3.819-4.266" fill="#F17F60"/><path d="M502.927 120.779l-3.416-3.685s-2.412-1.939-5.828-6.205c-.804-1.164-1.608-2.327-2.01-3.685-.603-1.551-1.206-3.685-1.206-5.042 0-1.552-2.009-2.327-2.813-1.358-1.005 1.164-1.206 5.624 1.005 10.279 2.009 4.654-5.427.969-8.039-.388-2.814-1.358-11.455-5.042-12.46-4.461-1.608.776-1.005 2.521 1.608 3.685 2.813 1.357 10.852 5.624 10.048 6.981-.804 1.358-14.671-5.623-14.671-5.623s-2.612-1.94-3.617-.388c-1.809 2.715 13.465 9.114 14.872 9.696 1.004.388.2 1.939-.804 1.358-1.005-.582-13.666-7.176-15.475-4.461-1.407 2.133 12.46 5.236 14.269 8.145 1.809 2.715-10.25-3.491-11.455-1.357-.402.775-.603 1.357 6.833 4.072 7.636 2.715 29.542 6.594 29.542 6.594l3.617-14.545" fill="#F2957E"/><path d="M564.826 86.647s-12.46 34.714-16.279 35.102c-26.327 2.327-54.864-8.727-54.864-8.727l-7.235 19.587s74.559 32.192 90.637 1.163c17.082-32.968 16.278-38.01 16.278-38.01l-28.537-9.115z" fill="#F2957E"/><path d="M566.433 283.485c13.264 59.148 101.289 114.224 101.289 114.224l14.871-17.648s-70.54-60.699-73.554-87.849c-3.015-26.956 20.499-69.427 20.499-69.427l-24.318-9.89-38.787 70.59z" fill="#1F3642"/><path d="M596.177 67.836c.402-2.52-.603-12.605-.603-12.605s-9.647-.97-10.25-10.278c-.603-9.309 0-30.641 0-30.641l17.686-8.339 19.293 14.157-3.015 46.155-23.111 1.551z" fill="#F6BA99"/><path d="M620.896 27.499s-15.877-1.358-18.69-15.32l-17.083 15.32s-5.225-10.278 4.221-19.78c9.445-9.503 16.077-7.564 19.695-7.564 3.416 0 21.101 3.685 26.327 22.884.401 1.357.602 4.848 1.004 6.4l-15.474-1.94z" fill="#F17F60"/><path d="M587.334 30.02c0 .582.603 1.164 1.206 1.164s1.206-.582 1.206-1.164c0-.581-.603-1.163-1.206-1.163s-1.206.388-1.206 1.163zm-1.206-1.357c.201.194 1.005-.582 2.412-.582s2.412.582 2.412.388c0 0 0-.388-.603-.582-.402-.194-1.206-.582-2.01-.582-.804 0-1.407.388-1.809.776-.201.194-.402.582-.402.582zm15.475 1.357c0 .582.603 1.164 1.206 1.164s1.205-.582 1.205-1.164c0-.581-.602-1.163-1.205-1.163-.603 0-1.206.388-1.206 1.163zm-.804-1.357c.201.194 1.005-.582 2.412-.582 1.406 0 2.411.582 2.411.388 0 0 0-.388-.603-.582-.402-.194-1.205-.582-2.009-.582-.804 0-1.407.388-1.809.776-.402.194-.402.582-.402.582zm-4.823 10.86s-.804-.194-2.211-.194c-.402 0-.603 0-.804-.388 0-.194 0-.582.201-.97.201-.775.603-1.745 1.005-2.715.603-1.94 1.206-3.684 1.608-4.848.402-1.164.603-1.94.402-2.133 0 0-.402.776-.804 1.94a160.49 160.49 0 00-1.608 4.847c-.402.97-.603 1.746-.804 2.715-.201.388-.402.776-.201 1.358 0 .194.402.388.603.388h2.613z" fill="#00143A"/><path opacity=".33" d="M602.407 40.105c0 .97 1.808 1.745 3.818 1.939 2.01 0 3.819-.582 3.819-1.745 0-.97-1.608-2.134-3.819-2.134s-3.818.776-3.818 1.94z" fill="#F2957E"/><path d="M600.397 40.686c1.407-.775-3.617 2.133-6.431 2.133 0 0 1.608 2.328 4.421 1.164 2.814-1.163 2.01-3.297 2.01-3.297z" fill="#F3F0EB"/><path d="M595.775 55.231s6.431 0 12.661-4.073c0 0-2.814 6.788-12.46 6.4l-.201-2.327z" fill="#F2957E"/><path d="M575.879 172.17c0 3.297 1.206 7.951 1.206 7.951l67.927 18.811s4.823-29.671-7.637-46.155c-5.627-7.563-4.421-18.229-2.009-27.344l8.038-31.029-10.651-29.283-42.806 2.715s-24.719-2.327-33.562 29.283l15.876 23.078.201 8.727 3.417 43.246z" fill="#FCD588"/><path d="M641.998 160.534c.803 0 13.062 26.762 1.808 42.47-1.005 1.358-3.617 5.043-7.034 10.279-16.479 24.435-54.06 81.644-55.266 90.176-1.407 10.085-31.954 117.133-31.954 117.133l-22.709-3.49 18.489-121.206 30.145-123.532 66.521-11.83z" fill="#2A4759"/><path d="M602.809 11.015s-3.417 6.594-2.01 11.442l-15.274 3.878s-3.617-18.81 17.284-15.32zm33.561 16.872s2.01 21.332-16.68 25.21l1.206-25.598 15.474.388z" fill="#F17F60"/><path opacity=".34" d="M595.373 120.003l-55.869-71.366L435 94.211l42.203 38.785 47.831 7.564 70.339-20.557z" fill="url(#paint1_linear_2_467)"/><path d="M566.031 127.178l-38.184 15.515-62.501 1.357L435 94.21l64.31-4.072 27.734 48.094 38.786-14.544.201 3.49z" fill="#B4CCE9"/><path d="M559.199 90.526l-10.853 25.211 24.116 11.635 2.211-22.107-15.474-14.739z" fill="#FCD588"/><path d="M625.518 65.51l-4.019-4.655-17.485 4.266 2.211 5.042 19.293-4.654z" fill="#EDB758"/><path d="M606.225 70.163l-7.034 12.8-.201-12.8.804-4.072h4.622l1.809 4.073z" fill="#F6BA99"/><path d="M598.99 70.163l1.005-5.042-4.22-1.745-5.024 4.46 8.239 2.328zm-26.729 57.597s.402-.581.402-1.745c0-1.164-.803-2.715-2.009-4.266-1.206-1.552-3.216-3.103-3.618-5.43-.201-1.164-.201-2.522.201-3.685.402-1.164 1.407-2.327 2.412-3.103 1.005-.776 2.411-1.164 3.617-1.357h.402v-.388c.804-4.849 1.608-9.115 1.809-12.218.402-3.103 0-5.042 0-5.042-.201 0-.201 1.94-.603 4.848-.402 3.103-1.407 7.37-2.211 12.218l.402-.388c-1.407 0-2.813.582-4.22 1.357-1.407.97-2.412 2.134-2.814 3.685-.603 1.358-.602 2.909-.201 4.266.201 1.358 1.005 2.522 1.809 3.491.804.97 1.608 1.552 2.211 2.327 1.407 1.358 2.009 2.715 2.21 3.879.402.97.201 1.551.201 1.551z" fill="#EDB758"/><path d="M572.462 94.405c-.201.194.402 1.357 1.005 2.715.603 1.357 1.005 2.715 1.407 2.715.201 0 .402-1.552-.402-3.103-.804-1.552-1.809-2.521-2.01-2.327zm-24.719 21.526c-.201.193 5.225 3.102 12.259 6.205 7.034 3.103 12.862 5.042 12.862 4.848.201-.193-5.627-2.715-12.46-5.817-7.034-2.909-12.661-5.43-12.661-5.236zm1.407-3.685c-.201.194 4.823 3.103 10.852 6.206 6.23 3.102 11.255 5.624 11.455 5.236.201-.194-4.823-3.103-11.053-6.206-6.029-3.103-11.053-5.43-11.254-5.236zm32.155-17.066c0 .194 1.407.582 3.216.776 1.808.194 3.416 0 3.416-.388 0-.194-1.407-.582-3.215-.776-1.809 0-3.417.194-3.417.388zm-.603 1.164c0 .194 1.608.97 3.618 1.357 2.21.582 3.818.776 4.019.388 0-.194-1.608-.97-3.617-1.357-2.211-.582-4.02-.776-4.02-.388z" fill="#EDB758"/><path d="M525.034 417.102s-19.896 5.042-14.872 6.593c5.024 1.358 39.39-2.133 39.39-2.133l1.206-3.878-25.724-.582z" fill="#635449"/><path d="M549.552 421.368l6.833-18.229h-30.346l-1.005 13.962 24.518 4.267zm118.37-22.496s-5.024 19.199-1.205 15.709C670.535 411.09 684 380.255 684 380.255l-2.814-2.715-13.264 21.332z" fill="#635449"/><path d="M683.799 380.449l-13.063-14.738-14.872 25.598 12.058 7.563 15.877-18.423z" fill="#635449"/><path d="M601.402 5.003c0-.193-1.809-.193-4.823.582-2.814.776-6.632 2.521-9.848 5.818-3.215 3.297-4.622 6.982-5.225 9.89-.603 2.91-.402 4.655-.201 4.655s.201-1.746 1.005-4.46c.804-2.716 2.411-6.206 5.225-9.31 3.015-3.102 6.632-4.847 9.245-5.817 2.813-.97 4.622-1.164 4.622-1.358z" fill="#F17F60"/><path d="M623.508 39.135c0-1.551 0-3.103.603-4.654.603-1.358 1.809-2.715 3.417-2.91 1.809-.193 3.617 1.358 3.818 3.104.201 1.745-.804 3.49-2.411 4.46-1.608.776-3.618.776-5.427 0z" fill="#F6BA99"/><path d="M596.981 29.438s0-.581.402-1.745c.401-1.164 1.004-2.715 2.813-3.879.804-.581 1.809-1.163 3.015-1.357 1.205-.194 2.612-.194 3.818.388 1.206.388 2.412 1.357 3.416 2.52.804 1.164 1.407 2.522 1.407 4.073 0 1.552-.603 2.91-1.407 4.073-.803 1.163-2.009 1.94-3.416 2.52-1.206.389-2.613.583-3.818.389-1.206-.194-2.211-.776-3.015-1.358-1.608-1.163-2.412-2.715-2.813-3.878-.402-1.164-.402-1.746-.402-1.746v.388c0 .388-.001.776.2 1.358.201 1.163 1.005 2.715 2.814 4.072.804.582 2.01 1.164 3.216 1.358 1.205.194 2.612.194 4.019-.388 1.407-.388 2.613-1.358 3.617-2.521 1.005-1.164 1.407-2.715 1.608-4.46 0-1.552-.603-3.297-1.608-4.46-1.004-1.165-2.21-2.134-3.617-2.522-1.407-.582-2.814-.582-4.019-.388-1.206.194-2.412.776-3.216 1.358-1.809 1.357-2.412 2.909-2.814 4.072-.201.582-.2.97-.2 1.358-.201.581-.201.775 0 .775zm-17.485 0s0-.581.402-1.745c.402-1.164 1.005-2.715 2.814-3.879.804-.581 1.809-1.163 3.014-1.357 1.206-.194 2.613-.194 3.819.388 1.206.388 2.411 1.357 3.416 2.52.804 1.164 1.407 2.522 1.407 4.073 0 1.552-.603 2.91-1.407 4.073-.804 1.163-2.01 1.94-3.416 2.52-1.206.389-2.613.583-3.819.389-1.205-.194-2.21-.776-3.014-1.358-1.608-1.163-2.412-2.715-2.814-3.878-.201-1.164-.201-1.746-.402-1.746v.388c0 .388 0 .776.201 1.358.201 1.163 1.005 2.715 2.814 4.072.804.582 2.01 1.164 3.215 1.358 1.206.194 2.613.194 4.02-.388 1.407-.388 2.612-1.358 3.617-2.521 1.005-1.164 1.407-2.715 1.608-4.46 0-1.552-.603-3.297-1.608-4.46-1.005-1.165-2.21-2.134-3.617-2.522-1.407-.582-2.814-.582-4.02-.388-1.205.194-2.411.776-3.215 1.358-1.809 1.357-2.412 2.909-2.814 4.072-.201.582-.201.97-.201 1.358v.775z" fill="#00143A"/><path d="M594.569 29.632c0 .194.603.194 1.407.194s1.407-.194 1.407-.194c0-.194-.603-.194-1.407-.194s-1.407 0-1.407.194zm17.082 1.358c0 .194 3.015.776 6.632 1.551 3.618.776 6.632 1.164 6.632.97 0-.194-3.014-.776-6.632-1.552-3.617-.775-6.632-1.163-6.632-.97z" fill="#00143A"/><path d="M473.787 118.064c.804 2.327 2.813 3.685 4.622 3.103 1.608-.582 2.412-2.909 1.608-5.042-.804-2.327-2.814-3.685-4.622-3.103-1.809.582-2.412 2.909-1.608 5.042z" fill="#F3F0EB"/><path d="M612.656 173.333s-.804-85.522 2.211-91.922c0 0 3.215-16.096 15.876-16.29l-5.627.388s-11.455-.776-14.872 21.138c-3.416 21.914-3.014 87.462-3.014 87.462l5.426-.776zm-24.719 3.103s-3.417-98.127-.804-108.6h-3.416s-3.015 8.533-2.412 31.999c.402 14.156 0 76.601 0 76.601h6.632z" fill="#2A4759"/><path d="M547.341 132.802s-16.68 10.278-20.297 10.085c-3.618 0-14.068-.388-13.063.969 1.004 1.358 13.063 3.297 13.063 3.297l20.297-14.351z" fill="#F6BA99"/><path d="M548.547 154.328s78.78 20.363 89.632-12.605c11.455-35.101 11.656-25.986 11.656-25.986l-24.719-23.078s-13.264 40.337-17.082 41.307c-20.7 5.042-44.213 1.745-52.654.388-1.005-.776-2.01-1.746-3.215-2.715-1.005-.97-2.01-2.134-2.613-3.297-.804-1.552-1.809-3.491-2.01-4.848-.201-1.552-2.411-2.134-3.014-.776-.804 1.357-.201 5.624 2.612 10.084 0 0-18.69 11.636-20.297 14.545l21.704 6.981z" fill="#F6BA99"/><path d="M632.753 65.121s18.087 3.297 18.69 30.641c.804 27.344-10.651 48.288-10.651 48.288l-30.748-15.514 22.709-63.415z" fill="#FCD588"/><path d="M610.244 128.73c0 .194 1.809.969 4.623 2.133 2.813 1.357 6.833 3.103 11.053 5.236 4.22 2.133 8.039 4.266 10.651 5.818 2.613 1.551 4.422 2.521 4.422 2.327 0-.194-1.407-1.357-4.02-2.909-2.612-1.745-6.431-3.878-10.651-6.012-4.22-2.133-8.24-3.878-11.254-5.042-3.015-1.163-4.824-1.745-4.824-1.551zm1.206-1.94c0 .194 1.809.776 4.623 1.94 2.813 1.163 6.833 2.715 11.053 4.654 4.22 1.939 7.838 3.879 10.651 5.43 2.613 1.551 4.221 2.521 4.421 2.327 0-.194-1.406-1.357-4.019-2.909-2.612-1.745-6.23-3.684-10.45-5.818-4.221-1.939-8.24-3.49-11.254-4.46-3.015-.97-5.025-1.358-5.025-1.164zm8.843-29.477c.201 0 .804-2.327.603-5.236-.201-2.909-1.206-5.042-1.407-5.042-.201 0 .201 2.327.402 5.042 0 2.91 0 5.236.402 5.236z" fill="#EDB758"/><path d="M610.244 128.536c.201 0 1.407-1.939 3.015-5.43a126.565 126.565 0 005.426-13.963c1.608-5.624 2.814-10.666 3.417-14.545.603-3.684.602-6.011.602-6.205-.2 0-.602 2.327-1.205 6.011a236.403 236.403 0 01-3.618 14.351c-1.607 5.43-3.617 10.472-5.024 13.963-1.809 3.685-2.814 5.818-2.613 5.818z" fill="#EDB758"/></g><defs><linearGradient id="paint0_linear_2_467" x1="344.581" y1="240.402" x2="145.867" y2="127.701" gradientUnits="userSpaceOnUse"><stop stop-color="#fff"/><stop offset="1" stop-color="#fff" stop-opacity="0"/></linearGradient><linearGradient id="paint1_linear_2_467" x1="478.984" y1="119.341" x2="556.72" y2="86.228" gradientUnits="userSpaceOnUse"><stop stop-color="#fff"/><stop offset=".232" stop-color="#fff" stop-opacity=".768"/><stop offset="1" stop-color="#fff" stop-opacity="0"/></linearGradient><clipPath id="clip0_2_467"><path fill="#fff" transform="matrix(-1 0 0 1 371 58)" d="M0 0h371v365H0z"/></clipPath><clipPath id="clip1_2_467"><path fill="#fff" transform="translate(435)" d="M0 0h249v424.025H0z"/></clipPath></defs></svg>