<svg width="40" height="46" viewBox="0 0 40 46" fill="none" xmlns="http://www.w3.org/2000/svg">
<path d="M40 8.57143C40 3.83929 34.375 0 28.5714 0H11.4286C5.71429 0 0 3.83929 0 8.57143V31.4286C0 36.0714 5.44643 40 11.6071 40L5.98214 44.4643C5.44643 44.9107 5.71429 45.7143 6.42857 45.7143H33.5714C34.1964 45.7143 34.4643 44.9107 33.9286 44.4643L28.3036 40C34.4643 40 40 36.0714 40 31.4286V8.57143ZM17.8571 20.7143C17.8571 21.9643 16.875 22.8571 15.7143 22.8571H6.42857C5.17857 22.8571 4.28571 21.9643 4.28571 20.7143V10.7143C4.28571 9.55357 5.17857 8.57143 6.42857 8.57143H15.7143C16.875 8.57143 17.8571 9.55357 17.8571 10.7143V20.7143ZM35.7143 20.7143C35.7143 21.9643 34.7321 22.8571 33.5714 22.8571H24.2857C23.0357 22.8571 22.1429 21.9643 22.1429 20.7143V10.7143C22.1429 9.55357 23.0357 8.57143 24.2857 8.57143H33.5714C34.7321 8.57143 35.7143 9.55357 35.7143 10.7143V20.7143ZM31.4286 25.7143C33.75 25.7143 35.7143 27.6786 35.7143 30C35.7143 32.4107 33.75 34.2857 31.4286 34.2857C29.0179 34.2857 27.1429 32.4107 27.1429 30C27.1429 27.6786 29.0179 25.7143 31.4286 25.7143ZM8.57143 25.7143C10.8929 25.7143 12.8571 27.6786 12.8571 30C12.8571 32.4107 10.8929 34.2857 8.57143 34.2857C6.16071 34.2857 4.28571 32.4107 4.28571 30C4.28571 27.6786 6.16071 25.7143 8.57143 25.7143Z" fill="#F4CC45"/>
</svg>
