<svg width="40" height="36" viewBox="0 0 40 36" fill="none" xmlns="http://www.w3.org/2000/svg">
<path d="M20 0C15.1389 0 11.25 3.95833 11.25 8.75C11.25 12.7083 16.9444 19.7917 19.0972 22.4306C19.5833 22.9167 20.3472 22.9167 20.8333 22.4306C22.9861 19.7917 28.75 12.7083 28.75 8.75C28.75 3.95833 24.7917 0 20 0ZM20 11.6667C18.3333 11.6667 17.0833 10.4167 17.0833 8.75C17.0833 7.15278 18.3333 5.83333 20 5.83333C21.5972 5.83333 22.9167 7.15278 22.9167 8.75C22.9167 10.4167 21.5972 11.6667 20 11.6667ZM1.38889 15C0.555556 15.3472 0 16.1806 0 17.0833V34.4444C0 35.2778 0.763889 35.8333 1.45833 35.4861L11.1111 31.1111V14.9306C10.4861 13.8194 9.93056 12.7778 9.58333 11.7361L1.38889 15ZM20 25C18.9583 25 18.0556 24.5833 17.4306 23.8194C16.0417 22.2222 14.5833 20.4167 13.3333 18.4722V31.1111L26.6667 35.5556V18.4722C25.3472 20.4167 23.8889 22.2222 22.5 23.8194C21.875 24.5833 20.9722 25 20 25ZM38.4722 11.25L28.8889 15.5556V35.5556L38.5417 31.7361C39.375 31.3889 40 30.5556 40 29.6528V12.2917C40 11.4583 39.1667 10.9028 38.4722 11.25Z" fill="#67B78C"/>
</svg>
