<svg width="40" height="54" viewBox="0 0 40 54" fill="none" xmlns="http://www.w3.org/2000/svg">
<path d="M8.38936 49.3321C7.97217 51.1052 9.11943 52.8782 10.8925 53.3997C11.1011 53.3997 11.414 53.3997 11.7268 53.3997C13.187 53.3997 14.5428 52.461 14.96 50.8966L17.5674 40.3627L12.0397 34.9393L8.38936 49.3321ZM9.9538 28.8901L14.3342 12.2027C14.5428 11.3683 13.9171 10.5339 13.0827 10.221C8.49366 9.17807 3.80032 11.8898 2.65306 16.2702L0.0456553 26.4913C-0.162937 27.3256 0.358544 28.2643 1.29721 28.4729L7.86788 30.0373C8.80654 30.2459 9.74521 29.7244 9.9538 28.8901ZM38.4267 16.6874H36.758C35.8193 16.6874 35.0892 17.5218 35.0892 18.3561V20.0249H31.4388L26.5369 15.2273C25.3897 14.08 23.8252 13.3499 22.1565 13.3499C19.3405 13.3499 16.9417 15.3316 16.2116 18.0433L13.3956 29.3073C13.3956 29.5159 13.3956 29.8287 13.3956 30.1416C13.3956 30.976 13.7085 31.8104 14.3342 32.4361L23.408 41.5099V50.0622C23.408 51.9396 24.8682 53.3997 26.7455 53.3997C28.5185 53.3997 30.083 51.9396 30.083 50.0622V41.5099C30.083 39.7369 29.3529 38.0681 28.1014 36.7123L23.1994 31.9147C23.1994 31.8104 23.1994 31.8104 23.3037 31.7061L25.2854 23.4667L27.6842 25.7612C28.31 26.387 29.1443 26.8041 29.9787 26.8041H34.9849V51.8353C34.9849 52.6696 35.8193 53.504 36.6537 53.504H38.3224C39.2611 53.504 39.9911 52.6696 39.9911 51.8353V18.3561C40.0954 17.5218 39.2611 16.6874 38.4267 16.6874ZM25.0768 10.0124C27.7885 10.0124 30.083 7.82222 30.083 5.00622C30.083 2.29452 27.7885 0 25.0768 0C22.2608 0 20.0705 2.29452 20.0705 5.00622C20.0705 7.82222 22.2608 10.0124 25.0768 10.0124Z" fill="#D93D3D"/>
</svg>
