<svg width="22" height="22" viewBox="0 0 22 22" fill="none" xmlns="http://www.w3.org/2000/svg">
<path d="M19.6429 0H2.35714C1.03125 0 0 1.08036 0 2.35714V19.6429C0 20.9688 1.03125 22 2.35714 22H9.08482V14.5357H5.99107V11H9.08482V8.34822C9.08482 5.30357 10.9018 3.58482 13.6518 3.58482C15.0268 3.58482 16.4018 3.83036 16.4018 3.83036V6.82589H14.8795C13.3571 6.82589 12.8661 7.75893 12.8661 8.74107V11H16.2545L15.7143 14.5357H12.8661V22H19.6429C20.9196 22 22 20.9688 22 19.6429V2.35714C22 1.08036 20.9196 0 19.6429 0Z" fill="#88C1C1"/>
</svg>
