<svg width="22" height="22" viewBox="0 0 22 22" fill="none" xmlns="http://www.w3.org/2000/svg">
<path d="M19.6429 0H2.35714C1.03125 0 0 1.08036 0 2.35714V19.6429C0 20.9688 1.03125 22 2.35714 22H19.6429C20.9196 22 22 20.9688 22 19.6429V2.35714C22 1.08036 20.9196 0 19.6429 0ZM17.2366 7.80804C17.2366 7.95536 17.2366 8.10268 17.2366 8.25C17.2366 12.4732 13.9955 17.3839 8.05357 17.3839C6.23661 17.3839 4.56696 16.8929 3.14286 15.9598C3.38839 16.0089 3.63393 16.0089 3.87946 16.0089C5.40179 16.0089 6.77679 15.4688 7.90625 14.6339C6.48214 14.5848 5.30357 13.6518 4.86161 12.375C5.40179 12.4732 5.84375 12.4732 6.33482 12.3259C4.86161 12.0313 3.78125 10.7545 3.78125 9.18304V9.13393C4.17411 9.37947 4.66518 9.52679 5.20536 9.52679C4.32143 8.9375 3.78125 7.95536 3.78125 6.875C3.78125 6.23661 3.92857 5.69643 4.22321 5.20536C5.79464 7.16964 8.20089 8.44643 10.8527 8.59375C10.4107 6.43304 12.0313 4.61607 13.9955 4.61607C14.9286 4.61607 15.7634 5.00893 16.3527 5.64732C17.0893 5.5 17.7768 5.25446 18.4152 4.86161C18.1696 5.64732 17.6295 6.23661 16.9911 6.62946C17.6295 6.58036 18.2679 6.38393 18.8571 6.13839C18.4152 6.77679 17.8259 7.36607 17.2366 7.80804Z" fill="#88C1C1"/>
</svg>
