<svg width="22" height="22" viewBox="0 0 22 22" fill="none" xmlns="http://www.w3.org/2000/svg">
<path d="M11 8.39732C9.52679 8.39732 8.34822 9.57589 8.34822 11C8.34822 12.4732 9.52679 13.6518 11 13.6518C12.4241 13.6518 13.6027 12.4732 13.6027 11C13.6027 9.57589 12.4241 8.39732 11 8.39732ZM17.0893 6.38393C16.8438 5.69643 16.3036 5.15625 15.6161 4.91071C14.5848 4.46875 12.1295 4.56696 11 4.56696C9.82143 4.56696 7.36607 4.46875 6.33482 4.91071C5.64732 5.15625 5.10714 5.69643 4.86161 6.38393C4.46875 7.41518 4.51786 9.87054 4.51786 11C4.51786 12.1786 4.46875 14.6339 4.86161 15.6652C5.10714 16.3527 5.64732 16.8929 6.33482 17.1384C7.36607 17.5804 9.82143 17.4821 11 17.4821C12.1295 17.4821 14.5848 17.5804 15.6161 17.1384C16.3036 16.8929 16.8438 16.3527 17.0893 15.6652C17.5312 14.6339 17.433 12.1786 17.433 11C17.433 9.87054 17.5312 7.41518 17.0893 6.38393ZM11 15.0268C8.74107 15.0268 6.97321 13.2589 6.97321 11C6.97321 8.79018 8.74107 6.97321 11 6.97321C13.2098 6.97321 15.0268 8.79018 15.0268 11V11.0491C15.0268 13.2589 13.2098 15.0759 11 15.0759V15.0268ZM15.1741 7.75893C14.6339 7.75893 14.2411 7.36607 14.2411 6.82589C14.2411 6.28571 14.6339 5.89286 15.1741 5.89286C15.6652 5.89286 16.1071 6.28571 16.1071 6.82589C16.1071 7.36607 15.6652 7.75893 15.1741 7.75893ZM19.6429 0H2.35714C1.03125 0 0 1.08036 0 2.35714V19.6429C0 20.9688 1.03125 22 2.35714 22H19.6429C20.9196 22 22 20.9688 22 19.6429V2.35714C22 1.08036 20.9196 0 19.6429 0ZM18.7589 14.2411C18.7098 15.5179 18.4152 16.6473 17.5312 17.5312C16.5982 18.4643 15.4688 18.7589 14.2411 18.808C12.9152 18.9063 9.03572 18.9063 7.75893 18.808C6.48214 18.7589 5.35268 18.4643 4.46875 17.5312C3.53571 16.6473 3.24107 15.5179 3.19196 14.2411C3.09375 12.9643 3.09375 9.08482 3.19196 7.75893C3.24107 6.53125 3.53571 5.40179 4.46875 4.46875C5.35268 3.58482 6.48214 3.29018 7.75893 3.24107C9.03572 3.14286 12.9152 3.14286 14.2411 3.24107C15.4688 3.29018 16.5982 3.58482 17.5312 4.51786C18.4152 5.40179 18.7098 6.53125 18.7589 7.80804C18.8571 9.08482 18.8571 12.9643 18.7589 14.2411Z" fill="#88C1C1"/>
</svg>
