<svg width="80" height="64" viewBox="0 0 80 64" fill="none" xmlns="http://www.w3.org/2000/svg">
<path d="M75.5 39.5L75 38.125L72.75 32C70.875 27.375 66.375 24 61.125 24C61.125 24 61.125 24 61 24H46.875C46.75 24 46.75 24 46.75 24C41.5 24 37 27.375 35.125 32L33 38.125L32.375 39.5C29.75 40.625 28 43.125 28 46.125V49.75C28 52 29 54 30.625 55.25V60C30.625 62.25 32.375 64 34.625 64H37.375C39.625 64 41.375 62.25 41.375 60V56H66.5V60C66.5 62.25 68.25 64 70.5 64H73.25C75.5 64 77.25 62.25 77.25 60V55.25C78.875 54 79.875 52 80 49.75V46.125C79.875 43.125 78.125 40.625 75.5 39.5ZM41.875 35.5C42.625 33.5 44.625 32 46.875 32H61C63.25 32 65.25 33.5 66 35.5L67.625 40H40.375L41.875 35.5ZM37.5 51C35.625 51 34.5 49.875 34.5 48C34.5 46.25 35.625 45 37.5 45C39.25 45 42 47.75 42 49.5C42 51.375 39.25 51 37.5 51ZM70.5 51C68.625 51 66 51.375 66 49.5C66 47.75 68.625 45 70.5 45C72.25 45 73.5 46.25 73.5 48C73.5 49.875 72.25 51 70.5 51ZM31.5 30.5C31.75 29.625 32.25 28.875 32.625 28H24V10H34.125C35.125 10 36 10.875 36 11.875V24.125C38.125 22.25 40.875 20.875 44 20.375V7.875C44 3.5 34.25 0 22 0C9.625 0 0 3.5 0 7.875V40.375C0 42.375 1.625 44 3.625 44H5V48C5 50.25 6.75 52 9 52H11.875C14 52 15.875 50.25 15.875 48V44H24.25C24.75 41 26.5 38.25 29.25 36.625L31.5 30.5ZM10 39C8.25 39 7 37.75 7 36C7 34.375 8.25 33 10 33C11.625 33 13 34.375 13 36C13 37.75 11.625 39 10 39ZM20 28H9.75C8.75 28 8 27.25 8 26.25V11.875C8 10.875 8.75 10 9.75 10H20V28Z" fill="#178BD3"/>
</svg>
