<svg width="18" height="19" viewBox="0 0 18 19" fill="none" xmlns="http://www.w3.org/2000/svg">
<path d="M17.7667 15.5855L14.2486 12.0673C14.0727 11.9266 13.8616 11.821 13.6505 11.821H13.0876C14.0375 10.5897 14.6356 9.04169 14.6356 7.31779C14.6356 3.30708 11.3285 0 7.31779 0C3.2719 0 0 3.30708 0 7.31779C0 11.3637 3.2719 14.6356 7.31779 14.6356C9.00651 14.6356 10.5545 14.0727 11.821 13.0876V13.6857C11.821 13.8968 11.8914 14.1079 12.0673 14.2838L15.5503 17.7667C15.9021 18.1186 16.4298 18.1186 16.7465 17.7667L17.7316 16.7817C18.0834 16.465 18.0834 15.9373 17.7667 15.5855ZM7.31779 11.821C4.81989 11.821 2.81453 9.81569 2.81453 7.31779C2.81453 4.85507 4.81989 2.81453 7.31779 2.81453C9.78051 2.81453 11.821 4.85507 11.821 7.31779C11.821 9.81569 9.78051 11.821 7.31779 11.821Z" fill="#AFAFAF"/>
</svg>
