<svg width="120" height="25" viewBox="0 0 120 25" fill="none" xmlns="http://www.w3.org/2000/svg">
<path d="M24.4102 12.2051C24.4102 18.9458 18.9458 24.4102 12.2051 24.4102C5.4644 24.4102 0 18.9458 0 12.2051C0 5.4644 5.4644 0 12.2051 0C18.9458 0 24.4102 5.4644 24.4102 12.2051Z" fill="#F05A28"/>
<path d="M36.882 9.73614C36.0114 9.73614 35.2221 9.549 34.5142 9.17471C33.8145 8.79228 33.2612 8.26746 32.8543 7.60025C32.4556 6.9249 32.2563 6.16412 32.2563 5.3179C32.2563 4.47168 32.4556 3.71496 32.8543 3.04775C33.2612 2.37241 33.8145 1.84759 34.5142 1.4733C35.2221 1.09087 36.0155 0.899658 36.8942 0.899658C37.6347 0.899658 38.3019 1.02985 38.8959 1.29022C39.498 1.5506 40.0024 1.92489 40.4093 2.41309L39.14 3.58478C38.5622 2.91757 37.8462 2.58396 36.9919 2.58396C36.463 2.58396 35.991 2.70194 35.5761 2.93791C35.1611 3.16574 34.8356 3.48714 34.5997 3.90211C34.3718 4.31708 34.2579 4.78901 34.2579 5.3179C34.2579 5.84679 34.3718 6.31872 34.5997 6.73369C34.8356 7.14866 35.1611 7.47413 35.5761 7.7101C35.991 7.93792 36.463 8.05184 36.9919 8.05184C37.8462 8.05184 38.5622 7.71416 39.14 7.03882L40.4093 8.2105C40.0024 8.70684 39.498 9.0852 38.8959 9.34558C38.2937 9.60595 37.6225 9.73614 36.882 9.73614Z" fill="black"/>
<path d="M49.3385 9.73614C48.4516 9.73614 47.6502 9.54493 46.9341 9.1625C46.2262 8.78008 45.6689 8.25526 45.262 7.58804C44.8633 6.9127 44.664 6.15598 44.664 5.3179C44.664 4.47982 44.8633 3.72717 45.262 3.05996C45.6689 2.38461 46.2262 1.85572 46.9341 1.4733C47.6502 1.09087 48.4516 0.899658 49.3385 0.899658C50.2255 0.899658 51.0228 1.09087 51.7307 1.4733C52.4386 1.85572 52.996 2.38461 53.4028 3.05996C53.8097 3.72717 54.0131 4.47982 54.0131 5.3179C54.0131 6.15598 53.8097 6.9127 53.4028 7.58804C52.996 8.25526 52.4386 8.78008 51.7307 9.1625C51.0228 9.54493 50.2255 9.73614 49.3385 9.73614ZM49.3385 8.05184C49.843 8.05184 50.2987 7.93792 50.7055 7.7101C51.1124 7.47413 51.4297 7.14866 51.6575 6.73369C51.8935 6.31872 52.0115 5.84679 52.0115 5.3179C52.0115 4.78901 51.8935 4.31708 51.6575 3.90211C51.4297 3.48714 51.1124 3.16574 50.7055 2.93791C50.2987 2.70194 49.843 2.58396 49.3385 2.58396C48.8341 2.58396 48.3784 2.70194 47.9716 2.93791C47.5647 3.16574 47.2433 3.48714 47.0074 3.90211C46.7795 4.31708 46.6656 4.78901 46.6656 5.3179C46.6656 5.84679 46.7795 6.31872 47.0074 6.73369C47.2433 7.14866 47.5647 7.47413 47.9716 7.7101C48.3784 7.93792 48.8341 8.05184 49.3385 8.05184Z" fill="black"/>
<path d="M66.7302 9.58968L66.718 4.46354L64.2038 8.6865H63.3128L60.8108 4.57339V9.58968H58.9556V1.04612H60.5911L63.7888 6.35533L66.9377 1.04612H68.561L68.5854 9.58968H66.7302Z" fill="black"/>
<path d="M77.7671 1.04612C78.5238 1.04612 79.1788 1.17224 79.7321 1.42448C80.2935 1.67672 80.7248 2.03473 81.0258 2.49852C81.3269 2.96232 81.4774 3.51155 81.4774 4.14621C81.4774 4.77274 81.3269 5.32197 81.0258 5.7939C80.7248 6.25769 80.2935 6.61571 79.7321 6.86795C79.1788 7.11205 78.5238 7.2341 77.7671 7.2341H76.0461V9.58968H74.0689V1.04612H77.7671ZM77.6572 5.62303C78.2512 5.62303 78.7028 5.49691 79.012 5.24467C79.3212 4.98429 79.4758 4.61814 79.4758 4.14621C79.4758 3.66614 79.3212 3.29999 79.012 3.04775C78.7028 2.78738 78.2512 2.65719 77.6572 2.65719H76.0461V5.62303H77.6572Z" fill="black"/>
<path d="M92.0912 7.75892H88.1246L87.3679 9.58968H85.3418L89.1498 1.04612H91.1026L94.9228 9.58968H92.848L92.0912 7.75892ZM91.4688 6.25769L90.114 2.98673L88.7593 6.25769H91.4688Z" fill="black"/>
<path d="M107.101 1.04612V9.58968H105.478L101.219 4.40252V9.58968H99.2657V1.04612H100.901L105.149 6.23328V1.04612H107.101Z" fill="black"/>
<path d="M116.68 6.56282V9.58968H114.703V6.53841L111.395 1.04612H113.495L115.777 4.8419L118.059 1.04612H120L116.68 6.56282Z" fill="black"/>
<path d="M40.092 13.9487V22.4923H38.4687L34.2091 17.3051V22.4923H32.2563V13.9487H33.8918L38.1391 19.1359V13.9487H40.092Z" fill="#F05A28"/>
<path d="M51.1964 20.6615H47.2297L46.473 22.4923H44.447L48.255 13.9487H50.2078L54.028 22.4923H51.9531L51.1964 20.6615ZM50.5739 19.1603L49.2192 15.8893L47.8644 19.1603H50.5739Z" fill="#F05A28"/>
<path d="M66.1455 22.4923L66.1333 17.3662L63.6191 21.5891H62.7281L60.2261 17.476V22.4923H58.3709V13.9487H60.0064L63.2041 19.2579L66.353 13.9487H67.9763L68.0007 22.4923H66.1455Z" fill="#F05A28"/>
<path d="M80.0994 20.9056V22.4923H73.4842V13.9487H79.9407V15.5354H75.4492V17.3906H79.4159V18.9284H75.4492V20.9056H80.0994Z" fill="#F05A28"/>
</svg>
