<svg width="198" height="41" viewBox="0 0 198 41" fill="none" xmlns="http://www.w3.org/2000/svg">
<path d="M40.2768 20.2053C40.2768 31.3274 31.2605 40.3437 20.1384 40.3437C9.01626 40.3437 0 31.3274 0 20.2053C0 9.08316 9.01626 0.0668945 20.1384 0.0668945C31.2605 0.0668945 40.2768 9.08316 40.2768 20.2053Z" fill="white"/>
<path d="M60.8554 16.1312C59.4188 16.1312 58.1165 15.8224 56.9485 15.2049C55.7939 14.5739 54.881 13.7079 54.2097 12.607C53.5518 11.4927 53.2229 10.2374 53.2229 8.84112C53.2229 7.44486 53.5518 6.19628 54.2097 5.09538C54.881 3.98106 55.7939 3.11511 56.9485 2.49753C58.1165 1.86653 59.4255 1.55103 60.8755 1.55103C62.0972 1.55103 63.1981 1.76584 64.1782 2.19545C65.1717 2.62507 66.0041 3.24265 66.6753 4.04819L64.581 5.98147C63.6277 4.88057 62.4463 4.33012 61.0366 4.33012C60.1639 4.33012 59.3852 4.5248 58.7005 4.91414C58.0158 5.29005 57.4788 5.82036 57.0895 6.50507C56.7136 7.18977 56.5256 7.96846 56.5256 8.84112C56.5256 9.71379 56.7136 10.4925 57.0895 11.1772C57.4788 11.8619 58.0158 12.3989 58.7005 12.7882C59.3852 13.1642 60.1639 13.3521 61.0366 13.3521C62.4463 13.3521 63.6277 12.795 64.581 11.6806L66.6753 13.6139C66.0041 14.4329 65.1717 15.0572 64.1782 15.4868C63.1847 15.9164 62.0771 16.1312 60.8554 16.1312Z" fill="white"/>
<path d="M81.4086 16.1312C79.9452 16.1312 78.6228 15.8157 77.4414 15.1847C76.2733 14.5537 75.3537 13.6878 74.6824 12.5869C74.0245 11.4725 73.6956 10.224 73.6956 8.84112C73.6956 7.45829 74.0245 6.21642 74.6824 5.11552C75.3537 4.0012 76.2733 3.12853 77.4414 2.49753C78.6228 1.86653 79.9452 1.55103 81.4086 1.55103C82.872 1.55103 84.1877 1.86653 85.3558 2.49753C86.5238 3.12853 87.4434 4.0012 88.1147 5.11552C88.786 6.21642 89.1216 7.45829 89.1216 8.84112C89.1216 10.224 88.786 11.4725 88.1147 12.5869C87.4434 13.6878 86.5238 14.5537 85.3558 15.1847C84.1877 15.8157 82.872 16.1312 81.4086 16.1312ZM81.4086 13.3521C82.241 13.3521 82.9928 13.1642 83.6641 12.7882C84.3354 12.3989 84.859 11.8619 85.2349 11.1772C85.6243 10.4925 85.8189 9.71379 85.8189 8.84112C85.8189 7.96846 85.6243 7.18977 85.2349 6.50507C84.859 5.82036 84.3354 5.29005 83.6641 4.91414C82.9928 4.5248 82.241 4.33012 81.4086 4.33012C80.5762 4.33012 79.8244 4.5248 79.1531 4.91414C78.4818 5.29005 77.9515 5.82036 77.5622 6.50507C77.1863 7.18977 76.9983 7.96846 76.9983 8.84112C76.9983 9.71379 77.1863 10.4925 77.5622 11.1772C77.9515 11.8619 78.4818 12.3989 79.1531 12.7882C79.8244 13.1642 80.5762 13.3521 81.4086 13.3521Z" fill="white"/>
<path d="M110.105 15.8896L110.085 7.43144L105.936 14.3993H104.466L100.338 7.61268V15.8896H97.2767V1.79269H99.9753L105.252 10.5529L110.447 1.79269H113.126L113.166 15.8896H110.105Z" fill="white"/>
<path d="M128.316 1.79269C129.564 1.79269 130.645 2.00078 131.558 2.41698C132.484 2.83317 133.196 3.4239 133.693 4.18915C134.189 4.95441 134.438 5.86064 134.438 6.90784C134.438 7.94161 134.189 8.84784 133.693 9.62652C133.196 10.3918 132.484 10.9825 131.558 11.3987C130.645 11.8015 129.564 12.0029 128.316 12.0029H125.476V15.8896H122.214V1.79269H128.316ZM128.134 9.34458C129.114 9.34458 129.86 9.13649 130.37 8.72029C130.88 8.29067 131.135 7.68652 131.135 6.90784C131.135 6.11573 130.88 5.51158 130.37 5.09538C129.86 4.66576 129.114 4.45095 128.134 4.45095H125.476V9.34458H128.134Z" fill="white"/>
<path d="M151.951 12.8688H145.406L144.157 15.8896H140.814L147.097 1.79269H150.319L156.623 15.8896H153.199L151.951 12.8688ZM150.924 10.3918L148.688 4.99469L146.453 10.3918H150.924Z" fill="white"/>
<path d="M176.717 1.79269V15.8896H174.039L167.011 7.33074V15.8896H163.789V1.79269H166.487L173.495 10.3515V1.79269H176.717Z" fill="white"/>
<path d="M192.522 10.8952V15.8896H189.26V10.855L183.802 1.79269H187.266L191.032 8.05573L194.798 1.79269H198L192.522 10.8952Z" fill="white"/>
<path d="M66.1517 23.0823V37.1792H63.4733L56.445 28.6203V37.1792H53.2229V23.0823H55.9214L62.9296 31.6411V23.0823H66.1517Z" fill="white"/>
<path d="M84.4741 34.1584H77.9291L76.6805 37.1792H73.3375L79.6207 23.0823H82.8429L89.1462 37.1792H85.7226L84.4741 34.1584ZM83.447 31.6814L81.2116 26.2843L78.9763 31.6814H83.447Z" fill="white"/>
<path d="M109.14 37.1792L109.12 28.721L104.971 35.6889H103.501L99.373 28.9023V37.1792H96.312V23.0823H99.0105L104.287 31.8425L109.482 23.0823H112.161L112.201 37.1792H109.14Z" fill="white"/>
<path d="M132.164 34.5612V37.1792H121.249V23.0823H131.902V25.7003H124.491V28.7613H131.036V31.2987H124.491V34.5612H132.164Z" fill="white"/>
</svg>
