<svg width="103" height="90" viewBox="0 0 103 90" fill="none" xmlns="http://www.w3.org/2000/svg">
<path d="M93.3438 45H77.25V32.1429C77.25 25.1116 82.8828 19.2857 90.125 19.2857H91.7344C94.3496 19.2857 96.5625 17.2768 96.5625 14.4643V4.82143C96.5625 2.20982 94.3496 0 91.7344 0H90.125C72.2207 0 57.9375 14.4643 57.9375 32.1429V80.3571C57.9375 85.7812 62.1621 90 67.5938 90H93.3438C98.5742 90 103 85.7812 103 80.3571V54.6429C103 49.4196 98.5742 45 93.3438 45ZM35.4062 45H19.3125V32.1429C19.3125 25.1116 24.9453 19.2857 32.1875 19.2857H33.7969C36.4121 19.2857 38.625 17.2768 38.625 14.4643V4.82143C38.625 2.20982 36.4121 0 33.7969 0H32.1875C14.2832 0 0 14.4643 0 32.1429V80.3571C0 85.7812 4.22461 90 9.65625 90H35.4062C40.6367 90 45.0625 85.7812 45.0625 80.3571V54.6429C45.0625 49.4196 40.6367 45 35.4062 45Z" fill="white" fill-opacity="0.4"/>
</svg>
