<svg width="777" height="427" viewBox="0 0 777 427" fill="none" xmlns="http://www.w3.org/2000/svg">
<g clip-path="url(#clip0_2_78)">
<path d="M556.95 408.457C556.95 408.457 540.83 416.527 538.258 424.253C538.258 424.253 569.64 418.93 575.299 417.557L575.642 403.822L558.322 404.68L556.95 408.457Z" fill="#F3F4EA"/>
<path d="M575.299 417.557V420.991L538.43 427L538.258 424.253L575.299 417.557Z" fill="#9D9392"/>
<path d="M613.197 333.256L647.666 376.007L637.377 384.249L599.307 344.072L613.197 333.256Z" fill="#F4C5B7"/>
<path d="M536.2 195.901L545.289 290.676L601.536 359.696L626.573 338.235L577.528 272.648L571.698 212.384L536.2 195.901Z" fill="#F0D9C2"/>
<path d="M577.185 362.787L573.927 405.882L560.723 406.397L559.522 361.242L577.185 362.787Z" fill="#F4C5B7"/>
<path d="M536.2 195.901L561.752 224.918L549.748 382.703H582.673L598.106 195.901H536.2Z" fill="#FFE6C9"/>
<path d="M634.804 386.652C634.804 386.652 628.631 403.478 632.232 411.033C632.232 411.033 651.267 385.622 654.354 380.471L643.55 370.17L631.546 382.703L634.804 386.652Z" fill="#F3F4EA"/>
<path d="M654.354 380.471L656.754 383.047L634.29 412.921L632.232 411.033L654.354 380.471Z" fill="#9D9392"/>
<path d="M683.335 290.676L686.593 288.959L638.063 205.173L634.804 206.89L683.335 290.676Z" fill="#688890"/>
<path d="M729.464 396.954C729.121 401.246 732.379 404.852 736.495 405.195C740.782 405.538 744.383 402.276 744.726 398.156C745.069 393.863 741.811 390.258 737.696 389.914C733.58 389.571 729.807 392.833 729.464 396.954Z" fill="#9D9392"/>
<path d="M756.902 382.875C756.559 387.167 759.817 390.773 763.933 391.116C768.22 391.46 771.821 388.197 772.164 384.077C772.507 379.784 769.249 376.179 765.133 375.836C761.018 375.492 757.245 378.754 756.902 382.875Z" fill="#9D9392"/>
<path d="M733.237 306.3L726.035 310.421L766.334 382.703L774.05 378.411C776.794 376.866 777.823 373.26 776.28 370.513L741.125 308.532C739.582 305.613 735.981 304.583 733.237 306.3Z" fill="#30303B"/>
<path d="M673.56 293.423L706.142 277.971C710.772 275.739 716.26 277.627 718.661 281.92L772.679 379.613L730.836 403.135L673.56 293.423Z" fill="#30303B"/>
<path d="M559.008 71.2526L592.962 72.2827C592.962 72.2827 627.773 70.7375 624.515 133.062L624.687 194.871C624.687 194.871 608.739 214.616 567.239 203.113L559.008 71.2526Z" fill="#30303B"/>
<path d="M617.313 180.277C628.288 180.277 637.377 171.178 637.377 160.189V134.607C637.377 123.619 628.288 114.519 617.313 114.519C606.338 114.519 597.249 123.619 597.249 134.607V160.189C597.421 171.178 606.338 180.277 617.313 180.277Z" fill="#30303B"/>
<path d="M539.63 62.1532C539.63 62.1532 531.742 79.6659 540.659 88.9373L614.055 87.392C614.055 87.392 625.544 73.6566 612.168 60.9514L539.63 62.1532Z" fill="#9D9392"/>
<path d="M615.255 75.5449C615.255 75.5449 613.369 72.7978 614.741 70.7375C616.112 68.6772 617.999 74.6864 616.112 78.6354C614.226 82.5843 611.482 76.4034 613.026 69.364" stroke="#BCB3B2" stroke-width="0.3618" stroke-miterlimit="10" stroke-linecap="round"/>
<path d="M612.168 60.7793C612.168 60.7793 607.195 76.4034 614.055 87.22" stroke="#BCB3B2" stroke-width="0.3618" stroke-miterlimit="10" stroke-linecap="round"/>
<path d="M564.324 61.6378C564.324 61.6378 559.008 70.3941 562.952 87.9068L559.865 95.1178L556.264 88.4218C556.264 88.4218 551.977 69.1922 557.807 61.6378H564.324Z" fill="#383635"/>
<path d="M599.65 60.951C599.65 60.951 594.505 70.2224 598.449 87.5634L591.419 87.7351C591.419 87.7351 587.474 68.5055 593.133 60.951H599.65Z" fill="#383635"/>
<path d="M512.192 143.707L529.512 103.531C533.457 94.4311 540.83 87.3917 550.262 84.3012C550.605 84.1295 550.777 84.1295 551.119 84.1295C571.355 79.6655 590.047 84.3012 590.047 84.3012L591.762 84.988C599.821 88.4219 606.166 94.7745 609.767 102.844L627.773 143.02L604.108 153.322L609.425 236.593L526.426 235.563L539.459 152.463L512.192 143.707Z" fill="#ED9D89"/>
<path d="M541.688 87.22C543.06 94.6028 543.917 102.329 544.432 110.055C544.946 117.61 544.946 125.336 544.26 132.89C543.574 140.445 542.374 147.999 539.973 154.867C537.572 161.735 534.142 168.259 529.341 173.41L535.514 179.247C541.173 172.723 544.775 164.997 547.004 157.271C549.405 149.373 550.262 141.475 550.605 133.405C550.948 125.508 550.605 117.61 549.919 109.712C549.062 101.814 548.033 94.0877 546.146 86.3616L541.688 87.22Z" fill="#30303B"/>
<path d="M586.274 109.368C587.817 100.784 590.047 92.3708 593.476 84.1295L599.135 86.3615C596.392 94.0877 594.677 102.329 593.648 110.399C592.619 118.64 592.447 126.881 593.648 134.779C594.848 142.677 597.42 150.231 601.365 156.927C602.394 158.472 603.422 160.018 604.623 161.391L605.652 177.187C600.679 172.895 596.049 167.916 592.962 162.078C588.503 153.837 586.102 144.909 585.074 135.981C584.045 126.881 584.902 118.125 586.274 109.368Z" fill="#30303B"/>
<path d="M565.01 201.739L580.958 215.646L602.565 190.751L586.617 176.844C585.76 176.157 584.559 176.157 583.873 177.015L564.838 198.82C564.152 199.851 564.324 201.052 565.01 201.739Z" fill="#24244F"/>
<path d="M565.524 202.254L581.472 216.161L603.08 191.266L587.131 177.359C586.274 176.672 585.074 176.672 584.388 177.53L565.353 199.335C564.667 200.194 564.667 201.567 565.524 202.254Z" fill="#1E0044"/>
<path opacity="0.14" d="M600.507 190.922L586.445 178.732C585.931 178.217 585.245 178.389 584.731 178.904L566.553 199.851L600.507 190.922Z" fill="#6868B2"/>
<path d="M585.245 186.458C585.417 186.458 585.588 186.458 585.76 186.458C587.303 186.458 589.018 186.974 590.39 188.175C590.39 188.175 590.39 188.175 590.561 188.175C591.933 189.377 592.619 190.923 592.79 192.468C592.79 192.639 592.79 192.811 592.79 192.983C592.962 194.7 592.276 196.588 591.076 197.962C589.875 199.335 588.16 200.194 586.445 200.366C586.274 200.366 586.102 200.366 585.931 200.366C584.388 200.366 582.673 199.851 581.301 198.649C581.301 198.649 581.301 198.649 581.129 198.649C579.758 197.447 579.072 195.902 578.9 194.356C578.9 194.185 578.9 194.013 578.9 193.841C578.729 192.124 579.415 190.236 580.615 188.862C581.815 187.317 583.359 186.63 585.245 186.458ZM581.129 189.034L583.359 190.923C584.216 190.064 585.074 189.206 585.931 188.691C585.588 188.175 585.417 187.66 585.417 186.974C583.702 187.145 582.33 187.832 581.129 189.034ZM589.875 192.468C589.189 192.124 588.503 191.781 587.989 191.266L586.274 193.326L588.332 195.043C589.018 194.356 589.532 193.326 589.875 192.468ZM589.704 188.347C589.018 188.004 587.817 188.175 586.617 188.862C586.96 189.377 587.474 190.064 587.989 190.579L589.704 188.347ZM590.218 188.691L588.332 190.751C588.846 191.266 589.532 191.609 590.218 191.781C590.733 190.579 590.733 189.377 590.218 188.691ZM585.76 193.841L584.045 195.902C584.559 196.417 585.074 197.103 585.417 197.619C586.274 197.103 587.131 196.417 587.817 195.558L585.76 193.841ZM583.702 196.245L581.815 198.305C582.501 198.649 583.702 198.477 584.902 197.79C584.559 197.275 584.216 196.76 583.702 196.245ZM581.301 197.962L583.187 195.902C582.673 195.387 581.987 195.043 581.301 194.871C580.958 196.245 580.786 197.447 581.301 197.962ZM583.53 195.558L585.245 193.498L583.187 191.781C582.501 192.639 581.815 193.498 581.472 194.528C582.33 194.528 583.016 195.043 583.53 195.558ZM585.76 192.983L587.474 190.923C586.96 190.407 586.445 189.721 586.102 189.206C585.245 189.721 584.388 190.407 583.702 191.266L585.76 192.983ZM585.931 186.974C586.102 187.489 586.274 187.832 586.445 188.347C587.303 187.832 587.989 187.66 588.675 187.66C587.817 187.145 586.788 186.974 585.931 186.974ZM591.076 189.892C591.076 190.579 590.904 191.438 590.733 192.296C591.247 192.468 591.761 192.468 592.104 192.639C592.104 191.438 591.761 190.579 591.076 189.892ZM592.276 192.983C591.761 192.983 591.076 192.811 590.561 192.639C590.218 193.498 589.532 194.528 588.675 195.558L590.904 197.447C591.933 196.073 592.276 194.528 592.276 192.983ZM590.39 197.79L588.16 195.902C587.303 196.76 586.445 197.619 585.588 198.134C585.931 198.649 586.102 199.164 586.102 199.851C587.817 199.679 589.361 198.992 590.39 197.79ZM585.76 199.851C585.588 199.335 585.417 198.992 585.245 198.477C584.388 198.992 583.702 199.164 583.016 199.164C583.873 199.679 584.731 199.851 585.76 199.851ZM580.443 196.932C580.443 196.245 580.615 195.387 580.786 194.528C580.272 194.356 579.758 194.356 579.415 194.185C579.586 195.215 579.929 196.245 580.443 196.932ZM579.415 193.841C579.929 193.841 580.615 194.013 581.129 194.185C581.472 193.326 582.158 192.296 583.016 191.266L580.786 189.377C579.758 190.751 579.243 192.296 579.415 193.841Z" fill="#F3C042"/>
<path d="M585.86 206.266C585.805 206.218 585.739 206.19 585.661 206.18C585.585 206.17 585.507 206.179 585.429 206.209C585.352 206.238 585.285 206.284 585.229 206.35C585.173 206.414 585.136 206.487 585.118 206.568C585.1 206.65 585.101 206.728 585.122 206.804C585.143 206.879 585.181 206.94 585.235 206.987L585.514 207.229L585.251 207.532C585.227 207.56 585.215 207.591 585.216 207.624C585.217 207.657 585.232 207.686 585.26 207.71C585.286 207.733 585.316 207.743 585.349 207.74C585.383 207.735 585.412 207.719 585.436 207.691L586.238 206.765C586.262 206.737 586.273 206.706 586.27 206.672C586.268 206.637 586.253 206.607 586.225 206.582L585.86 206.266ZM585.393 206.804C585.373 206.787 585.361 206.761 585.356 206.727C585.351 206.692 585.354 206.657 585.365 206.62C585.377 206.581 585.395 206.546 585.421 206.516C585.447 206.487 585.478 206.464 585.514 206.448C585.55 206.431 585.585 206.423 585.619 206.424C585.653 206.424 585.68 206.432 585.7 206.45L585.979 206.692L585.672 207.046L585.393 206.804ZM583.68 206.119C583.662 206.129 583.648 206.139 583.638 206.151C583.614 206.179 583.603 206.21 583.606 206.243C583.609 206.276 583.623 206.303 583.646 206.323C583.665 206.34 583.688 206.349 583.714 206.352C583.739 206.353 583.765 206.347 583.791 206.334L584.042 206.212L584.519 206.627L584.433 206.894C584.423 206.921 584.421 206.947 584.427 206.973C584.433 206.997 584.444 207.016 584.463 207.032C584.49 207.056 584.518 207.067 584.546 207.065C584.573 207.062 584.597 207.048 584.62 207.022C584.628 207.013 584.635 207.001 584.641 206.988L585.072 205.683C585.082 205.655 585.084 205.627 585.077 205.6C585.07 205.574 585.055 205.552 585.032 205.536C585.013 205.519 584.99 205.51 584.964 205.508C584.938 205.503 584.912 205.508 584.887 205.522L583.68 206.119ZM584.28 206.096L584.767 205.861L584.6 206.374L584.28 206.096ZM583.054 205.823C583.13 205.89 583.207 205.939 583.284 205.972C583.36 206.005 583.444 206.021 583.536 206.02C583.587 206.02 583.626 206.004 583.653 205.973C583.674 205.948 583.684 205.919 583.681 205.885C583.68 205.85 583.666 205.822 583.641 205.799C583.62 205.782 583.597 205.772 583.57 205.771C583.496 205.769 583.433 205.759 583.378 205.74C583.324 205.721 583.269 205.687 583.213 205.639C583.153 205.587 583.114 205.529 583.094 205.465C583.074 205.401 583.08 205.348 583.115 205.309C583.156 205.261 583.21 205.242 583.276 205.252C583.343 205.262 583.428 205.3 583.533 205.366C583.797 205.535 584.008 205.528 584.167 205.344C584.225 205.276 584.258 205.203 584.266 205.123C584.274 205.042 584.259 204.963 584.22 204.884C584.182 204.805 584.126 204.733 584.051 204.668C583.984 204.609 583.912 204.565 583.836 204.534C583.759 204.503 583.686 204.486 583.618 204.485C583.565 204.483 583.525 204.498 583.498 204.53C583.476 204.554 583.467 204.584 583.468 204.619C583.47 204.653 583.484 204.681 583.508 204.702C583.524 204.716 583.543 204.723 583.564 204.725C583.611 204.727 583.668 204.74 583.734 204.766C583.8 204.789 583.852 204.818 583.892 204.852C583.959 204.91 584 204.969 584.015 205.027C584.03 205.083 584.02 205.131 583.985 205.172C583.945 205.218 583.897 205.236 583.839 205.227C583.78 205.217 583.704 205.185 583.61 205.129C583.504 205.066 583.413 205.023 583.336 205.001C583.259 204.978 583.188 204.976 583.122 204.996C583.058 205.014 582.994 205.059 582.932 205.131C582.874 205.198 582.842 205.274 582.836 205.359C582.83 205.442 582.846 205.524 582.885 205.607C582.925 205.688 582.981 205.76 583.054 205.823ZM582.098 204.994C582.175 205.061 582.252 205.11 582.328 205.143C582.405 205.176 582.489 205.192 582.581 205.191C582.632 205.19 582.671 205.175 582.698 205.144C582.719 205.119 582.728 205.09 582.726 205.056C582.725 205.021 582.711 204.992 582.685 204.97C582.665 204.952 582.641 204.943 582.614 204.942C582.541 204.94 582.477 204.93 582.423 204.911C582.368 204.891 582.313 204.858 582.258 204.809C582.198 204.758 582.158 204.7 582.139 204.636C582.118 204.571 582.125 204.519 582.159 204.48C582.201 204.432 582.255 204.413 582.32 204.423C582.387 204.432 582.473 204.47 582.578 204.537C582.841 204.706 583.053 204.698 583.212 204.514C583.27 204.447 583.303 204.374 583.31 204.294C583.318 204.213 583.303 204.133 583.265 204.055C583.227 203.975 583.171 203.903 583.096 203.838C583.029 203.78 582.957 203.736 582.881 203.705C582.803 203.673 582.731 203.657 582.662 203.656C582.61 203.653 582.57 203.668 582.542 203.7C582.521 203.725 582.511 203.755 582.513 203.79C582.515 203.824 582.529 203.851 582.553 203.873C582.569 203.886 582.588 203.894 582.609 203.896C582.656 203.897 582.713 203.911 582.778 203.936C582.844 203.96 582.897 203.988 582.936 204.023C583.004 204.081 583.045 204.139 583.06 204.197C583.075 204.253 583.065 204.302 583.03 204.342C582.99 204.388 582.941 204.407 582.883 204.398C582.825 204.388 582.748 204.355 582.654 204.3C582.549 204.236 582.457 204.194 582.381 204.172C582.304 204.149 582.233 204.147 582.167 204.166C582.102 204.185 582.039 204.23 581.977 204.302C581.919 204.369 581.886 204.445 581.88 204.53C581.874 204.612 581.891 204.695 581.93 204.777C581.969 204.859 582.026 204.931 582.098 204.994ZM582.026 202.938C581.971 202.89 581.905 202.862 581.828 202.852C581.751 202.842 581.673 202.851 581.595 202.881C581.518 202.91 581.451 202.956 581.395 203.022C581.339 203.086 581.303 203.159 581.284 203.24C581.266 203.322 581.267 203.4 581.288 203.476C581.309 203.551 581.347 203.612 581.401 203.659L581.68 203.901L581.418 204.204C581.393 204.232 581.381 204.263 581.382 204.296C581.383 204.329 581.398 204.358 581.426 204.382C581.452 204.405 581.482 204.415 581.515 204.412C581.549 204.407 581.578 204.391 581.602 204.363L582.404 203.437C582.428 203.409 582.439 203.378 582.436 203.344C582.434 203.309 582.419 203.279 582.391 203.254L582.026 202.938ZM581.56 203.476C581.539 203.459 581.527 203.433 581.522 203.399C581.517 203.364 581.52 203.329 581.531 203.292C581.543 203.253 581.561 203.218 581.587 203.188C581.613 203.159 581.644 203.136 581.68 203.12C581.716 203.103 581.751 203.095 581.785 203.096C581.819 203.096 581.846 203.104 581.866 203.122L582.145 203.364L581.838 203.718L581.56 203.476ZM580.007 202.168C579.915 202.274 579.855 202.391 579.825 202.521C579.796 202.649 579.801 202.775 579.84 202.899C579.877 203.021 579.948 203.127 580.052 203.217C580.155 203.307 580.271 203.363 580.398 203.384C580.525 203.404 580.65 203.39 580.773 203.343C580.895 203.295 581.003 203.217 581.094 203.111C581.186 203.006 581.247 202.889 581.276 202.762C581.306 202.632 581.302 202.506 581.265 202.383C581.226 202.26 581.155 202.153 581.051 202.063C580.947 201.973 580.832 201.918 580.706 201.898C580.578 201.877 580.452 201.891 580.329 201.939C580.206 201.986 580.099 202.062 580.007 202.168ZM580.215 202.348C580.277 202.277 580.347 202.225 580.426 202.192C580.506 202.158 580.586 202.147 580.667 202.157C580.748 202.167 580.82 202.2 580.884 202.256C580.95 202.312 580.993 202.38 581.015 202.458C581.036 202.535 581.036 202.615 581.014 202.699C580.991 202.782 580.948 202.859 580.886 202.931C580.824 203.002 580.754 203.055 580.675 203.09C580.595 203.124 580.516 203.136 580.436 203.127C580.356 203.115 580.283 203.081 580.218 203.025C580.154 202.969 580.111 202.902 580.09 202.824C580.068 202.745 580.068 202.664 580.089 202.581C580.111 202.498 580.153 202.42 580.215 202.348ZM578.594 201.649C578.573 201.646 578.553 201.648 578.533 201.655C578.513 201.661 578.496 201.672 578.483 201.687C578.466 201.706 578.457 201.73 578.456 201.757C578.456 201.79 578.472 201.821 578.505 201.849C578.531 201.872 578.559 201.886 578.591 201.893C578.706 201.916 578.821 201.86 578.938 201.725C578.971 201.687 579.01 201.668 579.055 201.667C579.099 201.666 579.145 201.686 579.192 201.727L579.491 201.987L579.222 202.298C579.197 202.327 579.185 202.357 579.185 202.389C579.184 202.42 579.196 202.447 579.222 202.469C579.253 202.496 579.288 202.511 579.327 202.513C579.366 202.513 579.398 202.499 579.422 202.471L580.224 201.545C580.248 201.517 580.259 201.486 580.257 201.452C580.254 201.417 580.239 201.387 580.211 201.362L579.75 200.962C579.695 200.914 579.629 200.884 579.554 200.871C579.479 200.858 579.405 200.865 579.331 200.893C579.255 200.919 579.19 200.965 579.133 201.03C579.087 201.084 579.056 201.149 579.04 201.225C579.026 201.3 579.028 201.373 579.048 201.442C578.94 201.431 578.849 201.462 578.774 201.536C578.756 201.55 578.74 201.565 578.726 201.581C578.693 201.61 578.668 201.631 578.651 201.642C578.635 201.652 578.616 201.655 578.594 201.649ZM579.283 201.517C579.264 201.501 579.253 201.475 579.251 201.441C579.249 201.407 579.254 201.37 579.269 201.33C579.284 201.289 579.307 201.251 579.337 201.216C579.363 201.186 579.392 201.164 579.425 201.149C579.459 201.134 579.492 201.126 579.523 201.127C579.554 201.128 579.579 201.137 579.599 201.153L579.949 201.458L579.634 201.822L579.283 201.517ZM578.497 199.874C578.468 199.849 578.437 199.837 578.404 199.839C578.371 199.84 578.343 199.855 578.319 199.882C578.294 199.91 578.284 199.94 578.287 199.973C578.292 200.005 578.308 200.033 578.337 200.058L578.588 200.277L577.861 201.117C577.837 201.144 577.827 201.177 577.831 201.213C577.835 201.249 577.852 201.28 577.882 201.306C577.912 201.332 577.944 201.344 577.979 201.343C578.015 201.34 578.045 201.325 578.069 201.297L578.797 200.457L579.048 200.676C579.077 200.701 579.108 200.712 579.141 200.711C579.174 200.71 579.202 200.695 579.226 200.667C579.249 200.641 579.259 200.611 579.256 200.578C579.251 200.544 579.235 200.515 579.208 200.491L578.497 199.874Z" fill="#F3C042"/>
<path d="M511.163 153.322L515.622 144.737L528.826 149.029L524.368 157.957C523.853 159.159 524.368 160.533 525.568 161.048C538.087 167.057 552.491 174.44 564.152 179.934C564.495 179.934 571.869 182.509 574.613 182.338C575.47 182.338 576.328 181.994 577.185 181.651C578.043 181.308 579.243 180.621 579.929 180.106C580.615 179.419 581.815 179.934 581.644 180.793C581.472 181.651 579.586 183.54 576.671 184.57C573.756 185.6 578.386 187.317 579.929 188.004C581.644 188.69 586.617 190.922 586.788 191.609C587.131 192.639 586.103 193.154 584.388 192.468C582.673 191.781 577.7 190.064 577.357 190.922C577.014 191.781 585.588 195.043 585.588 195.043C585.588 195.043 587.474 195.386 587.131 196.417C586.617 198.305 577.871 194.185 577.014 193.841C576.499 193.498 576.156 194.528 576.671 194.871C577.357 195.215 585.245 197.962 584.731 199.85C584.388 201.396 577.528 196.588 575.47 196.932C573.584 197.275 580.958 200.022 580.615 201.396C580.444 201.911 580.272 202.254 576.156 200.022C573.241 198.477 565.524 192.468 561.923 190.407C555.921 187.489 527.969 176.5 518.537 171.865C510.477 167.916 507.734 159.846 511.163 153.322Z" fill="#F4C5B7"/>
<path d="M621.943 145.596L644.236 202.082H644.065C645.093 205.001 647.494 212.556 647.323 213.929C646.98 215.646 644.408 220.797 644.408 220.797C644.408 220.797 641.664 221.14 641.835 218.737C641.835 218.737 638.577 219.423 639.434 216.505C639.434 216.505 637.034 217.363 637.377 213.929C637.377 213.929 634.976 215.475 635.49 211.869L633.432 205.688L635.662 200.022L621.428 176.329C619.542 173.238 617.999 170.148 616.455 166.885L609.424 151.09L621.943 145.596Z" fill="#F2C3B5"/>
<path d="M575.127 84.3012C575.127 84.3012 573.07 92.8858 567.068 92.0274C561.409 91.1689 562.095 83.7861 562.095 83.7861L575.127 84.3012Z" fill="#F6C7B9"/>
<path d="M567.582 55.6284C554.891 55.6284 544.603 46.8653 544.603 36.0555C544.603 25.2456 554.891 16.4825 567.582 16.4825C580.273 16.4825 590.561 25.2456 590.561 36.0555C590.561 46.8653 580.273 55.6284 567.582 55.6284Z" fill="#473D40"/>
<path d="M542.888 44.125L539.115 39.4893C538.773 39.1459 539.116 38.6309 539.458 38.6309L545.117 38.1158L542.888 44.125Z" fill="#E9A28D"/>
<path d="M587.989 46.8722C587.817 63.8698 568.782 68.3338 555.75 69.5356C549.233 70.0507 544.089 65.2433 542.717 58.8907C541.345 52.8814 541.859 42.4081 541.859 42.4081C544.603 29.0161 552.834 20.7748 563.981 20.4315C579.586 20.2598 588.16 31.0764 587.989 46.8722Z" fill="#F4C5B7"/>
<path d="M557.807 69.3639L562.095 84.8162L575.127 84.3012L573.07 59.4057L557.807 69.3639Z" fill="#F4C5B7"/>
<path d="M557.807 69.3639L559.351 74.6864L573.07 59.4057L557.807 69.3639Z" fill="#EAB2A0"/>
<path d="M596.906 38.9743C587.646 16.9976 568.097 19.0579 567.925 19.0579C561.752 19.7447 557.121 25.2389 558.15 31.4198C559.179 37.2574 563.123 44.125 575.642 45.6703L573.241 65.2433C572.212 73.1412 590.047 71.7676 596.563 55.2851C598.621 49.9626 599.135 44.1251 596.906 38.9743Z" fill="#473D40"/>
<path d="M582.501 50.1344C581.815 53.0531 579.415 55.1135 577.014 54.5984C574.613 54.0833 573.07 51.3362 573.584 48.4174C574.27 45.4986 576.671 43.4383 579.072 43.9534C581.644 44.2968 583.187 47.2156 582.501 50.1344Z" fill="#F4C5B7"/>
<path opacity="0.66" d="M575.47 51.3362C575.47 51.3362 577.357 44.1251 579.243 47.0438C582.33 51.3362 577.871 49.4476 577.871 49.4476C577.871 49.4476 577.185 49.1042 575.47 51.3362Z" fill="#C9907E"/>
<path d="M556.607 46.7004C556.607 48.2456 554.721 49.4475 552.663 49.2758C550.605 49.1041 548.89 47.9022 549.062 46.1853C549.062 44.6401 550.948 43.4382 553.006 43.6099C554.892 43.7816 556.607 45.1552 556.607 46.7004Z" fill="#E9A28D"/>
<path d="M547.004 36.3989C547.004 36.3989 548.204 45.3269 556.607 39.146" stroke="#211914" stroke-width="0.5109" stroke-miterlimit="10"/>
<path d="M454.23 336.175L479.782 368.796L469.836 376.694L440.854 346.476L454.23 336.175Z" fill="#F4C5B7"/>
<path d="M473.437 384.935C473.437 384.935 467.606 401.246 470.864 408.286C470.864 408.286 489.213 383.733 492.129 378.926L472.751 357.465L461.261 369.483L473.437 384.935Z" fill="#060606"/>
<path d="M492.129 379.098L494.358 381.501L472.751 410.174L470.864 408.286L492.129 379.098Z" fill="#9D9392"/>
<path d="M380.32 203.971L386.494 296.685L444.799 359.525L464.691 335.659L423.877 275.739L414.274 219.939L380.32 203.971Z" fill="black"/>
<path d="M419.59 364.504L416.332 405.882L403.814 406.397L402.613 362.959L419.59 364.504Z" fill="#F4C5B7"/>
<path d="M400.212 409.144C400.212 409.144 384.779 416.87 382.206 424.253C382.206 424.253 412.388 419.274 417.875 417.729L418.733 388.884L402.099 389.743L400.212 409.144Z" fill="#060606"/>
<path d="M417.875 417.9L417.704 421.163L382.378 427L382.206 424.425L417.875 417.9Z" fill="#9D9392"/>
<path d="M380.32 203.971L401.584 231.614L395.582 363.302L424.392 365.706L439.826 203.971H380.32Z" fill="black"/>
<path d="M351.854 418.93C351.854 419.446 352.025 419.961 352.025 420.476C352.025 423.566 350.825 426.142 349.281 426.142C347.738 426.142 346.366 423.566 346.366 420.476C346.366 419.961 346.366 419.446 346.538 418.93H351.854Z" fill="#053142"/>
<path d="M313.441 419.102C313.441 419.617 313.612 420.132 313.612 420.647C313.612 423.738 312.412 426.313 310.869 426.313C309.325 426.313 307.953 423.738 307.953 420.647C307.953 420.132 307.953 419.617 308.125 419.102H313.441Z" fill="#053142"/>
<path d="M348.284 235.575L351.542 235.56L351.81 294.622L348.552 294.637L348.284 235.575Z" fill="#053142"/>
<path d="M305.928 235.919L309.186 235.904L309.454 294.966L306.196 294.981L305.928 235.919Z" fill="#053142"/>
<path d="M351.511 227.665V230.583V235.563L348.252 235.734V230.583L309.154 230.927V235.906H305.896V230.927V227.836L351.511 227.665Z" fill="#053142"/>
<path d="M341.222 295.827C341.222 295.827 327.674 287.929 315.327 295.827H341.222Z" stroke="#4C4985" stroke-width="0.5182" stroke-miterlimit="10"/>
<path d="M299.379 419.102L359.913 418.759C366.773 418.759 372.432 413.093 372.26 406.225L371.746 307.158C371.746 300.291 366.087 294.625 359.227 294.797L298.693 295.14C291.834 295.14 286.175 300.806 286.346 307.674L286.861 406.74C286.861 413.608 292.348 419.102 299.379 419.102Z" fill="#688890"/>
<path d="M355.112 294.797H359.227C366.087 294.797 371.746 300.291 371.746 307.158V309.734C367.459 308.704 359.399 305.27 355.112 294.797Z" fill="#4C4985"/>
<path d="M302.809 294.968H298.693C291.834 294.968 286.175 300.634 286.346 307.502V310.077C290.633 309.047 298.693 305.613 302.809 294.968Z" fill="#4C4985"/>
<path d="M355.626 418.759H359.742C366.601 418.759 372.26 413.093 372.089 406.225V403.65C367.973 404.68 359.742 408.286 355.626 418.759Z" fill="#4C4985"/>
<path d="M303.495 419.102H299.379C292.52 419.102 286.861 413.608 286.861 406.74V404.165C290.976 405.023 299.208 408.629 303.495 419.102Z" fill="#4C4985"/>
<path d="M308.639 333.084L349.624 332.912C352.71 332.912 355.111 330.337 355.111 327.247V319.52C355.111 316.43 352.539 314.026 349.452 314.026L308.467 314.198C305.38 314.198 302.98 316.773 302.98 319.864V327.59C302.98 330.68 305.552 333.084 308.639 333.084Z" fill="#4C4985"/>
<path d="M355.112 318.49C350.825 318.319 346.366 318.319 342.079 318.147H329.046L316.013 318.319C311.726 318.319 307.267 318.49 302.98 318.662C307.267 318.834 311.726 318.834 316.013 319.005H329.046L342.079 318.834C346.366 318.662 350.653 318.662 355.112 318.49Z" fill="white"/>
<path d="M309.497 400.044L349.453 399.873C352.883 399.873 355.626 397.126 355.626 393.692L355.455 350.94C355.455 347.506 352.711 344.759 349.281 344.759L309.325 344.931C305.896 344.931 303.152 347.678 303.152 351.112L303.323 393.863C303.323 397.469 306.067 400.216 309.497 400.044Z" fill="#4C4985"/>
<path d="M355.283 351.112C350.996 350.94 346.538 350.94 342.25 350.768H329.218L316.185 350.94C311.898 350.94 307.439 351.112 303.152 351.284C307.439 351.455 311.898 351.455 316.185 351.627H329.218L342.25 351.455C346.709 351.455 350.996 351.284 355.283 351.112Z" fill="white"/>
<path d="M323.216 231.27C324.759 228.695 330.246 221.999 332.304 218.737L362.314 141.99L375.862 147.999L357.17 189.377C355.798 192.468 354.254 195.558 352.368 198.477L347.395 207.061L342.593 215.474L339.507 220.625C338.992 223.372 339.335 228.866 339.335 230.412C339.335 231.27 339.507 231.957 339.85 232.815C340.193 233.674 340.707 234.876 341.222 235.391C341.736 236.078 341.222 237.108 340.536 236.936C339.678 236.764 338.135 235.047 337.277 232.3C336.42 229.553 334.705 233.674 334.019 235.219C333.333 236.764 331.104 241.228 330.418 241.4C329.561 241.572 329.046 240.713 329.732 239.168C330.418 237.623 332.133 233.159 331.447 232.815C330.589 232.472 327.331 240.198 327.331 240.198C327.331 240.198 326.988 241.915 325.959 241.572C324.245 241.057 328.36 233.159 328.703 232.3C329.046 231.785 328.189 231.442 327.846 231.957C327.503 232.472 324.759 239.683 323.044 239.168C321.672 238.653 326.302 232.644 326.131 230.927C325.788 229.21 323.044 235.906 321.844 235.391C321.329 235.047 320.986 234.876 323.216 231.27Z" fill="#F2C3B5"/>
<path d="M332.304 218.737C333.676 219.252 335.906 215.989 337.277 216.505C338.821 217.363 338.135 218.908 339.85 219.767C339.164 221.999 339.507 228.523 339.507 230.412C339.507 231.27 339.678 231.957 340.021 232.815C340.364 233.674 340.879 234.876 341.393 235.391C341.907 236.078 341.393 237.108 340.707 236.936C339.85 236.764 338.306 235.047 337.449 232.3C336.591 229.553 334.877 233.674 334.191 235.219C333.505 236.764 331.275 241.228 330.589 241.4C329.732 241.572 329.218 240.713 329.903 239.168C330.589 237.623 332.304 233.159 331.618 232.815C330.761 232.472 327.503 240.198 327.503 240.198C327.503 240.198 327.16 241.915 326.131 241.572C324.416 241.057 328.532 233.159 328.875 232.3C329.218 231.785 328.36 231.442 328.017 231.957C327.674 232.472 324.93 239.683 323.216 239.168C321.844 238.653 326.474 232.644 326.302 230.927C325.959 229.21 323.216 235.906 322.015 235.391C321.501 235.219 321.158 235.047 323.387 231.442C324.759 228.695 330.246 221.999 332.304 218.737Z" fill="#F2C3B5"/>
<path d="M404.157 151.776L437.596 164.653L434.51 148.171L450.629 147.484L460.232 182.853C462.119 188.519 456.117 193.67 450.801 190.579L399.869 161.735C401.584 158.472 402.956 155.039 404.157 151.776Z" fill="#F4C5B7"/>
<path d="M353.911 146.454C353.911 146.454 363.343 97.6933 369.517 83.7862C370.203 82.0692 371.746 80.8674 373.632 80.6957C380.492 79.8372 399.355 77.9486 420.276 78.807C422.334 78.807 424.392 79.6655 425.935 81.2108C434.51 89.452 446.513 106.45 458.517 157.614L436.567 153.15L444.97 244.491H373.804L374.147 154.18L353.911 146.454Z" fill="#9D9392"/>
<path d="M437.768 164.653L433.138 162.936C429.022 159.503 425.078 155.725 422.163 151.09C417.361 144.05 413.931 135.981 412.216 127.739C410.502 119.498 410.159 111.257 410.673 103.016C411.359 94.7744 412.559 86.8766 415.132 78.807H420.276C418.39 86.1898 417.361 95.6329 417.018 103.187C416.847 110.914 417.704 118.468 419.59 125.851C421.477 133.234 424.906 139.93 429.193 145.767C430.908 148.343 433.138 150.575 435.538 152.463L437.768 164.653Z" fill="black"/>
<path d="M365.229 104.389C366.944 95.9763 369.688 88.7652 373.289 80.8674L378.777 80.3523C375.862 87.7351 372.946 97.6932 371.746 105.763C370.545 113.832 370.031 121.902 370.888 129.628C371.403 133.749 372.26 137.869 373.632 141.647L374.49 162.078C372.946 160.189 371.574 158.129 370.546 155.897C366.258 147.828 364.029 139.071 363.343 130.315C362.486 121.387 363.515 112.802 365.229 104.389Z" fill="black"/>
<path d="M393.182 220.454L473.437 80.1805C479.953 68.8488 476.009 54.4266 464.691 47.9023C453.373 41.378 438.968 45.3269 432.452 56.6586L352.197 196.932C345.68 208.263 349.624 222.686 360.942 229.21C372.26 235.734 386.665 231.785 393.182 220.454Z" fill="#383635"/>
<path d="M379.12 182.509C379.806 182.853 380.835 182.681 381.178 181.994C381.521 181.308 381.349 180.277 380.663 179.934C379.977 179.591 378.948 179.762 378.605 180.449C378.091 181.136 378.262 182.166 379.12 182.509Z" fill="#E0E0E0"/>
<path d="M391.81 189.892C392.496 190.236 393.525 190.064 393.868 189.377C394.21 188.69 394.039 187.66 393.353 187.317C392.667 186.973 391.638 187.145 391.295 187.832C390.781 188.519 390.952 189.377 391.81 189.892Z" fill="#E0E0E0"/>
<path d="M371.231 196.073C371.917 196.417 372.946 196.245 373.289 195.558C373.632 194.871 373.461 193.841 372.775 193.498C372.089 193.154 371.06 193.326 370.717 194.013C370.374 194.7 370.546 195.73 371.231 196.073Z" fill="#E0E0E0"/>
<path d="M383.921 203.284C384.607 203.628 385.636 203.456 385.979 202.769C386.322 202.082 386.151 201.052 385.465 200.709C384.779 200.365 383.75 200.537 383.407 201.224C383.064 202.082 383.235 202.941 383.921 203.284Z" fill="#E0E0E0"/>
<path d="M436.396 83.9577C437.082 84.3011 438.111 84.1294 438.454 83.4426C438.797 82.7559 438.625 81.7257 437.939 81.3823C437.253 81.0389 436.224 81.2106 435.881 81.8974C435.538 82.5842 435.71 83.6143 436.396 83.9577Z" fill="#E0E0E0"/>
<path d="M449.086 91.1688C449.772 91.5122 450.801 91.3405 451.144 90.6537C451.487 89.9669 451.315 88.9368 450.629 88.5934C449.943 88.25 448.914 88.4217 448.571 89.1085C448.228 89.9669 448.4 90.8254 449.086 91.1688Z" fill="#E0E0E0"/>
<path d="M428.679 97.5215C429.365 97.8649 430.394 97.6932 430.737 97.0064C431.08 96.3196 430.908 95.2895 430.222 94.9461C429.536 94.6027 428.508 94.7744 428.165 95.4612C427.822 96.1479 427.993 97.0064 428.679 97.5215Z" fill="#E0E0E0"/>
<path d="M441.369 104.733C442.055 105.076 443.084 104.904 443.427 104.217C443.77 103.531 443.598 102.501 442.912 102.157C442.226 101.814 441.197 101.985 440.855 102.672C440.512 103.359 440.683 104.389 441.369 104.733Z" fill="#E0E0E0"/>
<path d="M382.378 146.282C383.578 144.737 389.923 149.029 390.438 149.373C390.952 149.716 391.467 148.858 390.952 148.686C390.266 148.343 382.378 144.222 383.407 142.677C384.093 141.818 385.293 143.02 385.293 143.02C385.293 143.02 392.324 147.484 392.839 146.797C393.353 146.111 389.237 143.363 387.866 142.505C386.494 141.647 386.322 140.616 387.18 140.445C387.866 140.273 392.324 142.677 393.696 143.535C395.068 144.394 398.841 146.797 397.983 144.05C397.126 141.303 397.469 138.899 397.983 138.384C398.498 137.869 399.527 138.384 399.527 139.243C399.355 139.93 399.698 141.131 399.869 141.99C400.041 142.848 400.384 143.535 400.727 144.222C401.584 145.595 404.5 150.231 406.386 152.12L429.708 162.936C432.795 164.31 435.881 165.855 438.797 167.572L453.201 175.985C450.629 179.591 446.513 183.024 444.113 186.802L401.413 157.786C397.812 156.24 389.58 154.008 386.837 152.807C382.892 151.09 383.064 150.746 383.407 150.231C384.264 149.201 390.266 152.978 389.58 151.433C388.723 149.716 381.521 147.312 382.378 146.282Z" fill="#F2C3B5"/>
<path d="M419.933 37.4291C419.933 37.4291 428.679 30.0463 424.22 23.3502C419.762 16.6542 420.791 8.92805 412.731 10.9884C404.843 13.0487 401.927 -6.696 391.81 2.40372C381.692 11.5034 371.917 4.97913 374.147 14.2505C376.376 23.522 364.886 26.269 370.203 29.8746C375.347 33.4801 372.775 36.914 377.919 37.0857C382.892 37.2574 419.933 37.4291 419.933 37.4291Z" fill="#222327"/>
<path d="M397.812 87.735C402.27 87.735 405.7 84.1295 405.7 79.8372L405.871 58.3755H389.923L389.752 79.6654C389.923 84.3012 393.353 87.735 397.812 87.735Z" fill="#EAB2A0"/>
<path d="M405.871 69.3639V80.1805C405.871 84.6446 402.27 88.0784 397.983 88.0784C393.525 88.0784 389.923 84.4729 390.095 80.0088V68.5054C392.667 70.2224 395.582 71.4242 398.498 71.4242C401.07 71.5959 403.642 70.7374 405.871 69.3639Z" fill="#F4C5B7"/>
<path d="M368.488 43.4384C369.174 46.5288 371.746 48.5891 374.318 48.0741C376.89 47.559 378.434 44.6402 377.748 41.5497C377.062 38.4593 374.49 36.3989 371.917 36.914C369.517 37.4291 367.973 40.3479 368.488 43.4384Z" fill="#F4C5B7"/>
<path opacity="0.66" d="M375.862 44.6402C375.862 44.6402 373.975 37.2574 371.917 40.1762C368.831 44.6402 373.289 42.7516 373.289 42.7516C373.289 42.7516 374.147 42.2365 375.862 44.6402Z" fill="#C9907E"/>
<path d="M428.165 43.4384C427.479 46.5288 424.906 48.5891 422.334 48.0741C419.762 47.559 418.218 44.6402 418.904 41.5497C419.59 38.4593 422.163 36.3989 424.735 36.914C427.307 37.4291 428.851 40.3479 428.165 43.4384Z" fill="#F4C5B7"/>
<path opacity="0.66" d="M420.962 44.6402C420.962 44.6402 422.849 37.2574 424.906 40.1762C427.993 44.6402 423.534 42.7516 423.534 42.7516C423.534 42.7516 422.677 42.2365 420.962 44.6402Z" fill="#C9907E"/>
<path d="M376.719 40.6912C376.547 51.3362 386.494 68.8488 398.498 68.8488C410.502 68.8488 419.762 52.023 420.276 40.6912C420.962 25.2389 410.502 12.5336 398.498 12.5336C386.494 12.5336 377.062 25.0672 376.719 40.6912Z" fill="#F4C5B7"/>
<path d="M396.954 43.0949L391.638 39.8328C391.295 39.6611 391.295 39.146 391.638 38.9743L396.954 36.5706V43.0949Z" fill="#E9A28D"/>
<path d="M379.977 37.2574C379.977 37.2574 384.436 45.4986 390.266 36.3989" stroke="#211914" stroke-width="0.5291" stroke-miterlimit="10"/>
<path d="M413.76 37.086C413.76 37.086 409.473 45.499 403.471 36.571" stroke="#211914" stroke-width="0.5291" stroke-miterlimit="10"/>
<path d="M420.105 37.4291C420.105 37.4291 414.274 30.0463 411.702 20.0881C411.702 20.0881 393.696 14.4222 389.752 18.8863C385.979 23.522 384.093 24.5521 381.178 25.0672C378.262 25.5823 381.349 33.9952 376.89 36.914C376.89 36.914 372.775 9.61484 397.983 10.9884C423.02 12.1902 424.049 26.7841 420.105 37.4291Z" fill="#222327"/>
<path d="M86.2228 222.857C87.4232 223.201 88.6236 223.544 89.6525 223.887L71.1321 299.261L67.5309 298.574L86.2228 222.857Z" fill="#688890"/>
<path d="M52.6117 414.123C54.1551 418.072 52.0972 422.536 48.1531 424.081C44.2089 425.627 39.7503 423.566 38.2069 419.617C36.6635 415.668 38.7214 411.204 42.6655 409.659C46.6097 408.114 51.0683 410.002 52.6117 414.123Z" fill="#9D9392"/>
<path d="M22.2588 408.286C23.8022 412.234 21.7443 416.698 17.8002 418.244C13.856 419.789 9.39742 417.729 7.85406 413.78C6.31069 409.831 8.36852 405.367 12.3127 403.822C16.4283 402.276 20.8869 404.165 22.2588 408.286Z" fill="#9D9392"/>
<path d="M23.6307 327.933L31.6905 329.822L13.1701 410.517L4.59587 408.629C1.50913 407.942 -0.548698 404.68 0.137243 401.589L16.5998 332.226C17.2858 329.135 20.5439 327.246 23.6307 327.933Z" fill="#467F80"/>
<path d="M77.3056 298.917L41.8081 293.08C36.8351 292.221 32.0335 295.483 30.8331 300.462L6.31073 409.316L53.1262 420.132L77.3056 298.917Z" fill="#DBD1BD"/>
<path d="M195.116 410.346C195.116 410.346 211.064 418.93 213.465 427C213.465 427 181.912 420.647 176.253 418.759L176.424 388.369L193.916 389.743L195.116 410.346Z" fill="#060606"/>
<path d="M131.152 408.972C131.152 408.972 115.204 417.729 112.975 425.798C112.975 425.798 144.356 419.102 150.187 417.213L149.672 386.824L132.181 388.369L131.152 408.972Z" fill="#060606"/>
<path d="M202.833 192.124L194.773 393.348H174.709L172.823 226.119L162.705 227.15L151.387 392.49L130.123 392.661L134.239 192.983L202.833 192.124Z" fill="#9D9392"/>
<path d="M298.007 178.904L332.99 167.744C334.877 167.229 335.734 165.168 335.22 163.452L331.275 150.918C330.761 149.029 328.703 148.171 326.988 148.686L292.005 159.846C290.119 160.361 289.261 162.421 289.776 164.138L293.72 176.672C294.235 178.389 296.292 179.419 298.007 178.904Z" fill="#F1F1F1"/>
<path opacity="0.03" d="M307.61 174.097C312.926 173.753 317.9 171.006 323.216 170.491C323.901 170.491 324.587 170.319 325.102 170.319L298.007 178.904C296.121 179.419 294.235 178.389 293.72 176.672L290.976 167.916C295.092 171.865 301.437 174.44 307.61 174.097Z" fill="#443D40"/>
<path d="M322.358 150.231L328.36 169.289" stroke="#4C4985" stroke-width="1.008" stroke-miterlimit="10"/>
<path d="M311.04 164.31L307.953 162.937L305.896 163.623L307.439 165.512L311.04 164.31Z" fill="#D8E8E0"/>
<path d="M313.098 167.744L309.154 168.946L307.782 172.723C307.782 172.723 309.84 172.38 310.354 171.865C311.212 171.178 313.098 167.744 313.098 167.744Z" fill="#D8E8E0"/>
<path d="M319.443 166.199C319.1 166.199 309.84 169.804 306.41 170.148C302.98 170.491 300.922 169.289 300.922 169.289C300.922 169.289 300.065 170.834 298.865 170.491L299.551 168.431L296.807 164.482C297.15 164.138 297.493 163.967 298.179 164.31C299.379 165.168 300.58 166.027 301.951 167.057C308.125 164.997 313.612 163.28 318.071 162.421C319.614 162.421 320.986 162.593 322.015 163.452C322.187 163.623 322.358 163.967 322.358 164.482C321.672 165.34 320.643 165.855 319.443 166.199Z" fill="#D8E8E0"/>
<path d="M320.472 150.918L317.557 156.756" stroke="#350D60" stroke-width="0.252" stroke-miterlimit="10" stroke-linecap="round"/>
<path d="M317.9 151.776L314.813 157.614" stroke="#350D60" stroke-width="0.252" stroke-miterlimit="10" stroke-linecap="round"/>
<path d="M315.327 152.635L312.241 158.472" stroke="#350D60" stroke-width="0.252" stroke-miterlimit="10" stroke-linecap="round"/>
<path d="M312.583 153.493L309.497 159.331" stroke="#350D60" stroke-width="0.252" stroke-miterlimit="10" stroke-linecap="round"/>
<path d="M327.16 153.837C327.331 154.352 327.846 154.524 328.36 154.352C328.875 154.18 329.046 153.665 328.875 153.15C328.703 152.635 328.189 152.463 327.674 152.635C327.16 152.807 326.988 153.322 327.16 153.837Z" fill="#FDEB9D"/>
<path d="M328.189 157.099C328.36 157.614 328.875 157.786 329.389 157.614C329.903 157.442 330.075 156.927 329.903 156.412C329.732 155.897 329.218 155.725 328.703 155.897C328.189 156.069 328.017 156.756 328.189 157.099Z" fill="#FDEB9D"/>
<path d="M329.218 160.533C329.389 161.048 329.904 161.22 330.418 161.048C330.932 160.876 331.104 160.361 330.932 159.846C330.761 159.331 330.246 159.159 329.732 159.331C329.389 159.503 329.046 160.018 329.218 160.533Z" fill="#FDEB9D"/>
<path d="M301.265 171.349L295.092 173.41" stroke="#DBD1BD" stroke-width="0.252" stroke-miterlimit="10" stroke-linecap="round"/>
<path d="M301.437 172.38L295.435 174.44" stroke="#DBD1BD" stroke-width="0.252" stroke-miterlimit="10" stroke-linecap="round"/>
<path d="M301.78 173.41L295.606 175.298" stroke="#DBD1BD" stroke-width="0.252" stroke-miterlimit="10" stroke-linecap="round"/>
<path d="M302.123 174.44L295.949 176.329" stroke="#DBD1BD" stroke-width="0.252" stroke-miterlimit="10" stroke-linecap="round"/>
<path d="M302.466 175.298L296.292 177.359" stroke="#DBD1BD" stroke-width="0.252" stroke-miterlimit="10" stroke-linecap="round"/>
<path d="M293.72 148.686C293.72 148.686 307.267 147.141 309.154 147.999C311.04 148.858 316.013 152.978 316.013 152.978C316.013 152.978 315.67 156.069 313.098 155.21C313.098 155.21 313.098 158.816 310.011 157.271C310.011 157.271 310.354 160.018 306.753 158.987C306.753 158.987 307.782 162.078 304.009 160.533L296.635 161.219L289.947 156.755L293.72 148.686Z" fill="#F2C3B5"/>
<path d="M293.72 148.686L258.566 154.695L258.051 166.37L289.776 156.412L293.72 148.686Z" fill="#F2C3B5"/>
<path d="M216.38 170.148L281.202 164.997L279.83 149.373L227.355 153.493L202.661 90.3104L183.626 90.6538L216.38 170.148Z" fill="white"/>
<path d="M88.6237 209.294C88.6237 209.294 79.0204 218.737 78.6775 220.282C78.506 221.827 79.3634 227.15 79.3634 227.15C79.3634 227.15 81.7642 228.523 82.2787 226.463C82.2787 226.463 85.0225 228.351 85.1939 225.604C85.1939 225.604 87.2517 227.321 87.9377 224.402C87.9377 224.402 89.824 226.634 90.3385 223.372L94.1112 219.08L94.2826 213.757L104.572 195.73L98.5698 191.609L88.6237 209.294Z" fill="#F2C3B5"/>
<path d="M136.468 90.3104C136.468 90.3104 105.944 176.5 89.824 201.567L100.971 208.263L137.84 137.869L136.468 90.3104Z" fill="white"/>
<path d="M199.746 90.3104L136.468 90.6538L133.381 194.013L203.176 193.498L199.746 90.3104Z" fill="white"/>
<path d="M169.05 77.9486C156.643 77.9486 146.586 66.5719 146.586 52.538C146.586 38.5042 156.643 27.1275 169.05 27.1275C181.457 27.1275 191.515 38.5042 191.515 52.538C191.515 66.5719 181.457 77.9486 169.05 77.9486Z" fill="black"/>
<path d="M160.476 92.7142V75.5449H176.424V92.7142C176.424 97.1782 172.823 100.612 168.536 100.612C163.906 100.612 160.476 97.0065 160.476 92.7142Z" fill="#EAB2A0"/>
<path d="M160.476 92.7142V85.8465C163.048 87.5634 165.964 88.7653 168.879 88.7653C171.451 88.7653 174.023 87.9068 176.253 86.5333V92.7142C176.253 97.1782 172.651 100.612 168.364 100.612C163.906 100.612 160.476 97.0065 160.476 92.7142Z" fill="#F4C5B7"/>
<path d="M139.04 60.4359C139.726 63.5264 142.299 65.5867 144.871 65.0716C147.443 64.5565 148.986 61.6378 148.301 58.5473C147.615 55.4568 145.042 53.3965 142.47 53.9116C139.898 54.4267 138.354 57.3454 139.04 60.4359Z" fill="#F4C5B7"/>
<path opacity="0.66" d="M146.243 61.8094C146.243 61.8094 144.356 54.4266 142.299 57.3454C139.212 61.8094 143.67 59.9208 143.67 59.9208C143.67 59.9208 144.528 59.4057 146.243 61.8094Z" fill="#C9907E"/>
<path d="M198.546 60.4359C197.86 63.5264 195.288 65.5867 192.715 65.0716C190.143 64.5565 188.6 61.6378 189.286 58.5473C189.971 55.4568 192.544 53.3965 195.116 53.9116C197.688 54.4267 199.232 57.3454 198.546 60.4359Z" fill="#F4C5B7"/>
<path opacity="0.66" d="M191.343 61.8094C191.343 61.8094 193.23 54.4266 195.287 57.3454C198.374 61.8094 193.916 59.9208 193.916 59.9208C193.916 59.9208 193.058 59.4057 191.343 61.8094Z" fill="#C9907E"/>
<path d="M147.1 57.6888C146.929 68.3338 156.875 85.8464 168.879 85.8464C180.883 85.8464 190.143 69.0205 190.657 57.6888C191.343 42.2364 180.883 29.5312 168.879 29.5312C156.875 29.5312 147.443 42.0648 147.1 57.6888Z" fill="#F4C5B7"/>
<path d="M167.335 60.0925L162.019 56.8303C161.676 56.6586 161.676 56.1436 162.019 55.9719L167.335 53.5682V60.0925Z" fill="#E9A28D"/>
<path d="M178.825 54.2549C178.825 54.9417 179.168 55.4568 179.682 55.4568C180.025 55.4568 180.368 54.9417 180.368 54.2549C180.368 53.5682 180.025 53.0531 179.511 53.0531C179.168 53.0531 178.825 53.5682 178.825 54.2549Z" fill="#0C1023" stroke="#0C1023" stroke-width="0.231" stroke-miterlimit="10"/>
<path d="M156.703 54.2549C156.703 54.9417 157.046 55.4568 157.561 55.4568C157.904 55.4568 158.247 54.9417 158.247 54.2549C158.247 53.5682 157.904 53.0531 157.389 53.0531C157.046 53.0531 156.703 53.5682 156.703 54.2549Z" fill="#0C1023" stroke="#0C1023" stroke-width="0.231" stroke-miterlimit="10"/>
<path d="M183.969 40.1761C183.969 40.1761 180.883 52.7097 191.343 54.2549C191.343 54.2549 193.916 42.9232 190.143 38.9743C190.143 38.9743 187.228 20.2597 165.449 22.1484C165.449 22.1484 151.73 24.037 150.873 32.2783C150.873 32.2783 139.212 42.0647 147.1 54.4266C147.1 54.4266 154.131 50.4777 154.988 41.2063C155.16 41.2063 177.625 41.2063 183.969 40.1761Z" fill="#03071D"/>
</g>
<defs>
<clipPath id="clip0_2_78">
<rect width="777" height="427" fill="white" transform="matrix(-1 0 0 1 777 0)"/>
</clipPath>
</defs>
</svg>
