<svg width="684" height="425" viewBox="0 0 684 425" fill="none" xmlns="http://www.w3.org/2000/svg">
<g clip-path="url(#clip0_2_467)">
<path d="M188.162 375.874L176.901 390.217C176.901 390.217 191.847 407.018 186.933 405.379C182.019 403.74 154.379 381.611 154.379 381.611C154.379 381.611 167.687 363.785 167.482 363.581C167.278 363.581 188.162 375.874 188.162 375.874Z" fill="#635449"/>
<path d="M204.541 267.894L157.245 367.678L187.343 384.685L236.482 295.35L233.411 265.845L204.541 267.894Z" fill="#7DADB2"/>
<g opacity="0.36">
<path opacity="0.36" d="M160.93 369.727C160.93 369.727 161.135 369.318 161.545 368.703C161.954 368.088 162.364 367.064 162.978 366.039C163.592 364.81 164.411 363.376 165.23 361.737C166.049 360.097 167.073 358.048 168.301 355.999C172.806 347.599 179.153 335.715 186.114 322.806C193.076 309.898 199.423 298.219 203.722 289.613C204.746 287.565 205.77 285.516 206.589 283.876C207.408 282.237 208.022 280.598 208.636 279.369C209.251 278.139 209.66 277.115 209.865 276.5C210.07 275.885 210.274 275.476 210.274 275.476C210.274 275.476 210.07 275.885 209.66 276.5C209.251 277.115 208.841 278.139 208.227 279.164C207.613 280.393 206.794 281.827 205.975 283.467C205.156 285.106 204.132 287.155 202.903 289.204C198.399 297.604 192.052 309.488 185.09 322.397C178.129 335.305 171.987 346.984 167.482 355.59C166.459 357.639 165.435 359.688 164.616 361.327C163.797 362.966 163.183 364.605 162.568 365.834C161.954 367.064 161.545 368.088 161.34 368.703C160.93 369.318 160.93 369.727 160.93 369.727Z" fill="#154593"/>
</g>
<path opacity="0.23" d="M212.322 339.198L210.07 343.091L201.47 274.451L203.518 269.944L211.503 269.739L214.574 302.112L212.322 339.198Z" fill="#154593"/>
<path d="M82.1033 299.038L46.8869 420.336H42.7919L69.8185 298.629L82.1033 299.038Z" fill="#AD9380"/>
<path d="M145.984 299.653L173.01 418.287H168.097L132.061 299.448L145.984 299.653Z" fill="#AD9380"/>
<path d="M114.453 296.785L110.358 418.287H104.83L102.373 297.194L114.453 296.785Z" fill="#AD9380"/>
<path d="M147.212 347.599L66.5425 345.14L65.9283 353.541L153.355 356.819L147.212 347.599Z" fill="#AD9380"/>
<path opacity="0.15" d="M145.984 299.448L147.212 305.595H133.904L132.266 299.448H145.984Z" fill="#00143A"/>
<path opacity="0.15" d="M114.453 299.653L114.248 305.595H102.373V298.629L114.453 299.653Z" fill="#00143A"/>
<path opacity="0.15" d="M112.815 346.165L112.61 354.77H117.729L119.776 346.369L111.587 346.165" fill="#00143A"/>
<path opacity="0.15" d="M102.373 346.369V354.975L98.4829 354.77L97.4592 346.165L102.373 346.369Z" fill="#00143A"/>
<path opacity="0.15" d="M82.1033 297.194L80.8748 301.497H68.7947L69.8185 296.785L82.1033 297.194Z" fill="#00143A"/>
<path d="M173.829 290.228C162.364 284.696 115.886 287.564 115.886 287.564C115.886 287.564 128.99 124.878 111.996 123.443C95.0022 122.214 56.7147 109.92 49.7533 134.508C42.3825 160.325 52.2103 298.629 62.0381 297.399C84.1507 294.326 152.536 302.317 173.01 297.399C178.334 296.17 173.829 290.228 173.829 290.228Z" fill="#FCE8CF"/>
<g opacity="0.23">
<path opacity="0.23" d="M64.495 137.376C64.495 137.376 64.0855 137.786 63.4713 138.606C63.2665 139.015 62.857 139.63 62.4476 140.245C62.0381 140.86 61.6286 141.679 61.2191 142.704C59.5811 146.392 57.9431 152.129 57.1241 159.095C56.3052 166.267 56.3052 174.667 56.5099 184.092C56.7147 193.518 57.3289 203.762 58.1479 214.622C58.9669 225.481 59.9906 235.726 61.0144 245.151C62.0381 254.576 62.857 262.977 64.2903 269.943C65.5187 276.91 67.1567 282.442 68.5899 286.335C70.0232 290.023 71.0469 292.072 71.0469 292.072C71.2517 292.072 70.4326 290.023 69.4089 286.13C68.3852 282.237 66.952 276.705 65.9283 269.739C64.9045 262.772 64.0855 254.371 63.2665 244.946C62.4475 235.521 61.4238 225.276 60.6049 214.622C59.7859 203.762 59.1716 193.518 58.7622 184.297C58.5574 174.872 58.3527 166.471 58.9669 159.505C59.5811 152.539 60.8096 147.006 62.2428 143.318C63.676 139.425 64.6998 137.581 64.495 137.376Z" fill="#2B4C60"/>
</g>
<path d="M236.277 195.976L240.577 193.723C240.577 193.723 243.238 192.698 247.743 190.034C248.971 189.42 249.995 188.395 250.814 187.371C251.838 186.141 253.271 184.502 253.68 183.273C254.295 181.839 256.137 181.839 256.547 183.068C256.752 184.297 255.318 188.19 251.838 191.674C248.357 195.157 255.728 194.132 258.594 193.723C261.256 193.313 269.855 192.698 270.47 193.518C271.493 194.542 270.47 195.976 267.603 196.386C264.941 196.591 256.752 198.025 256.752 199.46C256.956 200.894 270.674 199.05 270.674 199.05C270.674 199.05 273.541 198.23 273.746 199.869C274.155 202.738 259.209 203.762 257.775 203.762C256.752 203.762 256.956 205.402 257.98 205.197C259.004 205.197 271.903 202.943 272.108 206.016C272.312 208.27 260.028 206.836 257.366 208.68C254.909 210.524 266.989 208.885 267.194 210.934C267.194 211.753 267.194 212.368 260.232 212.368C253.066 212.368 233.82 209.295 233.82 209.295L236.686 195.567" fill="#F6BA99"/>
<path d="M141.275 137.991C141.275 137.991 177.515 186.756 185.91 189.01C194.304 191.264 241.805 194.132 241.805 194.132L246.105 214.827C246.105 214.827 185.09 218.105 171.782 208.065C150.693 192.493 128.581 156.637 128.581 156.637C127.966 144.753 132.471 138.811 141.275 137.991Z" fill="#EF6C74"/>
<path d="M239.962 393.7L237.71 411.731C237.71 411.731 259.209 418.492 254.09 419.722C248.971 420.951 213.96 415.829 213.96 415.829C213.96 415.829 216.417 393.7 216.007 393.7C215.802 393.7 239.962 393.7 239.962 393.7Z" fill="#635449"/>
<path d="M92.75 229.374C92.75 229.374 72.4801 272.607 112.406 287.565L133.699 241.258L92.75 229.374Z" fill="#A0D2DB"/>
<path d="M120.391 240.848C120.391 240.848 235.663 209.295 248.562 235.726C261.461 262.362 246.105 400.667 246.105 400.667L210.069 396.774C210.069 396.774 216.007 275.271 210.069 270.968C204.132 266.665 121.005 287.769 112.406 287.36C91.112 286.54 76.1655 246.995 120.391 240.848Z" fill="#A0D2DB"/>
<path d="M118.138 125.083C133.29 125.492 145.574 137.376 146.189 152.539C146.803 165.037 145.574 182.453 149.055 197.615C150.898 205.401 160.93 236.955 160.93 236.955L150.693 238.594C134.928 241.258 118.753 240.439 103.192 236.341L91.5215 233.267C91.5215 233.267 84.7648 198.23 81.0794 165.447C78.0082 137.991 83.1269 127.336 99.7113 125.083H118.138Z" fill="#EF6C74"/>
<path d="M125.919 126.927C125.509 124.263 126.328 112.994 126.328 112.994C126.328 112.994 136.566 111.764 136.975 101.52C137.385 91.275 136.361 67.9169 136.361 67.9169L117.524 59.1064L97.4591 75.0882L95.6164 86.3575L100.326 99.6757L102.373 125.083L125.919 126.927Z" fill="#F6BA99"/>
<path d="M117.729 84.1035C118.138 84.5133 118.343 85.128 117.934 85.5378C117.524 85.9476 116.91 86.1525 116.5 85.7427C116.091 85.3329 115.886 84.7182 116.296 84.3084C116.501 83.8986 117.115 83.6937 117.729 84.1035Z" fill="#00143A"/>
<path d="M119.572 83.6939C119.367 83.8987 118.343 83.0792 117.115 83.0792C115.682 83.0792 114.658 83.6939 114.453 83.489C114.453 83.489 114.453 83.0792 115.067 82.6694C115.477 82.2596 116.296 82.0547 117.115 82.0547C117.934 82.0547 118.753 82.4645 119.162 82.8743C119.572 83.2841 119.572 83.489 119.572 83.6939Z" fill="#00143A"/>
<path d="M134.518 84.1035C134.928 84.5133 135.132 85.128 134.723 85.5378C134.313 85.9476 133.699 86.1525 133.29 85.7427C132.88 85.3329 132.675 84.7182 133.085 84.3084C133.29 83.8986 133.904 83.6937 134.518 84.1035Z" fill="#00143A"/>
<path d="M136.361 83.6939C136.156 83.8987 135.132 83.0792 133.904 83.0792C132.471 83.0792 131.447 83.6939 131.242 83.489C131.242 83.489 131.242 83.0792 131.856 82.6694C132.266 82.2596 133.085 82.0547 133.904 82.0547C134.723 82.0547 135.542 82.4645 135.951 82.8743C136.361 83.2841 136.566 83.489 136.361 83.6939Z" fill="#00143A"/>
<path d="M125.509 95.7827C125.509 95.7827 126.328 95.7827 127.762 95.7827C127.966 95.7827 128.171 95.7827 128.376 95.7827C128.581 95.7827 128.785 95.5778 128.99 95.3729C129.195 94.7582 128.99 94.3485 128.785 93.9387C128.581 93.1191 128.171 92.0946 127.762 91.0701C127.147 89.0212 126.328 87.1771 125.919 85.9478C125.509 84.7184 125.1 83.8988 125.1 83.8988C125.1 83.8988 125.305 84.7184 125.714 86.1526C126.124 87.5869 126.738 89.431 127.557 91.4799C127.966 92.5044 128.171 93.5289 128.581 94.3484C128.785 94.7582 128.99 95.168 128.785 95.5778C128.785 95.7827 128.376 95.9876 127.966 95.9876C126.533 95.5778 125.509 95.7827 125.509 95.7827Z" fill="#00143A"/>
<g opacity="0.52">
<path opacity="0.52" d="M119.162 92.5043C119.162 93.7337 117.32 94.5533 115.272 94.5533C113.02 94.5533 111.382 93.9386 111.177 92.7092C111.177 91.4799 112.815 90.4554 115.067 90.2505C117.32 90.2505 119.162 91.275 119.162 92.5043Z" fill="#F2957E"/>
</g>
<path d="M121.005 97.217C119.572 96.3974 124.895 99.4708 127.762 99.4708C127.762 99.4708 126.124 102.134 123.257 100.905C120.186 99.6757 121.005 97.217 121.005 97.217Z" fill="#F3F0EB"/>
<path d="M126.328 112.994C126.328 112.994 119.572 113.199 112.815 108.691C112.815 108.691 116.091 116.067 126.124 115.453L126.328 112.994Z" fill="#F2957E"/>
<path d="M148.646 230.604L153.355 230.399C153.355 230.399 156.221 230.604 161.34 229.989C162.773 229.784 164.002 229.374 165.23 228.964C166.663 228.35 168.711 227.325 169.53 226.506C170.554 225.481 172.396 226.096 172.191 227.53C171.987 228.76 168.916 231.628 164.206 233.472C159.497 235.111 166.663 237.365 169.325 238.185C171.987 239.004 179.972 242.078 180.177 242.897C180.586 244.332 178.948 245.151 176.491 244.127C173.829 243.307 165.844 241.053 165.435 242.283C165.025 243.512 178.334 247.815 178.334 247.815C178.334 247.815 181.405 248.225 180.791 249.864C179.767 252.732 166.049 247.2 164.821 246.79C164.002 246.38 163.387 247.815 164.411 248.225C165.435 248.634 177.924 252.118 176.901 254.986C176.286 257.24 165.435 250.683 162.364 251.298C159.292 251.913 171.168 255.396 170.349 257.445C170.144 258.264 169.735 258.674 163.387 255.806C156.836 252.732 140.661 241.873 140.661 241.873L148.85 230.604" fill="#F6BA99"/>
<g opacity="0.35">
<path opacity="0.35" d="M102.373 252.937C102.373 253.142 104.011 252.118 106.877 250.683C109.539 249.249 113.429 247.405 117.729 245.766C122.029 244.127 126.124 243.102 129.195 242.283C132.266 241.668 134.109 241.258 134.109 241.053C134.109 240.848 132.266 241.053 129.195 241.463C126.124 242.078 122.029 242.897 117.524 244.536C113.02 246.176 109.334 248.225 106.673 249.659C103.806 251.708 102.168 252.732 102.373 252.937Z" fill="#154593"/>
</g>
<g opacity="0.35">
<path opacity="0.35" d="M97.0497 246.381C97.0497 246.585 100.53 245.766 104.625 245.971C108.925 246.176 112.201 247.2 112.201 246.79C112.406 246.585 108.925 244.946 104.625 244.946C100.326 244.946 97.0497 246.176 97.0497 246.381Z" fill="#154593"/>
</g>
<path opacity="0.36" d="M134.109 239.824C134.109 239.824 111.382 233.267 97.0496 219.949C85.5838 209.295 85.7885 199.255 85.7885 199.255L80.4652 157.661L134.109 239.824Z" fill="#2B4C60"/>
<g opacity="0.36">
<path opacity="0.36" d="M98.2781 281.623C98.2781 281.623 98.4829 281.622 98.8924 281.418C99.3019 281.418 99.9161 281.213 100.735 281.008C102.373 280.598 104.83 279.983 108.106 279.369C114.453 277.934 123.667 275.681 135.132 273.222C146.598 270.763 160.111 267.895 175.263 265.231C182.838 263.797 190.823 262.362 199.218 261.133C201.265 260.723 203.313 260.518 205.565 260.109C207.613 259.699 209.865 259.494 211.912 259.699C213.96 259.904 216.007 260.723 217.44 262.362C218.874 263.797 219.693 265.846 220.307 267.895C220.921 269.943 221.331 272.197 221.535 274.246C221.74 276.5 222.15 278.549 222.354 280.803C222.559 283.057 222.764 285.106 222.969 287.155C223.173 289.204 223.378 291.457 223.378 293.506C223.992 301.907 224.197 309.898 224.197 317.684C224.197 333.051 223.378 346.984 222.559 358.663C221.74 370.342 220.921 379.767 220.307 386.324C220.102 389.602 219.897 392.061 219.693 393.905C219.693 394.725 219.488 395.339 219.488 395.954C219.488 396.364 219.488 396.569 219.488 396.569C219.488 396.569 219.488 396.364 219.693 395.954C219.693 395.544 219.897 394.929 219.897 394.11C220.102 392.471 220.307 389.807 220.716 386.529C221.331 379.972 222.354 370.547 223.173 358.868C223.992 347.189 224.811 333.256 225.016 317.889C225.016 310.103 224.811 302.112 224.197 293.711C223.992 291.662 223.992 289.409 223.788 287.36C223.583 285.311 223.378 283.057 223.173 281.008C222.969 278.754 222.559 276.705 222.354 274.451C222.15 272.197 221.74 269.943 221.126 267.895C220.512 265.641 219.488 263.592 218.055 261.953C217.236 261.133 216.212 260.313 215.188 259.904C214.164 259.494 212.936 259.084 211.912 259.084C209.66 258.879 207.408 259.084 205.36 259.494C203.313 259.904 201.061 260.109 199.013 260.518C190.619 261.953 182.634 263.387 175.058 264.616C159.907 267.485 146.189 270.353 134.928 272.812C123.462 275.476 114.248 277.729 108.106 279.369C105.035 280.188 102.578 280.803 100.735 281.213C99.9161 281.418 99.3019 281.623 98.8924 281.827C98.4829 281.418 98.2781 281.623 98.2781 281.623Z" fill="#154593"/>
</g>
<g opacity="0.36">
<path opacity="0.36" d="M209.865 270.763C210.07 270.968 211.912 269.534 213.96 267.69C214.164 267.485 214.369 267.28 214.779 267.075L214.164 266.46C212.731 268.099 211.708 269.534 211.708 269.738C211.912 269.943 213.141 268.714 214.779 267.075L214.164 266.46C213.96 266.665 213.755 266.87 213.345 267.075C211.093 268.919 209.66 270.558 209.865 270.763Z" fill="#154593"/>
</g>
<g opacity="0.36">
<path opacity="0.36" d="M209.251 270.763C209.455 270.763 210.07 268.919 210.684 266.46C211.298 264.001 211.298 261.953 211.093 261.953C210.888 261.953 210.274 263.797 209.66 266.255C209.046 268.714 208.841 270.763 209.251 270.763Z" fill="#154593"/>
</g>
<path d="M102.578 128.156C102.578 128.156 106.877 188.805 112.815 195.157C118.753 201.508 157.245 229.579 157.245 229.579L149.669 249.249C149.669 249.249 96.6401 219.129 90.7025 203.557C83.5364 184.707 82.1031 155.407 81.8984 142.908C81.8984 137.581 83.9458 132.459 88.0407 129.18C92.5452 125.697 97.4591 125.492 102.578 128.156Z" fill="#EF6C74"/>
<g opacity="0.23">
<path opacity="0.23" d="M73.0944 291.867C73.2991 292.482 83.7412 290.843 96.845 289.818C109.949 288.794 120.595 288.589 120.595 287.974C120.595 287.359 109.949 286.335 96.6402 287.564C83.5364 288.589 73.0944 291.252 73.0944 291.867Z" fill="#2B4C60"/>
</g>
<g opacity="0.23">
<path opacity="0.23" d="M77.1892 185.117C77.394 185.117 77.5987 185.117 77.8035 184.502C78.0082 183.888 77.5987 182.863 76.7797 182.248C76.3702 181.839 75.756 181.634 74.937 181.634C74.5275 181.634 74.118 181.839 73.9133 182.044C73.5038 182.248 73.2991 182.453 73.0943 182.863C72.0706 184.093 71.8658 185.732 72.2753 187.371C72.8896 189.01 74.118 190.239 75.756 190.444C76.1655 190.444 76.575 190.444 76.9845 190.444C77.394 190.444 77.8035 190.239 78.0082 190.034C78.6225 189.625 79.032 189.215 79.2367 188.6C79.6462 187.576 79.6462 186.551 79.2367 186.141C78.8272 185.527 78.4177 185.527 78.4177 185.732C78.213 185.937 78.4177 186.141 78.4177 186.551C78.4177 186.961 78.2129 187.371 77.8035 187.781C77.5987 187.986 77.394 188.19 77.1892 188.19C76.9845 188.19 76.9845 188.19 76.7797 188.19C76.575 188.19 76.3703 188.19 76.3703 188.19C75.756 187.986 74.937 187.371 74.7323 186.346C74.5275 185.527 74.5275 184.502 74.937 183.888C75.3465 183.273 75.756 183.273 76.3703 183.273C76.9845 183.478 77.1893 183.888 77.394 184.093C76.9845 184.707 76.9845 185.117 77.1892 185.117Z" fill="#2B4C60"/>
</g>
<path d="M104.83 147.416C104.625 147.416 104.625 148.851 104.625 151.309C104.625 153.768 104.625 157.456 105.035 161.964C105.444 166.471 105.854 171.799 107.287 177.741C108.72 183.683 110.972 190.034 114.658 195.976C118.548 201.918 123.462 206.426 128.171 210.114C132.88 213.802 137.385 216.876 141.07 219.334C148.441 224.457 152.741 227.94 152.945 227.735C152.945 227.735 152.126 226.506 150.284 224.867C148.441 223.227 145.574 220.769 141.889 218.105C138.204 215.441 133.904 212.368 129.399 208.475C124.895 204.787 120.186 200.279 116.5 194.542C112.815 188.805 110.563 182.863 109.13 177.126C107.696 171.389 106.877 166.062 106.468 161.759C105.444 152.948 105.035 147.416 104.83 147.416Z" fill="#AF4A54"/>
<path d="M117.115 128.361L116.296 119.346L101.554 116.682L97.0496 126.312L117.115 128.361Z" fill="#AF4A54"/>
<path d="M126.328 118.321L120.595 119.346V128.361L127.966 126.927L126.124 116.682" fill="#AF4A54"/>
<path d="M140.456 218.515C140.456 218.515 140.456 218.105 140.251 217.49C140.046 216.671 139.842 215.851 139.432 214.827C138.613 212.368 137.589 209.09 136.361 205.197C133.904 197.001 130.423 185.527 127.352 172.823C124.281 160.12 122.029 148.441 120.595 140.04C119.981 135.942 119.367 132.459 118.957 130C118.753 128.976 118.548 127.951 118.548 127.336C118.343 126.722 118.343 126.312 118.343 126.312C118.343 126.312 118.343 126.722 118.343 127.336C118.343 128.156 118.548 128.976 118.548 130C118.753 132.459 119.162 135.942 119.981 140.04C121.21 148.646 123.462 160.325 126.328 173.028C129.4 185.732 132.88 197.206 135.542 205.402C136.975 209.499 137.999 212.778 139.023 215.032C139.432 216.056 139.842 216.876 140.046 217.695C140.456 218.31 140.456 218.515 140.456 218.515Z" fill="#AF4A54"/>
<path d="M147.417 188.805C147.622 188.805 146.393 182.453 145.37 174.872C144.346 167.086 144.346 160.734 143.936 160.734C143.732 160.734 143.732 162.374 143.732 164.832C143.732 167.496 143.936 170.979 144.346 174.872C144.755 178.765 145.574 182.248 146.189 184.707C146.803 187.166 147.417 188.805 147.417 188.805Z" fill="#AF4A54"/>
<path d="M246.105 214.827L241.805 194.132L233.82 193.518L238.325 215.237L246.105 214.827Z" fill="#AF4A54"/>
<path d="M149.669 249.249L158.064 227.735L150.284 224.866L143.322 245.561L149.669 249.249Z" fill="#AF4A54"/>
<path d="M-6.10352e-05 224.457H371V236.546H-6.10352e-05V224.457Z" fill="#AD9380"/>
<path d="M341.926 236.546L371 419.107L356.463 419.517L306.71 236.546H341.926Z" fill="#AD9380"/>
<path d="M27.0265 234.497L10.0326 423H23.7506L60.1953 242.488L62.0381 228.964L27.0265 234.497Z" fill="#AD9380"/>
<path opacity="0.15" d="M61.0143 236.546L59.581 244.946L26.2075 243.717L26.8217 236.546H61.0143Z" fill="#00143A"/>
<path opacity="0.15" d="M341.926 236.546L343.359 245.151L308.757 244.127L306.71 236.546H341.926Z" fill="#00143A"/>
<path opacity="0.23" d="M315.104 155.817L175.467 101.52L102.578 104.183L103.806 155.817L188.776 219.744L236.482 217.695L315.104 155.817Z" fill="url(#paint0_linear_2_467)"/>
<path d="M315.514 156.841L292.377 224.457H187.752L188.366 220.973L230.749 219.744L250.2 156.841H315.514Z" fill="#B4CCE9"/>
<path d="M269.036 189.625C268.422 192.493 269.446 195.157 271.698 195.771C273.95 196.386 276.203 194.542 276.817 191.878C277.431 189.01 276.407 186.346 274.155 185.731C272.108 185.117 269.651 186.756 269.036 189.625Z" fill="#F3F0EB"/>
<path d="M67.3614 203.557C70.4326 192.903 71.8658 178.15 72.6848 167.291C72.8895 165.037 72.8896 162.988 72.2753 160.939C71.4563 158.89 69.6136 157.251 67.5661 157.251C65.7234 157.251 64.0854 158.48 63.2665 160.12C62.2427 161.759 62.038 163.603 61.6285 165.242C59.5811 175.487 57.7384 185.527 55.6909 195.771C53.8482 192.083 51.1865 188.805 48.32 186.141C46.8868 184.912 45.0441 183.683 43.4061 184.502C41.9729 185.322 41.7681 187.371 41.7681 189.01C41.9729 193.927 42.5872 199.05 43.6109 203.762" fill="#5ECC95"/>
<path d="M71.6611 202.533C71.6611 202.533 76.9845 223.227 55.6909 224.252C36.24 225.071 40.9491 202.533 40.9491 202.533H71.6611Z" fill="#154593"/>
<path d="M112.815 77.5471C112.815 77.5471 112.61 77.5471 112.406 77.752C112.201 77.9569 111.587 78.1618 111.177 78.5716C110.153 79.3912 108.925 81.0303 108.515 83.2842C108.311 84.5135 108.311 85.7429 108.72 86.9723C109.13 88.2017 109.949 89.6359 110.972 90.6604C111.587 91.2751 112.201 91.6849 113.02 91.8898C113.839 92.2996 114.453 92.5044 115.477 92.5044C117.115 92.7093 118.957 92.5045 120.595 91.6849C122.233 90.8653 123.462 89.431 124.076 87.9968C124.486 87.1772 124.69 86.3576 124.69 85.538C124.895 84.7184 124.895 83.8989 124.69 83.0793C124.486 81.4401 123.871 80.2107 122.848 79.1863C122.029 78.1618 120.8 77.3422 119.776 76.9324C117.524 75.9079 115.682 76.1128 114.453 76.5226C113.839 76.7275 113.429 76.9324 113.02 77.1373C113.02 77.5471 112.815 77.5471 112.815 77.5471C112.815 77.5471 113.429 77.1373 114.658 76.9324C115.886 76.7275 117.729 76.5226 119.776 77.5471C120.8 77.9569 121.824 78.7765 122.643 79.801C123.462 80.8254 124.076 82.0548 124.281 83.4891C124.486 84.3087 124.486 84.9233 124.281 85.7429C124.281 86.5625 123.871 87.1772 123.667 87.9968C123.052 89.431 121.824 90.6604 120.391 91.48C118.958 92.2995 117.115 92.5044 115.682 92.2996C114.863 92.2996 114.044 91.8898 113.429 91.6849C112.815 91.2751 111.996 90.8653 111.587 90.4555C110.563 89.431 109.744 88.2017 109.334 86.9723C108.925 85.7429 108.925 84.5135 108.925 83.2842C109.334 81.0303 110.358 79.5961 111.382 78.5716C112.201 77.9569 112.815 77.5471 112.815 77.5471Z" fill="#00143A"/>
<path d="M135.542 75.9078C135.542 75.9078 135.337 75.9078 134.928 75.9078C134.518 75.9078 134.109 75.9078 133.494 76.1127C132.266 76.5225 130.423 77.3421 128.99 79.1862C128.376 80.2106 127.762 81.2351 127.557 82.6694C127.352 84.1036 127.352 85.5379 127.966 86.9722C128.171 87.7918 128.58 88.4064 129.195 89.0211C129.604 89.6358 130.218 90.2505 131.037 90.6603C132.471 91.6848 134.109 92.0945 135.951 92.0945C137.794 92.0945 139.432 91.4799 140.865 90.2505C141.48 89.6358 142.094 89.0211 142.503 88.4064C142.913 87.7917 143.322 86.9722 143.527 86.3575C143.936 84.9232 143.936 83.2841 143.732 82.0547C143.527 80.6204 142.708 79.596 142.094 78.7764C140.66 76.9323 138.818 76.3176 137.385 76.1127C136.77 75.9078 136.156 75.9078 135.951 75.9078C135.747 75.9078 135.542 75.9078 135.542 75.9078C135.542 75.9078 136.156 75.9078 137.385 76.1127C138.613 76.3176 140.456 77.1372 141.684 78.9813C142.299 79.8008 142.913 81.0302 143.322 82.2596C143.527 83.4889 143.527 84.9232 143.117 86.3575C142.913 86.9722 142.503 87.7917 142.094 88.4064C141.684 89.0211 141.07 89.6358 140.456 90.0456C139.227 91.0701 137.589 91.6848 135.951 91.6848C134.313 91.6848 132.675 91.275 131.242 90.2505C130.628 89.8407 130.014 89.226 129.604 88.6113C129.195 87.9967 128.785 87.382 128.376 86.7673C127.762 85.333 127.761 83.8987 127.966 82.6694C128.171 81.44 128.58 80.2106 129.195 79.3911C130.423 77.547 132.266 76.7274 133.29 76.3176C134.723 75.9078 135.542 75.9078 135.542 75.9078Z" fill="#00143A"/>
<path d="M127.966 84.9233C127.966 84.7184 127.147 84.7184 126.328 84.7184C125.305 84.7184 124.69 84.9233 124.69 84.9233C124.69 85.1282 125.509 85.1282 126.328 85.1282C127.147 85.1282 127.966 84.9233 127.966 84.9233Z" fill="#00143A"/>
<path d="M109.13 85.5379C109.13 85.3331 107.287 85.3331 105.035 85.5379C102.783 85.5379 100.94 85.7428 100.94 85.9477C100.94 86.1526 102.783 86.1526 105.035 85.9477C107.082 85.7428 109.13 85.7428 109.13 85.5379Z" fill="#00143A"/>
<path d="M100.735 101.52C95.207 95.5778 94.7975 86.9722 94.7975 78.9813C94.7975 75.0883 95.0022 70.9904 96.845 67.7121C98.6877 64.4338 102.168 62.3848 105.649 60.7456C110.972 58.4918 116.91 57.2624 122.643 58.4918C128.376 59.5163 133.699 62.9995 136.566 67.917C136.566 67.917 110.153 67.3023 108.515 68.3268C106.673 69.3512 101.349 73.2442 101.759 77.9568C102.168 82.6694 103.602 89.6359 103.602 89.6359L99.3019 89.0212C99.3019 89.0212 99.7114 82.6694 97.8687 82.8743C96.026 83.0792 100.735 101.52 100.735 101.52Z" fill="#00143A"/>
<path d="M99.5066 90.6604C99.3018 91.48 98.4829 91.8898 97.6639 91.8898C96.8449 91.8898 96.2306 91.48 95.6164 91.0702C94.3879 90.0457 93.3641 88.6114 93.1594 86.9723C92.9546 85.3331 93.5689 83.694 95.0021 82.8744C96.4353 82.0548 98.4828 82.4646 99.3018 83.8989L99.5066 90.6604Z" fill="#F6BA99"/>
<path d="M364.653 226.096V211.548L357.282 209.909L364.653 205.401V191.673H286.44V199.869H281.935C282.754 200.689 280.502 201.713 281.526 202.123C283.164 202.738 286.849 203.557 286.849 203.557L285.826 209.294L290.125 210.319L284.188 214.417L283.164 225.276L364.243 226.915" fill="#FCE8CF"/>
</g>
<g clip-path="url(#clip1_2_467)">
<path d="M635.767 25.3658C637.978 32.5412 640.189 39.9105 642.399 47.0859C642.801 48.0555 643.002 49.0252 643.002 50.1887C643.002 53.2916 639.988 55.6188 636.772 56.2005C633.557 56.7823 630.542 56.0066 627.327 55.037C626.523 58.1398 622.705 59.4973 619.489 60.0791C604.818 62.7941 589.545 60.8548 576.08 54.843C581.908 46.8919 586.53 38.1652 590.148 29.0505C601.603 29.6323 613.058 30.0202 624.513 30.6019C626.523 30.6019 628.533 30.7959 630.542 30.0202C632.351 29.4384 634.16 27.693 634.361 25.7537" fill="#F17F60"/>
<path d="M502.927 120.779L499.511 117.094C499.511 117.094 497.099 115.155 493.683 110.889C492.879 109.725 492.075 108.562 491.673 107.204C491.07 105.653 490.467 103.519 490.467 102.162C490.467 100.61 488.458 99.8347 487.654 100.804C486.649 101.968 486.448 106.428 488.659 111.083C490.668 115.737 483.232 112.052 480.62 110.695C477.806 109.337 469.165 105.653 468.16 106.234C466.552 107.01 467.155 108.755 469.768 109.919C472.581 111.276 480.62 115.543 479.816 116.9C479.012 118.258 465.145 111.277 465.145 111.277C465.145 111.277 462.533 109.337 461.528 110.889C459.719 113.604 474.993 120.003 476.4 120.585C477.404 120.973 476.6 122.524 475.596 121.943C474.591 121.361 461.93 114.767 460.121 117.482C458.714 119.615 472.581 122.718 474.39 125.627C476.199 128.342 464.14 122.136 462.935 124.27C462.533 125.045 462.332 125.627 469.768 128.342C477.404 131.057 499.31 134.936 499.31 134.936L502.927 120.391" fill="#F2957E"/>
<path d="M564.826 86.6475C564.826 86.6475 552.366 121.361 548.547 121.749C522.22 124.076 493.683 113.022 493.683 113.022L486.448 132.609C486.448 132.609 561.007 164.801 577.085 133.772C594.167 100.804 593.363 95.7621 593.363 95.7621L564.826 86.6475Z" fill="#F2957E"/>
<path d="M566.433 283.485C579.697 342.633 667.722 397.709 667.722 397.709L682.593 380.061C682.593 380.061 612.053 319.362 609.039 292.212C606.024 265.256 629.538 222.785 629.538 222.785L605.22 212.895L566.433 283.485Z" fill="#1F3642"/>
<path d="M596.177 67.8363C596.579 65.3152 595.574 55.2309 595.574 55.2309C595.574 55.2309 585.927 54.2612 585.324 44.9527C584.721 35.6441 585.324 14.312 585.324 14.312L603.01 5.97302L622.303 20.1298L619.288 66.2848L596.177 67.8363Z" fill="#F6BA99"/>
<path d="M620.896 27.4989C620.896 27.4989 605.019 26.1414 602.206 12.1786L585.123 27.4989C585.123 27.4989 579.898 17.2207 589.344 7.7182C598.789 -1.7843 605.421 0.154999 609.039 0.154999C612.455 0.154999 630.14 3.83965 635.366 23.0386C635.767 24.3961 635.968 27.8868 636.37 29.4382L620.896 27.4989Z" fill="#F17F60"/>
<path d="M587.334 30.0203C587.334 30.6021 587.937 31.1838 588.54 31.1838C589.143 31.1838 589.746 30.6021 589.746 30.0203C589.746 29.4385 589.143 28.8567 588.54 28.8567C587.937 28.8567 587.334 29.2446 587.334 30.0203Z" fill="#00143A"/>
<path d="M586.128 28.6627C586.329 28.8566 587.133 28.0809 588.54 28.0809C589.947 28.0809 590.952 28.6627 590.952 28.4688C590.952 28.4688 590.952 28.0809 590.349 27.887C589.947 27.6931 589.143 27.3052 588.339 27.3052C587.535 27.3052 586.932 27.6931 586.53 28.0809C586.329 28.2749 586.128 28.6627 586.128 28.6627Z" fill="#00143A"/>
<path d="M601.603 30.0203C601.603 30.6021 602.206 31.1838 602.809 31.1838C603.412 31.1838 604.014 30.6021 604.014 30.0203C604.014 29.4385 603.412 28.8567 602.809 28.8567C602.206 28.8567 601.603 29.2446 601.603 30.0203Z" fill="#00143A"/>
<path d="M600.799 28.6627C601 28.8566 601.804 28.0809 603.211 28.0809C604.617 28.0809 605.622 28.6627 605.622 28.4688C605.622 28.4688 605.622 28.0809 605.019 27.887C604.617 27.6931 603.814 27.3052 603.01 27.3052C602.206 27.3052 601.603 27.6931 601.201 28.0809C600.799 28.2749 600.799 28.6627 600.799 28.6627Z" fill="#00143A"/>
<path d="M595.976 39.5227C595.976 39.5227 595.172 39.3287 593.765 39.3287C593.363 39.3287 593.162 39.3287 592.961 38.9409C592.961 38.7469 592.961 38.3591 593.162 37.9712C593.363 37.1955 593.765 36.2259 594.167 35.2562C594.77 33.3169 595.373 31.5716 595.775 30.408C596.177 29.2444 596.378 28.4687 596.177 28.2748C596.177 28.2748 595.775 29.0505 595.373 30.2141C594.971 31.3776 594.368 33.123 593.765 35.0623C593.363 36.0319 593.162 36.8077 592.961 37.7773C592.76 38.1652 592.559 38.553 592.76 39.1348C592.76 39.3287 593.162 39.5227 593.363 39.5227C593.564 39.5227 593.765 39.5227 593.966 39.5227C595.172 39.5227 595.976 39.5227 595.976 39.5227Z" fill="#00143A"/>
<g opacity="0.33">
<path opacity="0.33" d="M602.407 40.1046C602.407 41.0742 604.215 41.8499 606.225 42.0439C608.235 42.0439 610.044 41.4621 610.044 40.2985C610.044 39.3289 608.436 38.1653 606.225 38.1653C604.014 38.1653 602.407 38.941 602.407 40.1046Z" fill="#F2957E"/>
</g>
<path d="M600.397 40.6863C601.804 39.9106 596.78 42.8195 593.966 42.8195C593.966 42.8195 595.574 45.1467 598.387 43.9831C601.201 42.8195 600.397 40.6863 600.397 40.6863Z" fill="#F3F0EB"/>
<path d="M595.775 55.231C595.775 55.231 602.206 55.231 608.436 51.1584C608.436 51.1584 605.622 57.9459 595.976 57.5581L595.775 55.231Z" fill="#F2957E"/>
<path d="M575.879 172.17C575.879 175.467 577.085 180.121 577.085 180.121L645.012 198.932C645.012 198.932 649.835 169.261 637.375 152.777C631.748 145.214 632.954 134.548 635.366 125.433L643.404 94.4044L632.753 65.1212L589.947 67.8363C589.947 67.8363 565.228 65.5091 556.385 97.1194L572.261 120.197L572.462 128.924L575.879 172.17Z" fill="#FCD588"/>
<path d="M641.998 160.534C642.801 160.534 655.06 187.296 643.806 203.004C642.801 204.362 640.189 208.047 636.772 213.283C620.293 237.718 582.712 294.927 581.506 303.459C580.099 313.544 549.552 420.592 549.552 420.592L526.843 417.102L545.332 295.896L575.477 172.364L641.998 160.534Z" fill="#2A4759"/>
<path d="M602.809 11.0151C602.809 11.0151 599.392 17.6087 600.799 22.4569L585.525 26.3355C585.525 26.3355 581.908 7.52441 602.809 11.0151Z" fill="#F17F60"/>
<path d="M636.37 27.887C636.37 27.887 638.38 49.2192 619.69 53.0977L620.896 27.4991L636.37 27.887Z" fill="#F17F60"/>
<path opacity="0.34" d="M595.373 120.003L539.504 48.6373L435 94.2106L477.203 132.996L525.034 140.56L595.373 120.003Z" fill="url(#paint1_linear_2_467)"/>
<path d="M566.031 127.178L527.847 142.693L465.346 144.05L435 94.2104L499.31 90.1379L527.044 138.232L565.83 123.688L566.031 127.178Z" fill="#B4CCE9"/>
<path d="M559.199 90.526L548.346 115.737L572.462 127.372L574.673 105.265L559.199 90.526Z" fill="#FCD588"/>
<path d="M625.518 65.5091L621.499 60.8549L604.014 65.1213L606.225 70.1634L625.518 65.5091Z" fill="#EDB758"/>
<path d="M606.225 70.1635L599.191 82.9628L598.99 70.1635L599.794 66.0909H604.416L606.225 70.1635Z" fill="#F6BA99"/>
<path d="M598.99 70.1635L599.995 65.1213L595.775 63.376L590.751 67.8364L598.99 70.1635Z" fill="#EDB758"/>
<path d="M572.261 127.76C572.261 127.76 572.663 127.179 572.663 126.015C572.663 124.851 571.86 123.3 570.654 121.749C569.448 120.197 567.438 118.646 567.036 116.319C566.835 115.155 566.835 113.797 567.237 112.634C567.639 111.47 568.644 110.307 569.649 109.531C570.654 108.755 572.06 108.367 573.266 108.174H573.668V107.786C574.472 102.937 575.276 98.671 575.477 95.5682C575.879 92.4653 575.477 90.526 575.477 90.526C575.276 90.526 575.276 92.4653 574.874 95.3742C574.472 98.4771 573.467 102.744 572.663 107.592L573.065 107.204C571.658 107.204 570.252 107.786 568.845 108.561C567.438 109.531 566.433 110.695 566.031 112.246C565.428 113.604 565.429 115.155 565.83 116.512C566.031 117.87 566.835 119.034 567.639 120.003C568.443 120.973 569.247 121.555 569.85 122.33C571.257 123.688 571.859 125.045 572.06 126.209C572.462 127.179 572.261 127.76 572.261 127.76Z" fill="#EDB758"/>
<path d="M572.462 94.4046C572.261 94.5985 572.864 95.7621 573.467 97.1196C574.07 98.4771 574.472 99.8346 574.874 99.8346C575.075 99.8346 575.276 98.2832 574.472 96.7318C573.668 95.1803 572.663 94.2107 572.462 94.4046Z" fill="#EDB758"/>
<path d="M547.743 115.931C547.542 116.124 552.968 119.033 560.002 122.136C567.036 125.239 572.864 127.178 572.864 126.984C573.065 126.791 567.237 124.269 560.404 121.167C553.37 118.258 547.743 115.737 547.743 115.931Z" fill="#EDB758"/>
<path d="M549.15 112.246C548.949 112.44 553.973 115.349 560.002 118.452C566.232 121.554 571.257 124.076 571.457 123.688C571.658 123.494 566.634 120.585 560.404 117.482C554.375 114.379 549.351 112.052 549.15 112.246Z" fill="#EDB758"/>
<path d="M581.305 95.1802C581.305 95.3741 582.712 95.762 584.521 95.9559C586.329 96.1499 587.937 95.9559 587.937 95.5681C587.937 95.3741 586.53 94.9863 584.722 94.7924C582.913 94.7924 581.305 94.9863 581.305 95.1802Z" fill="#EDB758"/>
<path d="M580.702 96.3439C580.702 96.5378 582.31 97.3135 584.32 97.7014C586.53 98.2832 588.138 98.4771 588.339 98.0892C588.339 97.8953 586.731 97.1196 584.722 96.7317C582.511 96.15 580.702 95.956 580.702 96.3439Z" fill="#EDB758"/>
<path d="M525.034 417.102C525.034 417.102 505.138 422.144 510.162 423.695C515.186 425.053 549.552 421.562 549.552 421.562L550.758 417.684L525.034 417.102Z" fill="#635449"/>
<path d="M549.552 421.368L556.385 403.139H526.039L525.034 417.101L549.552 421.368Z" fill="#635449"/>
<path d="M667.922 398.872C667.922 398.872 662.898 418.071 666.717 414.581C670.535 411.09 684 380.255 684 380.255L681.186 377.54L667.922 398.872Z" fill="#635449"/>
<path d="M683.799 380.449L670.736 365.711L655.864 391.309L667.922 398.872L683.799 380.449Z" fill="#635449"/>
<path d="M601.402 5.00349C601.402 4.80956 599.593 4.80957 596.579 5.58528C593.765 6.36099 589.947 8.10635 586.731 11.4031C583.516 14.6999 582.109 18.3846 581.506 21.2935C580.903 24.2024 581.104 25.9478 581.305 25.9478C581.506 25.9478 581.506 24.2024 582.31 21.4874C583.114 18.7724 584.721 15.2817 587.535 12.1788C590.55 9.07598 594.167 7.33063 596.78 6.36098C599.593 5.39134 601.402 5.19742 601.402 5.00349Z" fill="#F17F60"/>
<path d="M623.508 39.1349C623.508 37.5835 623.508 36.0321 624.111 34.4807C624.714 33.1232 625.92 31.7657 627.528 31.5717C629.337 31.3778 631.145 32.9292 631.346 34.6746C631.547 36.42 630.542 38.1653 628.935 39.1349C627.327 39.9106 625.317 39.9106 623.508 39.1349Z" fill="#F6BA99"/>
<path d="M596.981 29.4383C596.981 29.4383 596.981 28.8566 597.383 27.693C597.784 26.5294 598.387 24.978 600.196 23.8144C601 23.2326 602.005 22.6508 603.211 22.4569C604.416 22.263 605.823 22.263 607.029 22.8448C608.235 23.2326 609.441 24.2023 610.445 25.3658C611.249 26.5294 611.852 27.8869 611.852 29.4383C611.852 30.9898 611.249 32.3473 610.445 33.5108C609.642 34.6744 608.436 35.4501 607.029 36.0319C605.823 36.4198 604.416 36.6137 603.211 36.4198C602.005 36.2258 601 35.644 600.196 35.0623C598.588 33.8987 597.784 32.3473 597.383 31.1837C596.981 30.0201 596.981 29.4383 596.981 29.4383C596.981 29.4383 596.981 29.6323 596.981 29.8262C596.981 30.2141 596.98 30.6019 597.181 31.1837C597.382 32.3473 598.186 33.8987 599.995 35.2562C600.799 35.838 602.005 36.4198 603.211 36.6137C604.416 36.8076 605.823 36.8076 607.23 36.2258C608.637 35.838 609.843 34.8684 610.847 33.7048C611.852 32.5412 612.254 30.9898 612.455 29.2444C612.455 27.693 611.852 25.9476 610.847 24.7841C609.843 23.6205 608.637 22.6509 607.23 22.263C605.823 21.6812 604.416 21.6812 603.211 21.8751C602.005 22.0691 600.799 22.6509 599.995 23.2327C598.186 24.5902 597.583 26.1415 597.181 27.3051C596.98 27.8869 596.981 28.2748 596.981 28.6626C596.78 29.2444 596.78 29.4383 596.981 29.4383Z" fill="#00143A"/>
<path d="M579.496 29.4383C579.496 29.4383 579.496 28.8566 579.898 27.693C580.3 26.5294 580.903 24.978 582.712 23.8144C583.516 23.2326 584.521 22.6508 585.726 22.4569C586.932 22.263 588.339 22.263 589.545 22.8448C590.751 23.2326 591.956 24.2023 592.961 25.3658C593.765 26.5294 594.368 27.8869 594.368 29.4383C594.368 30.9898 593.765 32.3473 592.961 33.5108C592.157 34.6744 590.951 35.4501 589.545 36.0319C588.339 36.4198 586.932 36.6137 585.726 36.4198C584.521 36.2258 583.516 35.644 582.712 35.0623C581.104 33.8987 580.3 32.3473 579.898 31.1837C579.697 30.0201 579.697 29.4383 579.496 29.4383C579.496 29.4383 579.496 29.6323 579.496 29.8262C579.496 30.2141 579.496 30.6019 579.697 31.1837C579.898 32.3473 580.702 33.8987 582.511 35.2562C583.315 35.838 584.521 36.4198 585.726 36.6137C586.932 36.8076 588.339 36.8076 589.746 36.2258C591.153 35.838 592.358 34.8684 593.363 33.7048C594.368 32.5412 594.77 30.9898 594.971 29.2444C594.971 27.693 594.368 25.9476 593.363 24.7841C592.358 23.6205 591.153 22.6509 589.746 22.263C588.339 21.6812 586.932 21.6812 585.726 21.8751C584.521 22.0691 583.315 22.6509 582.511 23.2327C580.702 24.5902 580.099 26.1415 579.697 27.3051C579.496 27.8869 579.496 28.2748 579.496 28.6626C579.496 29.2444 579.496 29.4383 579.496 29.4383Z" fill="#00143A"/>
<path d="M594.569 29.6324C594.569 29.8263 595.172 29.8264 595.976 29.8264C596.78 29.8264 597.383 29.6324 597.383 29.6324C597.383 29.4385 596.78 29.4385 595.976 29.4385C595.172 29.4385 594.569 29.4385 594.569 29.6324Z" fill="#00143A"/>
<path d="M611.651 30.9898C611.651 31.1838 614.666 31.7655 618.283 32.5413C621.901 33.317 624.915 33.7048 624.915 33.5109C624.915 33.317 621.901 32.7352 618.283 31.9595C614.666 31.1838 611.651 30.7959 611.651 30.9898Z" fill="#00143A"/>
<path d="M473.787 118.064C474.591 120.391 476.6 121.749 478.409 121.167C480.017 120.585 480.821 118.258 480.017 116.125C479.213 113.798 477.203 112.44 475.395 113.022C473.586 113.604 472.983 115.931 473.787 118.064Z" fill="#F3F0EB"/>
<path d="M612.656 173.333C612.656 173.333 611.852 87.8109 614.867 81.4113C614.867 81.4113 618.082 65.3151 630.743 65.1212L625.116 65.5091C625.116 65.5091 613.661 64.7334 610.244 86.6473C606.828 108.561 607.23 174.109 607.23 174.109L612.656 173.333Z" fill="#2A4759"/>
<path d="M587.937 176.436C587.937 176.436 584.52 78.3086 587.133 67.8364H583.717C583.717 67.8364 580.702 76.3693 581.305 99.8346C581.707 113.991 581.305 176.436 581.305 176.436H587.937Z" fill="#2A4759"/>
<path d="M547.341 132.802C547.341 132.802 530.661 143.08 527.044 142.887C523.426 142.887 512.976 142.499 513.981 143.856C514.985 145.214 527.044 147.153 527.044 147.153L547.341 132.802Z" fill="#F6BA99"/>
<path d="M548.547 154.328C548.547 154.328 627.327 174.691 638.179 141.723C649.634 106.622 649.835 115.737 649.835 115.737L625.116 92.6591C625.116 92.6591 611.852 132.996 608.034 133.966C587.334 139.008 563.821 135.711 555.38 134.354C554.375 133.578 553.37 132.608 552.165 131.639C551.16 130.669 550.155 129.505 549.552 128.342C548.748 126.79 547.743 124.851 547.542 123.494C547.341 121.942 545.131 121.36 544.528 122.718C543.724 124.075 544.327 128.342 547.14 132.802C547.14 132.802 528.45 144.438 526.843 147.347L548.547 154.328Z" fill="#F6BA99"/>
<path d="M632.753 65.1212C632.753 65.1212 650.84 68.418 651.443 95.762C652.247 123.106 640.792 144.05 640.792 144.05L610.044 128.536L632.753 65.1212Z" fill="#FCD588"/>
<path d="M610.244 128.73C610.244 128.924 612.053 129.699 614.867 130.863C617.68 132.22 621.7 133.966 625.92 136.099C630.14 138.232 633.959 140.365 636.571 141.917C639.184 143.468 640.993 144.438 640.993 144.244C640.993 144.05 639.586 142.887 636.973 141.335C634.361 139.59 630.542 137.457 626.322 135.323C622.102 133.19 618.082 131.445 615.068 130.281C612.053 129.118 610.244 128.536 610.244 128.73Z" fill="#EDB758"/>
<path d="M611.45 126.79C611.45 126.984 613.259 127.566 616.073 128.73C618.886 129.893 622.906 131.445 627.126 133.384C631.346 135.323 634.964 137.263 637.777 138.814C640.39 140.365 641.998 141.335 642.198 141.141C642.198 140.947 640.792 139.784 638.179 138.232C635.567 136.487 631.949 134.548 627.729 132.414C623.508 130.475 619.489 128.924 616.475 127.954C613.46 126.984 611.45 126.596 611.45 126.79Z" fill="#EDB758"/>
<path d="M620.293 97.3134C620.494 97.3134 621.097 94.9862 620.896 92.0773C620.695 89.1684 619.69 87.0352 619.489 87.0352C619.288 87.0352 619.69 89.3623 619.891 92.0773C619.891 94.9862 619.891 97.3134 620.293 97.3134Z" fill="#EDB758"/>
<path d="M610.244 128.536C610.445 128.536 611.651 126.597 613.259 123.106C614.867 119.615 616.876 114.767 618.685 109.143C620.293 103.519 621.499 98.477 622.102 94.5984C622.705 90.9138 622.704 88.5866 622.704 88.3927C622.504 88.3927 622.102 90.7199 621.499 94.4045C620.695 98.0891 619.489 103.131 617.881 108.755C616.274 114.185 614.264 119.227 612.857 122.718C611.048 126.403 610.043 128.536 610.244 128.536Z" fill="#EDB758"/>
</g>
<defs>
<linearGradient id="paint0_linear_2_467" x1="344.581" y1="240.402" x2="145.867" y2="127.701" gradientUnits="userSpaceOnUse">
<stop stop-color="white"/>
<stop offset="1" stop-color="white" stop-opacity="0"/>
</linearGradient>
<linearGradient id="paint1_linear_2_467" x1="478.984" y1="119.341" x2="556.72" y2="86.2277" gradientUnits="userSpaceOnUse">
<stop stop-color="white"/>
<stop offset="0.2316" stop-color="white" stop-opacity="0.7684"/>
<stop offset="1" stop-color="white" stop-opacity="0"/>
</linearGradient>
<clipPath id="clip0_2_467">
<rect width="371" height="365" fill="white" transform="matrix(-1 0 0 1 371 58)"/>
</clipPath>
<clipPath id="clip1_2_467">
<rect width="249" height="424.025" fill="white" transform="translate(435)"/>
</clipPath>
</defs>
</svg>
